<?xml version="1.0" encoding="UTF-8" standalone="no"?>
<!DOCTYPE svg PUBLIC "-//W3C//DTD SVG 1.1//EN"
 "http://www.w3.org/Graphics/SVG/1.1/DTD/svg11.dtd">
<!-- Generated by graphviz version 2.28.0 (20121221.0049)
 -->
<!-- Title: /media/DEVEL/ProjetIUT/DroneWifi/sources/keyboardCommand/ardrone.cpp Pages: 1 -->
<svg width="217pt" height="162pt"
 viewBox="0.00 0.00 217.00 162.00" xmlns="http://www.w3.org/2000/svg" xmlns:xlink="http://www.w3.org/1999/xlink">
<g id="graph1" class="graph" transform="scale(1 1) rotate(0) translate(4 158)">
<title>/media/DEVEL/ProjetIUT/DroneWifi/sources/keyboardCommand/ardrone.cpp</title>
<polygon fill="white" stroke="white" points="-4,5 -4,-158 214,-158 214,5 -4,5"/>
<!-- Node1 -->
<g id="node1" class="node"><title>Node1</title>
<polygon fill="#bfbfbf" stroke="black" points="0,-112.5 0,-153.5 188,-153.5 188,-112.5 0,-112.5"/>
<text text-anchor="start" x="8" y="-141.5" font-family="Helvetica,sans-Serif" font-size="10.00">/media/DEVEL/ProjetIUT</text>
<text text-anchor="start" x="8" y="-130.5" font-family="Helvetica,sans-Serif" font-size="10.00">/DroneWifi/sources/keyboardCommand</text>
<text text-anchor="middle" x="94" y="-119.5" font-family="Helvetica,sans-Serif" font-size="10.00">/ardrone.cpp</text>
</g>
<!-- Node2 -->
<g id="node3" class="node"><title>Node2</title>
<a xlink:href="ardrone_8h.html" target="_top" xlink:title="ardrone.h">
<polygon fill="white" stroke="black" points="65.5,-56.5 65.5,-75.5 122.5,-75.5 122.5,-56.5 65.5,-56.5"/>
<text text-anchor="middle" x="94" y="-63.5" font-family="Helvetica,sans-Serif" font-size="10.00">ardrone.h</text>
</a>
</g>
<!-- Node1&#45;&gt;Node2 -->
<g id="edge2" class="edge"><title>Node1&#45;&gt;Node2</title>
<path fill="none" stroke="midnightblue" d="M94,-112.498C94,-104.065 94,-94.2351 94,-85.874"/>
<polygon fill="midnightblue" stroke="midnightblue" points="97.5001,-85.6525 94,-75.6525 90.5001,-85.6525 97.5001,-85.6525"/>
</g>
<!-- Node3 -->
<g id="node5" class="node"><title>Node3</title>
<polygon fill="white" stroke="#bfbfbf" points="14,-0.5 14,-19.5 68,-19.5 68,-0.5 14,-0.5"/>
<text text-anchor="middle" x="41" y="-7.5" font-family="Helvetica,sans-Serif" font-size="10.00">QThread</text>
</g>
<!-- Node2&#45;&gt;Node3 -->
<g id="edge4" class="edge"><title>Node2&#45;&gt;Node3</title>
<path fill="none" stroke="midnightblue" d="M85.2481,-56.083C77.5303,-48.2195 66.0953,-36.5688 56.7835,-27.0813"/>
<polygon fill="midnightblue" stroke="midnightblue" points="59.0916,-24.4363 49.589,-19.7511 54.0958,-29.3396 59.0916,-24.4363"/>
</g>
<!-- Node4 -->
<g id="node7" class="node"><title>Node4</title>
<polygon fill="white" stroke="#bfbfbf" points="86.5,-0.5 86.5,-19.5 209.5,-19.5 209.5,-0.5 86.5,-0.5"/>
<text text-anchor="middle" x="148" y="-7.5" font-family="Helvetica,sans-Serif" font-size="10.00">QtNetwork/QUdpSocket</text>
</g>
<!-- Node2&#45;&gt;Node4 -->
<g id="edge6" class="edge"><title>Node2&#45;&gt;Node4</title>
<path fill="none" stroke="midnightblue" d="M102.917,-56.083C110.78,-48.2195 122.431,-36.5688 131.919,-27.0813"/>
<polygon fill="midnightblue" stroke="midnightblue" points="134.653,-29.2971 139.249,-19.7511 129.703,-24.3473 134.653,-29.2971"/>
</g>
</g>
</svg>
