<?xml version="1.0" encoding="UTF-8" standalone="no"?>
<!DOCTYPE svg PUBLIC "-//W3C//DTD SVG 1.1//EN"
 "http://www.w3.org/Graphics/SVG/1.1/DTD/svg11.dtd">
<!-- Generated by graphviz version 2.28.0 (20121221.0049)
 -->
<!-- Title: MainWindow::on_btnTakeOffLand_clicked Pages: 1 -->
<svg width="454pt" height="180pt"
 viewBox="0.00 0.00 454.00 180.00" xmlns="http://www.w3.org/2000/svg" xmlns:xlink="http://www.w3.org/1999/xlink">
<g id="graph1" class="graph" transform="scale(1 1) rotate(0) translate(4 176)">
<title>MainWindow::on_btnTakeOffLand_clicked</title>
<polygon fill="white" stroke="white" points="-4,5 -4,-176 451,-176 451,5 -4,5"/>
<!-- Node1 -->
<g id="node1" class="node"><title>Node1</title>
<polygon fill="#bfbfbf" stroke="black" points="0.5,-108 0.5,-138 143.5,-138 143.5,-108 0.5,-108"/>
<text text-anchor="start" x="8.5" y="-126" font-family="Helvetica,sans-Serif" font-size="10.00">MainWindow::on_btnTakeOff</text>
<text text-anchor="middle" x="72" y="-115" font-family="Helvetica,sans-Serif" font-size="10.00">Land_clicked</text>
</g>
<!-- Node2 -->
<g id="node3" class="node"><title>Node2</title>
<a xlink:href="class_a_r_drone.html#a990dcded2f78b03960887e6c2bf3e717" target="_top" xlink:title="Demande de décollage.">
<polygon fill="white" stroke="black" points="180.5,-85.5 180.5,-104.5 273.5,-104.5 273.5,-85.5 180.5,-85.5"/>
<text text-anchor="middle" x="227" y="-92.5" font-family="Helvetica,sans-Serif" font-size="10.00">ARDrone::takeoff</text>
</a>
</g>
<!-- Node1&#45;&gt;Node2 -->
<g id="edge2" class="edge"><title>Node1&#45;&gt;Node2</title>
<path fill="none" stroke="midnightblue" d="M143.678,-110.065C152.57,-108.438 161.567,-106.792 170.185,-105.214"/>
<polygon fill="midnightblue" stroke="midnightblue" points="170.893,-108.643 180.1,-103.4 169.633,-101.757 170.893,-108.643"/>
</g>
<!-- Node8 -->
<g id="node15" class="node"><title>Node8</title>
<a xlink:href="class_a_r_drone.html#aa978fd9336466eb938ac12b774adc8d6" target="_top" xlink:title="Demande d&#39;atterrissage.">
<polygon fill="white" stroke="black" points="186.5,-142.5 186.5,-161.5 267.5,-161.5 267.5,-142.5 186.5,-142.5"/>
<text text-anchor="middle" x="227" y="-149.5" font-family="Helvetica,sans-Serif" font-size="10.00">ARDrone::land</text>
</a>
</g>
<!-- Node1&#45;&gt;Node8 -->
<g id="edge14" class="edge"><title>Node1&#45;&gt;Node8</title>
<path fill="none" stroke="midnightblue" d="M143.678,-136.396C154.6,-138.467 165.682,-140.567 176.026,-142.528"/>
<polygon fill="midnightblue" stroke="midnightblue" points="175.613,-146.012 186.09,-144.435 176.917,-139.134 175.613,-146.012"/>
</g>
<!-- Node3 -->
<g id="node5" class="node"><title>Node3</title>
<a xlink:href="class_a_r_drone.html#a534090497b9f3a959218e2edfe8cda25" target="_top" xlink:title="Envoyer une commande AT.">
<polygon fill="white" stroke="black" points="329.5,-152.5 329.5,-171.5 426.5,-171.5 426.5,-152.5 329.5,-152.5"/>
<text text-anchor="middle" x="378" y="-159.5" font-family="Helvetica,sans-Serif" font-size="10.00">ARDrone::sendAT</text>
</a>
</g>
<!-- Node2&#45;&gt;Node3 -->
<g id="edge4" class="edge"><title>Node2&#45;&gt;Node3</title>
<path fill="none" stroke="midnightblue" d="M241.938,-104.645C257.81,-115.267 284.81,-132.262 310,-143 315.486,-145.339 321.346,-147.482 327.231,-149.417"/>
<polygon fill="midnightblue" stroke="midnightblue" points="326.511,-152.858 337.099,-152.477 328.585,-146.172 326.511,-152.858"/>
</g>
<!-- Node4 -->
<g id="node7" class="node"><title>Node4</title>
<a xlink:href="class_a_r_drone.html#a6d49175397dcce8b90fb2f7200525080" target="_top" xlink:title="Setter sécurisé de la valeur de la vitesse verticale.">
<polygon fill="white" stroke="black" points="314,-114.5 314,-133.5 442,-133.5 442,-114.5 314,-114.5"/>
<text text-anchor="middle" x="378" y="-121.5" font-family="Helvetica,sans-Serif" font-size="10.00">ARDrone::setGoUpDown</text>
</a>
</g>
<!-- Node2&#45;&gt;Node4 -->
<g id="edge6" class="edge"><title>Node2&#45;&gt;Node4</title>
<path fill="none" stroke="midnightblue" d="M273.515,-103.859C287.561,-106.592 303.236,-109.643 318.051,-112.527"/>
<polygon fill="midnightblue" stroke="midnightblue" points="317.656,-116.016 328.141,-114.491 318.994,-109.144 317.656,-116.016"/>
</g>
<!-- Node5 -->
<g id="node9" class="node"><title>Node5</title>
<a xlink:href="class_a_r_drone.html#a89b56f0ae2e6f9e9103f05fd4c4b8e78" target="_top" xlink:title="Setter sécurisé de la valeur de la vitesse angulaire.">
<polygon fill="white" stroke="black" points="310,-76.5 310,-95.5 446,-95.5 446,-76.5 310,-76.5"/>
<text text-anchor="middle" x="378" y="-83.5" font-family="Helvetica,sans-Serif" font-size="10.00">ARDrone::setTurnLeftRight</text>
</a>
</g>
<!-- Node2&#45;&gt;Node5 -->
<g id="edge8" class="edge"><title>Node2&#45;&gt;Node5</title>
<path fill="none" stroke="midnightblue" d="M273.515,-92.2508C281.847,-91.7475 290.752,-91.2096 299.711,-90.6684"/>
<polygon fill="midnightblue" stroke="midnightblue" points="300.051,-94.1544 309.822,-90.0577 299.629,-87.1671 300.051,-94.1544"/>
</g>
<!-- Node6 -->
<g id="node11" class="node"><title>Node6</title>
<a xlink:href="class_a_r_drone.html#af59edbd15b6110cd78272fbcef16769d" target="_top" xlink:title="Setter sécurisé de la valeur de l&#39;inclinaison avant arrière.">
<polygon fill="white" stroke="black" points="310.5,-38.5 310.5,-57.5 445.5,-57.5 445.5,-38.5 310.5,-38.5"/>
<text text-anchor="middle" x="378" y="-45.5" font-family="Helvetica,sans-Serif" font-size="10.00">ARDrone::setTiltFrontBack</text>
</a>
</g>
<!-- Node2&#45;&gt;Node6 -->
<g id="edge10" class="edge"><title>Node2&#45;&gt;Node6</title>
<path fill="none" stroke="midnightblue" d="M254.843,-85.435C270.8,-79.8492 291.477,-72.7846 310,-67 317.222,-64.7446 324.917,-62.4566 332.422,-60.2866"/>
<polygon fill="midnightblue" stroke="midnightblue" points="333.469,-63.6275 342.122,-57.5146 331.546,-56.8969 333.469,-63.6275"/>
</g>
<!-- Node7 -->
<g id="node13" class="node"><title>Node7</title>
<a xlink:href="class_a_r_drone.html#aa9dfdd35fc9ed963c581d3bc1c127d12" target="_top" xlink:title="Setter sécurisé de la valeur de l&#39;inclinaison gauche droite.">
<polygon fill="white" stroke="black" points="313,-0.5 313,-19.5 443,-19.5 443,-0.5 313,-0.5"/>
<text text-anchor="middle" x="378" y="-7.5" font-family="Helvetica,sans-Serif" font-size="10.00">ARDrone::setTiltLeftRight</text>
</a>
</g>
<!-- Node2&#45;&gt;Node7 -->
<g id="edge12" class="edge"><title>Node2&#45;&gt;Node7</title>
<path fill="none" stroke="midnightblue" d="M237.187,-85.4718C251.473,-71.1868 280.453,-44.2706 310,-29 314.337,-26.7587 318.972,-24.7518 323.704,-22.961"/>
<polygon fill="midnightblue" stroke="midnightblue" points="325.177,-26.1551 333.488,-19.5831 322.893,-19.5384 325.177,-26.1551"/>
</g>
<!-- Node8&#45;&gt;Node3 -->
<g id="edge16" class="edge"><title>Node8&#45;&gt;Node3</title>
<path fill="none" stroke="midnightblue" d="M267.538,-154.654C283.394,-155.718 301.981,-156.965 319.293,-158.127"/>
<polygon fill="midnightblue" stroke="midnightblue" points="319.096,-161.622 329.308,-158.799 319.565,-154.637 319.096,-161.622"/>
</g>
</g>
</svg>
