<?xml version="1.0" encoding="UTF-8" standalone="no"?>
<!DOCTYPE svg PUBLIC "-//W3C//DTD SVG 1.1//EN"
 "http://www.w3.org/Graphics/SVG/1.1/DTD/svg11.dtd">
<!-- Generated by graphviz version 2.28.0 (20121221.0049)
 -->
<!-- Title: MainWindow::on_btnStat1_clicked Pages: 1 -->
<svg width="312pt" height="142pt"
 viewBox="0.00 0.00 312.00 142.00" xmlns="http://www.w3.org/2000/svg" xmlns:xlink="http://www.w3.org/1999/xlink">
<g id="graph1" class="graph" transform="scale(1 1) rotate(0) translate(4 138)">
<title>MainWindow::on_btnStat1_clicked</title>
<polygon fill="white" stroke="white" points="-4,5 -4,-138 309,-138 309,5 -4,5"/>
<!-- Node1 -->
<g id="node1" class="node"><title>Node1</title>
<polygon fill="#bfbfbf" stroke="black" points="0.5,-52 0.5,-82 131.5,-82 131.5,-52 0.5,-52"/>
<text text-anchor="start" x="8.5" y="-70" font-family="Helvetica,sans-Serif" font-size="10.00">MainWindow::on_btnStat1</text>
<text text-anchor="middle" x="66" y="-59" font-family="Helvetica,sans-Serif" font-size="10.00">_clicked</text>
</g>
<!-- Node2 -->
<g id="node3" class="node"><title>Node2</title>
<a xlink:href="class_a_r_drone.html#a6d49175397dcce8b90fb2f7200525080" target="_top" xlink:title="Setter sécurisé de la valeur de la vitesse verticale.">
<polygon fill="white" stroke="black" points="172,-114.5 172,-133.5 300,-133.5 300,-114.5 172,-114.5"/>
<text text-anchor="middle" x="236" y="-121.5" font-family="Helvetica,sans-Serif" font-size="10.00">ARDrone::setGoUpDown</text>
</a>
</g>
<!-- Node1&#45;&gt;Node2 -->
<g id="edge2" class="edge"><title>Node1&#45;&gt;Node2</title>
<path fill="none" stroke="midnightblue" d="M104.624,-82.0099C123.511,-89.3261 146.824,-98.0274 168,-105 174.948,-107.288 182.354,-109.555 189.613,-111.685"/>
<polygon fill="midnightblue" stroke="midnightblue" points="188.787,-115.089 199.365,-114.491 190.723,-108.362 188.787,-115.089"/>
</g>
<!-- Node3 -->
<g id="node5" class="node"><title>Node3</title>
<a xlink:href="class_a_r_drone.html#af59edbd15b6110cd78272fbcef16769d" target="_top" xlink:title="Setter sécurisé de la valeur de l&#39;inclinaison avant arrière.">
<polygon fill="white" stroke="black" points="168.5,-76.5 168.5,-95.5 303.5,-95.5 303.5,-76.5 168.5,-76.5"/>
<text text-anchor="middle" x="236" y="-83.5" font-family="Helvetica,sans-Serif" font-size="10.00">ARDrone::setTiltFrontBack</text>
</a>
</g>
<!-- Node1&#45;&gt;Node3 -->
<g id="edge4" class="edge"><title>Node1&#45;&gt;Node3</title>
<path fill="none" stroke="midnightblue" d="M131.953,-74.3459C140.514,-75.3141 149.354,-76.3139 158.091,-77.3019"/>
<polygon fill="midnightblue" stroke="midnightblue" points="157.947,-80.8079 168.277,-78.4539 158.733,-73.8522 157.947,-80.8079"/>
</g>
<!-- Node4 -->
<g id="node7" class="node"><title>Node4</title>
<a xlink:href="class_a_r_drone.html#aa9dfdd35fc9ed963c581d3bc1c127d12" target="_top" xlink:title="Setter sécurisé de la valeur de l&#39;inclinaison gauche droite.">
<polygon fill="white" stroke="black" points="171,-38.5 171,-57.5 301,-57.5 301,-38.5 171,-38.5"/>
<text text-anchor="middle" x="236" y="-45.5" font-family="Helvetica,sans-Serif" font-size="10.00">ARDrone::setTiltLeftRight</text>
</a>
</g>
<!-- Node1&#45;&gt;Node4 -->
<g id="edge6" class="edge"><title>Node1&#45;&gt;Node4</title>
<path fill="none" stroke="midnightblue" d="M131.953,-59.6541C141.41,-58.5846 151.207,-57.4766 160.83,-56.3883"/>
<polygon fill="midnightblue" stroke="midnightblue" points="161.23,-59.8655 170.773,-55.2638 160.443,-52.9098 161.23,-59.8655"/>
</g>
<!-- Node5 -->
<g id="node9" class="node"><title>Node5</title>
<a xlink:href="class_a_r_drone.html#a89b56f0ae2e6f9e9103f05fd4c4b8e78" target="_top" xlink:title="Setter sécurisé de la valeur de la vitesse angulaire.">
<polygon fill="white" stroke="black" points="168,-0.5 168,-19.5 304,-19.5 304,-0.5 168,-0.5"/>
<text text-anchor="middle" x="236" y="-7.5" font-family="Helvetica,sans-Serif" font-size="10.00">ARDrone::setTurnLeftRight</text>
</a>
</g>
<!-- Node1&#45;&gt;Node5 -->
<g id="edge8" class="edge"><title>Node1&#45;&gt;Node5</title>
<path fill="none" stroke="midnightblue" d="M104.624,-51.9901C123.511,-44.6739 146.824,-35.9726 168,-29 174.948,-26.7123 182.354,-24.4447 189.613,-22.3155"/>
<polygon fill="midnightblue" stroke="midnightblue" points="190.723,-25.6382 199.365,-19.5089 188.787,-18.9113 190.723,-25.6382"/>
</g>
</g>
</svg>
