<?xml version="1.0" encoding="UTF-8" standalone="no"?>
<!DOCTYPE svg PUBLIC "-//W3C//DTD SVG 1.1//EN"
 "http://www.w3.org/Graphics/SVG/1.1/DTD/svg11.dtd">
<!-- Generated by graphviz version 2.28.0 (20121221.0049)
 -->
<!-- Title: ARDrone::takeoff Pages: 1 -->
<svg width="284pt" height="77pt"
 viewBox="0.00 0.00 284.00 77.00" xmlns="http://www.w3.org/2000/svg" xmlns:xlink="http://www.w3.org/1999/xlink">
<g id="graph1" class="graph" transform="scale(1 1) rotate(0) translate(4 73)">
<title>ARDrone::takeoff</title>
<polygon fill="white" stroke="white" points="-4,5 -4,-73 281,-73 281,5 -4,5"/>
<!-- Node1 -->
<g id="node1" class="node"><title>Node1</title>
<polygon fill="#bfbfbf" stroke="black" points="0.5,-22.5 0.5,-41.5 93.5,-41.5 93.5,-22.5 0.5,-22.5"/>
<text text-anchor="middle" x="47" y="-29.5" font-family="Helvetica,sans-Serif" font-size="10.00">ARDrone::takeoff</text>
</g>
<!-- Node2 -->
<g id="node3" class="node"><title>Node2</title>
<a xlink:href="class_main_window.html#acd4f5cba500696e45b76a309361f905e" target="_top" xlink:title="MainWindow::on_btnTakeOff\lLand_clicked">
<polygon fill="white" stroke="black" points="131.5,-39 131.5,-69 274.5,-69 274.5,-39 131.5,-39"/>
<text text-anchor="start" x="139.5" y="-57" font-family="Helvetica,sans-Serif" font-size="10.00">MainWindow::on_btnTakeOff</text>
<text text-anchor="middle" x="203" y="-46" font-family="Helvetica,sans-Serif" font-size="10.00">Land_clicked</text>
</a>
</g>
<!-- Node1&#45;&gt;Node2 -->
<g id="edge2" class="edge"><title>Node1&#45;&gt;Node2</title>
<path fill="none" stroke="midnightblue" d="M103.696,-39.9566C112.655,-41.2364 122.031,-42.5758 131.285,-43.8978"/>
<polygon fill="midnightblue" stroke="midnightblue" points="104.183,-36.4906 93.7881,-38.5412 103.193,-43.4203 104.183,-36.4906"/>
</g>
<!-- Node3 -->
<g id="node5" class="node"><title>Node3</title>
<a xlink:href="class_main_window.html#a7f44c594db41845d68cd08a64f5b6601" target="_top" xlink:title="MainWindow::keyPressEvent">
<polygon fill="white" stroke="black" points="130,-0.5 130,-19.5 276,-19.5 276,-0.5 130,-0.5"/>
<text text-anchor="middle" x="203" y="-7.5" font-family="Helvetica,sans-Serif" font-size="10.00">MainWindow::keyPressEvent</text>
</a>
</g>
<!-- Node1&#45;&gt;Node3 -->
<g id="edge4" class="edge"><title>Node1&#45;&gt;Node3</title>
<path fill="none" stroke="midnightblue" d="M103.803,-24.0282C114.027,-22.5675 124.793,-21.0296 135.297,-19.5289"/>
<polygon fill="midnightblue" stroke="midnightblue" points="103.193,-20.5797 93.7881,-25.4588 104.183,-27.5094 103.193,-20.5797"/>
</g>
</g>
</svg>
