<?xml version="1.0" encoding="UTF-8" standalone="no"?>
<!DOCTYPE svg PUBLIC "-//W3C//DTD SVG 1.1//EN"
 "http://www.w3.org/Graphics/SVG/1.1/DTD/svg11.dtd">
<!-- Generated by graphviz version 2.28.0 (20121221.0049)
 -->
<!-- Title: ARDrone::sendAT Pages: 1 -->
<svg width="462pt" height="253pt"
 viewBox="0.00 0.00 462.00 253.00" xmlns="http://www.w3.org/2000/svg" xmlns:xlink="http://www.w3.org/1999/xlink">
<g id="graph1" class="graph" transform="scale(1 1) rotate(0) translate(4 249)">
<title>ARDrone::sendAT</title>
<polygon fill="white" stroke="white" points="-4,5 -4,-249 459,-249 459,5 -4,5"/>
<!-- Node1 -->
<g id="node1" class="node"><title>Node1</title>
<polygon fill="#bfbfbf" stroke="black" points="0.5,-113.5 0.5,-132.5 97.5,-132.5 97.5,-113.5 0.5,-113.5"/>
<text text-anchor="middle" x="49" y="-120.5" font-family="Helvetica,sans-Serif" font-size="10.00">ARDrone::sendAT</text>
</g>
<!-- Node2 -->
<g id="node3" class="node"><title>Node2</title>
<a xlink:href="class_a_r_drone.html#a6eeff4af7dcbb8088930f6cdca0e453c" target="_top" xlink:title="Initialise le drone (à utiliser avant de lancer la navigation)">
<polygon fill="white" stroke="black" points="144,-215.5 144,-234.5 246,-234.5 246,-215.5 144,-215.5"/>
<text text-anchor="middle" x="195" y="-222.5" font-family="Helvetica,sans-Serif" font-size="10.00">ARDrone::initDrone</text>
</a>
</g>
<!-- Node1&#45;&gt;Node2 -->
<g id="edge2" class="edge"><title>Node1&#45;&gt;Node2</title>
<path fill="none" stroke="midnightblue" d="M64.6746,-140.302C80.3303,-157.851 106.603,-184.808 134,-202 142.693,-207.455 152.888,-211.96 162.381,-215.493"/>
<polygon fill="midnightblue" stroke="midnightblue" points="67.098,-137.756 57.8836,-132.526 61.8257,-142.361 67.098,-137.756"/>
</g>
<!-- Node4 -->
<g id="node7" class="node"><title>Node4</title>
<a xlink:href="class_a_r_drone.html#ae1a1249d580e6fcd235ac0e171987948" target="_top" xlink:title="Initialise le fux de données.">
<polygon fill="white" stroke="black" points="137.5,-173.5 137.5,-192.5 252.5,-192.5 252.5,-173.5 137.5,-173.5"/>
<text text-anchor="middle" x="195" y="-180.5" font-family="Helvetica,sans-Serif" font-size="10.00">ARDrone::initNavData</text>
</a>
</g>
<!-- Node1&#45;&gt;Node4 -->
<g id="edge6" class="edge"><title>Node1&#45;&gt;Node4</title>
<path fill="none" stroke="midnightblue" d="M79.5517,-137.009C95.5459,-144.428 115.719,-153.525 134,-161 144.578,-165.325 156.356,-169.731 166.657,-173.453"/>
<polygon fill="midnightblue" stroke="midnightblue" points="80.729,-133.696 70.1874,-132.636 77.7671,-140.038 80.729,-133.696"/>
</g>
<!-- Node6 -->
<g id="node11" class="node"><title>Node6</title>
<a xlink:href="class_a_r_drone.html#a990dcded2f78b03960887e6c2bf3e717" target="_top" xlink:title="Demande de décollage.">
<polygon fill="white" stroke="black" points="148.5,-132.5 148.5,-151.5 241.5,-151.5 241.5,-132.5 148.5,-132.5"/>
<text text-anchor="middle" x="195" y="-139.5" font-family="Helvetica,sans-Serif" font-size="10.00">ARDrone::takeoff</text>
</a>
</g>
<!-- Node1&#45;&gt;Node6 -->
<g id="edge10" class="edge"><title>Node1&#45;&gt;Node6</title>
<path fill="none" stroke="midnightblue" d="M107.738,-130.618C121.283,-132.405 135.53,-134.285 148.456,-135.991"/>
<polygon fill="midnightblue" stroke="midnightblue" points="107.922,-127.112 97.5501,-129.274 107.006,-134.052 107.922,-127.112"/>
</g>
<!-- Node9 -->
<g id="node17" class="node"><title>Node9</title>
<a xlink:href="class_a_r_drone.html#aa978fd9336466eb938ac12b774adc8d6" target="_top" xlink:title="Demande d&#39;atterrissage.">
<polygon fill="white" stroke="black" points="154.5,-94.5 154.5,-113.5 235.5,-113.5 235.5,-94.5 154.5,-94.5"/>
<text text-anchor="middle" x="195" y="-101.5" font-family="Helvetica,sans-Serif" font-size="10.00">ARDrone::land</text>
</a>
</g>
<!-- Node1&#45;&gt;Node9 -->
<g id="edge16" class="edge"><title>Node1&#45;&gt;Node9</title>
<path fill="none" stroke="midnightblue" d="M107.642,-115.394C123.256,-113.334 139.808,-111.15 154.199,-109.252"/>
<polygon fill="midnightblue" stroke="midnightblue" points="107.006,-111.948 97.5501,-116.726 107.922,-118.888 107.006,-111.948"/>
</g>
<!-- Node10 -->
<g id="node21" class="node"><title>Node10</title>
<a xlink:href="class_a_r_drone.html#ae230bca8378a15312d53936b988b30be" target="_top" xlink:title="Demande d&#39;arrêt d&#39;urgence.">
<polygon fill="white" stroke="black" points="156.5,-56.5 156.5,-75.5 233.5,-75.5 233.5,-56.5 156.5,-56.5"/>
<text text-anchor="middle" x="195" y="-63.5" font-family="Helvetica,sans-Serif" font-size="10.00">ARDrone::aru</text>
</a>
</g>
<!-- Node1&#45;&gt;Node10 -->
<g id="edge22" class="edge"><title>Node1&#45;&gt;Node10</title>
<path fill="none" stroke="midnightblue" d="M78.7805,-108.962C94.8353,-101.39 115.309,-92.1585 134,-85 142.775,-81.6392 152.426,-78.3922 161.373,-75.5619"/>
<polygon fill="midnightblue" stroke="midnightblue" points="76.9313,-105.966 69.4105,-113.429 79.9434,-112.285 76.9313,-105.966"/>
</g>
<!-- Node12 -->
<g id="node26" class="node"><title>Node12</title>
<a xlink:href="class_a_r_drone.html#a8d86f42ad281754122fa0fb07e009cfd" target="_top" xlink:title="Pilotage du drone en vol.">
<polygon fill="white" stroke="black" points="134.5,-9.5 134.5,-28.5 255.5,-28.5 255.5,-9.5 134.5,-9.5"/>
<text text-anchor="middle" x="195" y="-16.5" font-family="Helvetica,sans-Serif" font-size="10.00">ARDrone::volCommand</text>
</a>
</g>
<!-- Node1&#45;&gt;Node12 -->
<g id="edge28" class="edge"><title>Node1&#45;&gt;Node12</title>
<path fill="none" stroke="midnightblue" d="M66.0853,-105.709C82.1411,-89.1468 108.091,-64.1988 134,-47 144.918,-39.7525 158.01,-33.4073 169.175,-28.598"/>
<polygon fill="midnightblue" stroke="midnightblue" points="63.4099,-103.443 59.0417,-113.096 68.4759,-108.274 63.4099,-103.443"/>
</g>
<!-- Node3 -->
<g id="node5" class="node"><title>Node3</title>
<a xlink:href="class_main_window.html#a401a1ce9f9e1997a045bf6a935c9065e" target="_top" xlink:title="MainWindow::on_btnConnect\l_clicked">
<polygon fill="white" stroke="black" points="300.5,-215 300.5,-245 445.5,-245 445.5,-215 300.5,-215"/>
<text text-anchor="start" x="308.5" y="-233" font-family="Helvetica,sans-Serif" font-size="10.00">MainWindow::on_btnConnect</text>
<text text-anchor="middle" x="373" y="-222" font-family="Helvetica,sans-Serif" font-size="10.00">_clicked</text>
</a>
</g>
<!-- Node2&#45;&gt;Node3 -->
<g id="edge4" class="edge"><title>Node2&#45;&gt;Node3</title>
<path fill="none" stroke="midnightblue" d="M256.487,-226.718C270.58,-227.119 285.719,-227.549 300.246,-227.962"/>
<polygon fill="midnightblue" stroke="midnightblue" points="256.53,-223.218 246.435,-226.433 256.331,-230.215 256.53,-223.218"/>
</g>
<!-- Node5 -->
<g id="node9" class="node"><title>Node5</title>
<a xlink:href="classnavdata_window.html#af8e5f19a89f5e65c1a9674364a216f67" target="_top" xlink:title="navdataWindow::navdataWindow">
<polygon fill="white" stroke="black" points="292,-176.5 292,-195.5 454,-195.5 454,-176.5 292,-176.5"/>
<text text-anchor="middle" x="373" y="-183.5" font-family="Helvetica,sans-Serif" font-size="10.00">navdataWindow::navdataWindow</text>
</a>
</g>
<!-- Node4&#45;&gt;Node5 -->
<g id="edge8" class="edge"><title>Node4&#45;&gt;Node5</title>
<path fill="none" stroke="midnightblue" d="M262.768,-184.138C272.233,-184.299 282.046,-184.467 291.734,-184.632"/>
<polygon fill="midnightblue" stroke="midnightblue" points="262.715,-180.637 252.656,-183.966 262.595,-187.636 262.715,-180.637"/>
</g>
<!-- Node7 -->
<g id="node13" class="node"><title>Node7</title>
<a xlink:href="class_main_window.html#acd4f5cba500696e45b76a309361f905e" target="_top" xlink:title="MainWindow::on_btnTakeOff\lLand_clicked">
<polygon fill="white" stroke="black" points="301.5,-127 301.5,-157 444.5,-157 444.5,-127 301.5,-127"/>
<text text-anchor="start" x="309.5" y="-145" font-family="Helvetica,sans-Serif" font-size="10.00">MainWindow::on_btnTakeOff</text>
<text text-anchor="middle" x="373" y="-134" font-family="Helvetica,sans-Serif" font-size="10.00">Land_clicked</text>
</a>
</g>
<!-- Node6&#45;&gt;Node7 -->
<g id="edge12" class="edge"><title>Node6&#45;&gt;Node7</title>
<path fill="none" stroke="midnightblue" d="M251.834,-142C267.513,-142 284.773,-142 301.201,-142"/>
<polygon fill="midnightblue" stroke="midnightblue" points="251.783,-138.5 241.782,-142 251.782,-145.5 251.783,-138.5"/>
</g>
<!-- Node8 -->
<g id="node15" class="node"><title>Node8</title>
<a xlink:href="class_main_window.html#a7f44c594db41845d68cd08a64f5b6601" target="_top" xlink:title="MainWindow::keyPressEvent">
<polygon fill="white" stroke="black" points="300,-88.5 300,-107.5 446,-107.5 446,-88.5 300,-88.5"/>
<text text-anchor="middle" x="373" y="-95.5" font-family="Helvetica,sans-Serif" font-size="10.00">MainWindow::keyPressEvent</text>
</a>
</g>
<!-- Node6&#45;&gt;Node8 -->
<g id="edge14" class="edge"><title>Node6&#45;&gt;Node8</title>
<path fill="none" stroke="midnightblue" d="M242.036,-129.796C257.855,-125.66 275.686,-121.061 292,-117 304.606,-113.862 318.358,-110.554 330.849,-107.594"/>
<polygon fill="midnightblue" stroke="midnightblue" points="240.752,-126.515 231.967,-132.437 242.528,-133.286 240.752,-126.515"/>
</g>
<!-- Node9&#45;&gt;Node7 -->
<g id="edge18" class="edge"><title>Node9&#45;&gt;Node7</title>
<path fill="none" stroke="midnightblue" d="M245.967,-114.788C263.54,-118.583 283.619,-122.918 302.507,-126.996"/>
<polygon fill="midnightblue" stroke="midnightblue" points="246.451,-111.312 235.937,-112.623 244.973,-118.154 246.451,-111.312"/>
</g>
<!-- Node9&#45;&gt;Node8 -->
<g id="edge20" class="edge"><title>Node9&#45;&gt;Node8</title>
<path fill="none" stroke="midnightblue" d="M246.012,-102.295C262.708,-101.726 281.661,-101.08 299.704,-100.465"/>
<polygon fill="midnightblue" stroke="midnightblue" points="245.812,-98.7997 235.937,-102.639 246.051,-105.796 245.812,-98.7997"/>
</g>
<!-- Node10&#45;&gt;Node8 -->
<g id="edge26" class="edge"><title>Node10&#45;&gt;Node8</title>
<path fill="none" stroke="midnightblue" d="M243.821,-74.6947C267.276,-78.9593 295.58,-84.1055 319.619,-88.4761"/>
<polygon fill="midnightblue" stroke="midnightblue" points="244.221,-71.2102 233.756,-72.8648 242.969,-78.0973 244.221,-71.2102"/>
</g>
<!-- Node11 -->
<g id="node23" class="node"><title>Node11</title>
<a xlink:href="class_main_window.html#aabdcb1f13a0dcf682e6dcf4c9b3779b8" target="_top" xlink:title="MainWindow::on_btnARU\l_clicked">
<polygon fill="white" stroke="black" points="308,-39 308,-69 438,-69 438,-39 308,-39"/>
<text text-anchor="start" x="316" y="-57" font-family="Helvetica,sans-Serif" font-size="10.00">MainWindow::on_btnARU</text>
<text text-anchor="middle" x="373" y="-46" font-family="Helvetica,sans-Serif" font-size="10.00">_clicked</text>
</a>
</g>
<!-- Node10&#45;&gt;Node11 -->
<g id="edge24" class="edge"><title>Node10&#45;&gt;Node11</title>
<path fill="none" stroke="midnightblue" d="M243.755,-62.744C263.533,-61.3955 286.767,-59.8113 307.987,-58.3645"/>
<polygon fill="midnightblue" stroke="midnightblue" points="243.495,-59.2535 233.756,-63.4257 243.971,-66.2373 243.495,-59.2535"/>
</g>
<!-- Node13 -->
<g id="node28" class="node"><title>Node13</title>
<a xlink:href="class_a_r_drone.html#ac961be4818d8d0b14d3b4d958590211c" target="_top" xlink:title="ARDrone::run">
<polygon fill="white" stroke="black" points="334.5,-0.5 334.5,-19.5 411.5,-19.5 411.5,-0.5 334.5,-0.5"/>
<text text-anchor="middle" x="373" y="-7.5" font-family="Helvetica,sans-Serif" font-size="10.00">ARDrone::run</text>
</a>
</g>
<!-- Node12&#45;&gt;Node13 -->
<g id="edge30" class="edge"><title>Node12&#45;&gt;Node13</title>
<path fill="none" stroke="midnightblue" d="M265.814,-15.43C289.168,-14.2357 314.31,-12.9501 334.264,-11.9297"/>
<polygon fill="midnightblue" stroke="midnightblue" points="265.394,-11.9468 255.586,-15.953 265.751,-18.9377 265.394,-11.9468"/>
</g>
</g>
</svg>
