<?xml version="1.0" encoding="UTF-8" standalone="no"?>
<!DOCTYPE svg PUBLIC "-//W3C//DTD SVG 1.1//EN"
 "http://www.w3.org/Graphics/SVG/1.1/DTD/svg11.dtd">
<!-- Generated by graphviz version 2.28.0 (20121221.0049)
 -->
<!-- Title: MainWindow::on_btnARU_clicked Pages: 1 -->
<svg width="386pt" height="38pt"
 viewBox="0.00 0.00 386.00 38.00" xmlns="http://www.w3.org/2000/svg" xmlns:xlink="http://www.w3.org/1999/xlink">
<g id="graph1" class="graph" transform="scale(1 1) rotate(0) translate(4 34)">
<title>MainWindow::on_btnARU_clicked</title>
<polygon fill="white" stroke="white" points="-4,5 -4,-34 383,-34 383,5 -4,5"/>
<!-- Node1 -->
<g id="node1" class="node"><title>Node1</title>
<polygon fill="#bfbfbf" stroke="black" points="0,-0 0,-30 130,-30 130,-0 0,-0"/>
<text text-anchor="start" x="8" y="-18" font-family="Helvetica,sans-Serif" font-size="10.00">MainWindow::on_btnARU</text>
<text text-anchor="middle" x="65" y="-7" font-family="Helvetica,sans-Serif" font-size="10.00">_clicked</text>
</g>
<!-- Node2 -->
<g id="node3" class="node"><title>Node2</title>
<a xlink:href="class_a_r_drone.html#ae230bca8378a15312d53936b988b30be" target="_top" xlink:title="Demande d&#39;arrêt d&#39;urgence.">
<polygon fill="white" stroke="black" points="166.5,-5.5 166.5,-24.5 243.5,-24.5 243.5,-5.5 166.5,-5.5"/>
<text text-anchor="middle" x="205" y="-12.5" font-family="Helvetica,sans-Serif" font-size="10.00">ARDrone::aru</text>
</a>
</g>
<!-- Node1&#45;&gt;Node2 -->
<g id="edge2" class="edge"><title>Node1&#45;&gt;Node2</title>
<path fill="none" stroke="midnightblue" d="M130.152,-15C138.959,-15 147.872,-15 156.313,-15"/>
<polygon fill="midnightblue" stroke="midnightblue" points="156.337,-18.5001 166.336,-15 156.336,-11.5001 156.337,-18.5001"/>
</g>
<!-- Node3 -->
<g id="node5" class="node"><title>Node3</title>
<a xlink:href="class_a_r_drone.html#a534090497b9f3a959218e2edfe8cda25" target="_top" xlink:title="Envoyer une commande AT.">
<polygon fill="white" stroke="black" points="280.5,-5.5 280.5,-24.5 377.5,-24.5 377.5,-5.5 280.5,-5.5"/>
<text text-anchor="middle" x="329" y="-12.5" font-family="Helvetica,sans-Serif" font-size="10.00">ARDrone::sendAT</text>
</a>
</g>
<!-- Node2&#45;&gt;Node3 -->
<g id="edge4" class="edge"><title>Node2&#45;&gt;Node3</title>
<path fill="none" stroke="midnightblue" d="M243.6,-15C252.044,-15 261.193,-15 270.247,-15"/>
<polygon fill="midnightblue" stroke="midnightblue" points="270.385,-18.5001 280.385,-15 270.385,-11.5001 270.385,-18.5001"/>
</g>
</g>
</svg>
