<?xml version="1.0" encoding="UTF-8" standalone="no"?>
<!DOCTYPE svg PUBLIC "-//W3C//DTD SVG 1.1//EN"
 "http://www.w3.org/Graphics/SVG/1.1/DTD/svg11.dtd">
<!-- Generated by graphviz version 2.28.0 (20121221.0049)
 -->
<!-- Title: ARDrone::setGoUpDown Pages: 1 -->
<svg width="510pt" height="312pt"
 viewBox="0.00 0.00 510.00 312.00" xmlns="http://www.w3.org/2000/svg" xmlns:xlink="http://www.w3.org/1999/xlink">
<g id="graph1" class="graph" transform="scale(1 1) rotate(0) translate(4 308)">
<title>ARDrone::setGoUpDown</title>
<polygon fill="white" stroke="white" points="-4,5 -4,-308 507,-308 507,5 -4,5"/>
<!-- Node1 -->
<g id="node1" class="node"><title>Node1</title>
<polygon fill="#bfbfbf" stroke="black" points="0,-142.5 0,-161.5 128,-161.5 128,-142.5 0,-142.5"/>
<text text-anchor="middle" x="64" y="-149.5" font-family="Helvetica,sans-Serif" font-size="10.00">ARDrone::setGoUpDown</text>
</g>
<!-- Node2 -->
<g id="node3" class="node"><title>Node2</title>
<a xlink:href="class_a_r_drone.html#a990dcded2f78b03960887e6c2bf3e717" target="_top" xlink:title="Demande de décollage.">
<polygon fill="white" stroke="black" points="195.5,-273.5 195.5,-292.5 288.5,-292.5 288.5,-273.5 195.5,-273.5"/>
<text text-anchor="middle" x="242" y="-280.5" font-family="Helvetica,sans-Serif" font-size="10.00">ARDrone::takeoff</text>
</a>
</g>
<!-- Node1&#45;&gt;Node2 -->
<g id="edge2" class="edge"><title>Node1&#45;&gt;Node2</title>
<path fill="none" stroke="midnightblue" d="M77.0189,-169.98C93.7866,-193.715 126.406,-235.263 164,-259 173.827,-265.205 185.376,-269.909 196.497,-273.433"/>
<polygon fill="midnightblue" stroke="midnightblue" points="79.7646,-167.796 71.2049,-161.553 74.0029,-171.771 79.7646,-167.796"/>
</g>
<!-- Node4 -->
<g id="node7" class="node"><title>Node4</title>
<a xlink:href="class_main_window.html#a7f44c594db41845d68cd08a64f5b6601" target="_top" xlink:title="MainWindow::keyPressEvent">
<polygon fill="white" stroke="black" points="356,-235.5 356,-254.5 502,-254.5 502,-235.5 356,-235.5"/>
<text text-anchor="middle" x="429" y="-242.5" font-family="Helvetica,sans-Serif" font-size="10.00">MainWindow::keyPressEvent</text>
</a>
</g>
<!-- Node1&#45;&gt;Node4 -->
<g id="edge16" class="edge"><title>Node1&#45;&gt;Node4</title>
<path fill="none" stroke="midnightblue" d="M81.773,-169.096C100.143,-186.593 131.362,-212.883 164,-225 225.943,-247.997 301.563,-251.474 355.968,-250.101"/>
<polygon fill="midnightblue" stroke="midnightblue" points="83.8721,-166.253 74.2779,-161.758 78.9751,-171.255 83.8721,-166.253"/>
</g>
<!-- Node5 -->
<g id="node9" class="node"><title>Node5</title>
<a xlink:href="class_main_window.html#a5220b7d3beb121b3ce2609847d2cb21b" target="_top" xlink:title="MainWindow::on_btnUp\l_clicked">
<polygon fill="white" stroke="black" points="181.5,-186 181.5,-216 302.5,-216 302.5,-186 181.5,-186"/>
<text text-anchor="start" x="189.5" y="-204" font-family="Helvetica,sans-Serif" font-size="10.00">MainWindow::on_btnUp</text>
<text text-anchor="middle" x="242" y="-193" font-family="Helvetica,sans-Serif" font-size="10.00">_clicked</text>
</a>
</g>
<!-- Node1&#45;&gt;Node5 -->
<g id="edge8" class="edge"><title>Node1&#45;&gt;Node5</title>
<path fill="none" stroke="midnightblue" d="M109.099,-164.278C132.719,-170.854 162.013,-179.009 186.99,-185.963"/>
<polygon fill="midnightblue" stroke="midnightblue" points="109.925,-160.874 99.3524,-161.564 108.047,-167.618 109.925,-160.874"/>
</g>
<!-- Node6 -->
<g id="node11" class="node"><title>Node6</title>
<a xlink:href="class_main_window.html#ad0b15e75d6ace91df066500b048c89ca" target="_top" xlink:title="MainWindow::on_btnStat\l_clicked">
<polygon fill="white" stroke="black" points="179,-137 179,-167 305,-167 305,-137 179,-137"/>
<text text-anchor="start" x="187" y="-155" font-family="Helvetica,sans-Serif" font-size="10.00">MainWindow::on_btnStat</text>
<text text-anchor="middle" x="242" y="-144" font-family="Helvetica,sans-Serif" font-size="10.00">_clicked</text>
</a>
</g>
<!-- Node1&#45;&gt;Node6 -->
<g id="edge10" class="edge"><title>Node1&#45;&gt;Node6</title>
<path fill="none" stroke="midnightblue" d="M138.278,-152C151.813,-152 165.826,-152 178.988,-152"/>
<polygon fill="midnightblue" stroke="midnightblue" points="138.043,-148.5 128.043,-152 138.043,-155.5 138.043,-148.5"/>
</g>
<!-- Node7 -->
<g id="node13" class="node"><title>Node7</title>
<a xlink:href="class_main_window.html#a89998d2db841a6c1c4d9d6dc43484cf7" target="_top" xlink:title="MainWindow::on_btnStat1\l_clicked">
<polygon fill="white" stroke="black" points="176.5,-88 176.5,-118 307.5,-118 307.5,-88 176.5,-88"/>
<text text-anchor="start" x="184.5" y="-106" font-family="Helvetica,sans-Serif" font-size="10.00">MainWindow::on_btnStat1</text>
<text text-anchor="middle" x="242" y="-95" font-family="Helvetica,sans-Serif" font-size="10.00">_clicked</text>
</a>
</g>
<!-- Node1&#45;&gt;Node7 -->
<g id="edge12" class="edge"><title>Node1&#45;&gt;Node7</title>
<path fill="none" stroke="midnightblue" d="M109.099,-139.722C132.719,-133.146 162.013,-124.991 186.99,-118.037"/>
<polygon fill="midnightblue" stroke="midnightblue" points="108.047,-136.382 99.3524,-142.436 109.925,-143.126 108.047,-136.382"/>
</g>
<!-- Node8 -->
<g id="node15" class="node"><title>Node8</title>
<a xlink:href="class_main_window.html#aa8aa8ef959c9595bd766c0392743bd40" target="_top" xlink:title="MainWindow::on_btnDown\l_clicked">
<polygon fill="white" stroke="black" points="175,-39 175,-69 309,-69 309,-39 175,-39"/>
<text text-anchor="start" x="183" y="-57" font-family="Helvetica,sans-Serif" font-size="10.00">MainWindow::on_btnDown</text>
<text text-anchor="middle" x="242" y="-46" font-family="Helvetica,sans-Serif" font-size="10.00">_clicked</text>
</a>
</g>
<!-- Node1&#45;&gt;Node8 -->
<g id="edge14" class="edge"><title>Node1&#45;&gt;Node8</title>
<path fill="none" stroke="midnightblue" d="M83.0939,-135.84C102.088,-119.582 133.391,-94.7282 164,-79 171.251,-75.2743 179.168,-71.9536 187.079,-69.0455"/>
<polygon fill="midnightblue" stroke="midnightblue" points="80.7599,-133.232 75.5125,-142.436 85.3543,-138.513 80.7599,-133.232"/>
</g>
<!-- Node9 -->
<g id="node18" class="node"><title>Node9</title>
<a xlink:href="class_main_window.html#abacefb8ef74a2a9ef1e8fc2fe1c68c95" target="_top" xlink:title="MainWindow::keyReleaseEvent">
<polygon fill="white" stroke="black" points="164,-0.5 164,-19.5 320,-19.5 320,-0.5 164,-0.5"/>
<text text-anchor="middle" x="242" y="-7.5" font-family="Helvetica,sans-Serif" font-size="10.00">MainWindow::keyReleaseEvent</text>
</a>
</g>
<!-- Node1&#45;&gt;Node9 -->
<g id="edge18" class="edge"><title>Node1&#45;&gt;Node9</title>
<path fill="none" stroke="midnightblue" d="M74.8729,-133.508C90.2534,-106.525 122.524,-56.6792 164,-30 170.737,-25.6663 178.374,-22.2697 186.157,-19.608"/>
<polygon fill="midnightblue" stroke="midnightblue" points="71.7702,-131.886 69.9848,-142.33 77.8931,-135.279 71.7702,-131.886"/>
</g>
<!-- Node3 -->
<g id="node5" class="node"><title>Node3</title>
<a xlink:href="class_main_window.html#acd4f5cba500696e45b76a309361f905e" target="_top" xlink:title="MainWindow::on_btnTakeOff\lLand_clicked">
<polygon fill="white" stroke="black" points="357.5,-274 357.5,-304 500.5,-304 500.5,-274 357.5,-274"/>
<text text-anchor="start" x="365.5" y="-292" font-family="Helvetica,sans-Serif" font-size="10.00">MainWindow::on_btnTakeOff</text>
<text text-anchor="middle" x="429" y="-281" font-family="Helvetica,sans-Serif" font-size="10.00">Land_clicked</text>
</a>
</g>
<!-- Node2&#45;&gt;Node3 -->
<g id="edge4" class="edge"><title>Node2&#45;&gt;Node3</title>
<path fill="none" stroke="midnightblue" d="M298.952,-284.815C317.299,-285.41 337.932,-286.079 357.228,-286.705"/>
<polygon fill="midnightblue" stroke="midnightblue" points="298.839,-281.309 288.73,-284.483 298.612,-288.306 298.839,-281.309"/>
</g>
<!-- Node2&#45;&gt;Node4 -->
<g id="edge6" class="edge"><title>Node2&#45;&gt;Node4</title>
<path fill="none" stroke="midnightblue" d="M298.611,-271.577C325.068,-266.143 356.339,-259.72 381.511,-254.549"/>
<polygon fill="midnightblue" stroke="midnightblue" points="297.822,-268.166 288.73,-273.607 299.23,-275.023 297.822,-268.166"/>
</g>
</g>
</svg>
