<?xml version="1.0" encoding="UTF-8" standalone="no"?>
<!DOCTYPE svg PUBLIC "-//W3C//DTD SVG 1.1//EN"
 "http://www.w3.org/Graphics/SVG/1.1/DTD/svg11.dtd">
<!-- Generated by graphviz version 2.28.0 (20121221.0049)
 -->
<!-- Title: ARDrone::setTiltFrontBack Pages: 1 -->
<svg width="518pt" height="312pt"
 viewBox="0.00 0.00 518.00 312.00" xmlns="http://www.w3.org/2000/svg" xmlns:xlink="http://www.w3.org/1999/xlink">
<g id="graph1" class="graph" transform="scale(1 1) rotate(0) translate(4 308)">
<title>ARDrone::setTiltFrontBack</title>
<polygon fill="white" stroke="white" points="-4,5 -4,-308 515,-308 515,5 -4,5"/>
<!-- Node1 -->
<g id="node1" class="node"><title>Node1</title>
<polygon fill="#bfbfbf" stroke="black" points="0.5,-142.5 0.5,-161.5 135.5,-161.5 135.5,-142.5 0.5,-142.5"/>
<text text-anchor="middle" x="68" y="-149.5" font-family="Helvetica,sans-Serif" font-size="10.00">ARDrone::setTiltFrontBack</text>
</g>
<!-- Node2 -->
<g id="node3" class="node"><title>Node2</title>
<a xlink:href="class_a_r_drone.html#a990dcded2f78b03960887e6c2bf3e717" target="_top" xlink:title="Demande de décollage.">
<polygon fill="white" stroke="black" points="203.5,-273.5 203.5,-292.5 296.5,-292.5 296.5,-273.5 203.5,-273.5"/>
<text text-anchor="middle" x="250" y="-280.5" font-family="Helvetica,sans-Serif" font-size="10.00">ARDrone::takeoff</text>
</a>
</g>
<!-- Node1&#45;&gt;Node2 -->
<g id="edge2" class="edge"><title>Node1&#45;&gt;Node2</title>
<path fill="none" stroke="midnightblue" d="M81.4408,-169.646C99.0075,-193.305 133.29,-235.091 172,-259 182.007,-265.181 193.737,-269.889 204.982,-273.427"/>
<polygon fill="midnightblue" stroke="midnightblue" points="84.2617,-167.574 75.5522,-161.541 78.5986,-171.689 84.2617,-167.574"/>
</g>
<!-- Node4 -->
<g id="node7" class="node"><title>Node4</title>
<a xlink:href="class_main_window.html#a7f44c594db41845d68cd08a64f5b6601" target="_top" xlink:title="MainWindow::keyPressEvent">
<polygon fill="white" stroke="black" points="364,-235.5 364,-254.5 510,-254.5 510,-235.5 364,-235.5"/>
<text text-anchor="middle" x="437" y="-242.5" font-family="Helvetica,sans-Serif" font-size="10.00">MainWindow::keyPressEvent</text>
</a>
</g>
<!-- Node1&#45;&gt;Node4 -->
<g id="edge16" class="edge"><title>Node1&#45;&gt;Node4</title>
<path fill="none" stroke="midnightblue" d="M86.0701,-168.624C105.225,-186.115 138.083,-212.769 172,-225 234.048,-247.375 309.487,-250.95 363.808,-249.771"/>
<polygon fill="midnightblue" stroke="midnightblue" points="88.4284,-166.037 78.7365,-161.757 83.644,-171.147 88.4284,-166.037"/>
</g>
<!-- Node5 -->
<g id="node9" class="node"><title>Node5</title>
<a xlink:href="class_main_window.html#ad0b15e75d6ace91df066500b048c89ca" target="_top" xlink:title="MainWindow::on_btnStat\l_clicked">
<polygon fill="white" stroke="black" points="187,-186 187,-216 313,-216 313,-186 187,-186"/>
<text text-anchor="start" x="195" y="-204" font-family="Helvetica,sans-Serif" font-size="10.00">MainWindow::on_btnStat</text>
<text text-anchor="middle" x="250" y="-193" font-family="Helvetica,sans-Serif" font-size="10.00">_clicked</text>
</a>
</g>
<!-- Node1&#45;&gt;Node5 -->
<g id="edge8" class="edge"><title>Node1&#45;&gt;Node5</title>
<path fill="none" stroke="midnightblue" d="M114.101,-164.278C138.258,-170.854 168.218,-179.009 193.762,-185.963"/>
<polygon fill="midnightblue" stroke="midnightblue" points="114.701,-160.814 104.133,-161.564 112.863,-167.568 114.701,-160.814"/>
</g>
<!-- Node6 -->
<g id="node11" class="node"><title>Node6</title>
<a xlink:href="class_main_window.html#a89998d2db841a6c1c4d9d6dc43484cf7" target="_top" xlink:title="MainWindow::on_btnStat1\l_clicked">
<polygon fill="white" stroke="black" points="184.5,-137 184.5,-167 315.5,-167 315.5,-137 184.5,-137"/>
<text text-anchor="start" x="192.5" y="-155" font-family="Helvetica,sans-Serif" font-size="10.00">MainWindow::on_btnStat1</text>
<text text-anchor="middle" x="250" y="-144" font-family="Helvetica,sans-Serif" font-size="10.00">_clicked</text>
</a>
</g>
<!-- Node1&#45;&gt;Node6 -->
<g id="edge10" class="edge"><title>Node1&#45;&gt;Node6</title>
<path fill="none" stroke="midnightblue" d="M145.711,-152C158.549,-152 171.757,-152 184.257,-152"/>
<polygon fill="midnightblue" stroke="midnightblue" points="145.514,-148.5 135.514,-152 145.514,-155.5 145.514,-148.5"/>
</g>
<!-- Node7 -->
<g id="node13" class="node"><title>Node7</title>
<a xlink:href="class_main_window.html#a62b7de4e8df5e4cf27d484805f9a0c99" target="_top" xlink:title="MainWindow::on_btnFront\l_clicked">
<polygon fill="white" stroke="black" points="184.5,-88 184.5,-118 315.5,-118 315.5,-88 184.5,-88"/>
<text text-anchor="start" x="192.5" y="-106" font-family="Helvetica,sans-Serif" font-size="10.00">MainWindow::on_btnFront</text>
<text text-anchor="middle" x="250" y="-95" font-family="Helvetica,sans-Serif" font-size="10.00">_clicked</text>
</a>
</g>
<!-- Node1&#45;&gt;Node7 -->
<g id="edge12" class="edge"><title>Node1&#45;&gt;Node7</title>
<path fill="none" stroke="midnightblue" d="M114.101,-139.722C138.258,-133.146 168.218,-124.991 193.762,-118.037"/>
<polygon fill="midnightblue" stroke="midnightblue" points="112.863,-136.432 104.133,-142.436 114.701,-143.186 112.863,-136.432"/>
</g>
<!-- Node8 -->
<g id="node15" class="node"><title>Node8</title>
<a xlink:href="class_main_window.html#a4b13d79c427350c113c4f48410a029f0" target="_top" xlink:title="MainWindow::on_btnBack\l_clicked">
<polygon fill="white" stroke="black" points="184.5,-39 184.5,-69 315.5,-69 315.5,-39 184.5,-39"/>
<text text-anchor="start" x="192.5" y="-57" font-family="Helvetica,sans-Serif" font-size="10.00">MainWindow::on_btnBack</text>
<text text-anchor="middle" x="250" y="-46" font-family="Helvetica,sans-Serif" font-size="10.00">_clicked</text>
</a>
</g>
<!-- Node1&#45;&gt;Node8 -->
<g id="edge14" class="edge"><title>Node1&#45;&gt;Node8</title>
<path fill="none" stroke="midnightblue" d="M87.9401,-135.889C107.793,-119.67 140.433,-94.8466 172,-79 179.411,-75.2796 187.496,-71.9462 195.551,-69.019"/>
<polygon fill="midnightblue" stroke="midnightblue" points="85.4727,-133.388 80.0113,-142.467 89.9423,-138.776 85.4727,-133.388"/>
</g>
<!-- Node9 -->
<g id="node18" class="node"><title>Node9</title>
<a xlink:href="class_main_window.html#abacefb8ef74a2a9ef1e8fc2fe1c68c95" target="_top" xlink:title="MainWindow::keyReleaseEvent">
<polygon fill="white" stroke="black" points="172,-0.5 172,-19.5 328,-19.5 328,-0.5 172,-0.5"/>
<text text-anchor="middle" x="250" y="-7.5" font-family="Helvetica,sans-Serif" font-size="10.00">MainWindow::keyReleaseEvent</text>
</a>
</g>
<!-- Node1&#45;&gt;Node9 -->
<g id="edge18" class="edge"><title>Node1&#45;&gt;Node9</title>
<path fill="none" stroke="midnightblue" d="M79.4636,-133.514C95.709,-106.538 129.589,-56.701 172,-30 178.896,-25.6584 186.703,-22.2557 194.636,-19.5898"/>
<polygon fill="midnightblue" stroke="midnightblue" points="76.3315,-131.936 74.2932,-142.333 82.3702,-135.476 76.3315,-131.936"/>
</g>
<!-- Node3 -->
<g id="node5" class="node"><title>Node3</title>
<a xlink:href="class_main_window.html#acd4f5cba500696e45b76a309361f905e" target="_top" xlink:title="MainWindow::on_btnTakeOff\lLand_clicked">
<polygon fill="white" stroke="black" points="365.5,-274 365.5,-304 508.5,-304 508.5,-274 365.5,-274"/>
<text text-anchor="start" x="373.5" y="-292" font-family="Helvetica,sans-Serif" font-size="10.00">MainWindow::on_btnTakeOff</text>
<text text-anchor="middle" x="437" y="-281" font-family="Helvetica,sans-Serif" font-size="10.00">Land_clicked</text>
</a>
</g>
<!-- Node2&#45;&gt;Node3 -->
<g id="edge4" class="edge"><title>Node2&#45;&gt;Node3</title>
<path fill="none" stroke="midnightblue" d="M306.952,-284.815C325.299,-285.41 345.932,-286.079 365.228,-286.705"/>
<polygon fill="midnightblue" stroke="midnightblue" points="306.839,-281.309 296.73,-284.483 306.612,-288.306 306.839,-281.309"/>
</g>
<!-- Node2&#45;&gt;Node4 -->
<g id="edge6" class="edge"><title>Node2&#45;&gt;Node4</title>
<path fill="none" stroke="midnightblue" d="M306.611,-271.577C333.068,-266.143 364.339,-259.72 389.511,-254.549"/>
<polygon fill="midnightblue" stroke="midnightblue" points="305.822,-268.166 296.73,-273.607 307.23,-275.023 305.822,-268.166"/>
</g>
</g>
</svg>
