<?xml version="1.0" encoding="UTF-8" standalone="no"?>
<!DOCTYPE svg PUBLIC "-//W3C//DTD SVG 1.1//EN"
 "http://www.w3.org/Graphics/SVG/1.1/DTD/svg11.dtd">
<!-- Generated by graphviz version 2.28.0 (20121221.0049)
 -->
<!-- Title: ARDrone Pages: 1 -->
<svg width="588pt" height="348pt"
 viewBox="0.00 0.00 588.00 348.00" xmlns="http://www.w3.org/2000/svg" xmlns:xlink="http://www.w3.org/1999/xlink">
<g id="graph1" class="graph" transform="scale(1 1) rotate(0) translate(4 344)">
<title>ARDrone</title>
<polygon fill="white" stroke="white" points="-4,5 -4,-344 585,-344 585,5 -4,5"/>
<!-- Node1 -->
<g id="node1" class="node"><title>Node1</title>
<polygon fill="#bfbfbf" stroke="black" points="206,-1 206,-201 310,-201 310,-1 206,-1"/>
<text text-anchor="middle" x="258" y="-189" font-family="Helvetica,sans-Serif" font-size="10.00">ARDrone</text>
<polyline fill="none" stroke="black" points="206,-182 310,-182 "/>
<text text-anchor="middle" x="258" y="-170" font-family="Helvetica,sans-Serif" font-size="10.00"> </text>
<polyline fill="none" stroke="black" points="206,-163 310,-163 "/>
<text text-anchor="start" x="214" y="-151" font-family="Helvetica,sans-Serif" font-size="10.00">+ ARDrone()</text>
<text text-anchor="start" x="214" y="-140" font-family="Helvetica,sans-Serif" font-size="10.00">+ connectToDrone()</text>
<text text-anchor="start" x="214" y="-129" font-family="Helvetica,sans-Serif" font-size="10.00">+ initDrone()</text>
<text text-anchor="start" x="214" y="-118" font-family="Helvetica,sans-Serif" font-size="10.00">+ initNavData()</text>
<text text-anchor="start" x="214" y="-107" font-family="Helvetica,sans-Serif" font-size="10.00">+ takeoff()</text>
<text text-anchor="start" x="214" y="-96" font-family="Helvetica,sans-Serif" font-size="10.00">+ land()</text>
<text text-anchor="start" x="214" y="-85" font-family="Helvetica,sans-Serif" font-size="10.00">+ aru()</text>
<text text-anchor="start" x="214" y="-74" font-family="Helvetica,sans-Serif" font-size="10.00">+ volCommand()</text>
<text text-anchor="start" x="214" y="-63" font-family="Helvetica,sans-Serif" font-size="10.00">+ setGoUpDown()</text>
<text text-anchor="start" x="214" y="-52" font-family="Helvetica,sans-Serif" font-size="10.00">+ setTurnLeftRight()</text>
<text text-anchor="start" x="214" y="-41" font-family="Helvetica,sans-Serif" font-size="10.00">+ setTiltFrontBack()</text>
<text text-anchor="start" x="214" y="-30" font-family="Helvetica,sans-Serif" font-size="10.00">+ setTiltLeftRight()</text>
<text text-anchor="start" x="214" y="-19" font-family="Helvetica,sans-Serif" font-size="10.00">&#45; sendAT()</text>
<text text-anchor="start" x="214" y="-8" font-family="Helvetica,sans-Serif" font-size="10.00">&#45; run()</text>
</g>
<!-- Node2 -->
<g id="node2" class="node"><title>Node2</title>
<a xlink:href="class_q_thread.html" target="_top" xlink:title="{QThread\n||}">
<polygon fill="white" stroke="black" points="0,-282.5 0,-339.5 54,-339.5 54,-282.5 0,-282.5"/>
<text text-anchor="middle" x="27" y="-327.5" font-family="Helvetica,sans-Serif" font-size="10.00">QThread</text>
<polyline fill="none" stroke="black" points="0,-320.5 54,-320.5 "/>
<text text-anchor="middle" x="27" y="-308.5" font-family="Helvetica,sans-Serif" font-size="10.00"> </text>
<polyline fill="none" stroke="black" points="0,-301.5 54,-301.5 "/>
<text text-anchor="middle" x="27" y="-289.5" font-family="Helvetica,sans-Serif" font-size="10.00"> </text>
</a>
</g>
<!-- Node2&#45;&gt;Node1 -->
<g id="edge2" class="edge"><title>Node2&#45;&gt;Node1</title>
<path fill="none" stroke="midnightblue" d="M54.2903,-274.116C68.0754,-256.956 85.5496,-236.59 103,-220 134.988,-189.591 174.641,-159.521 205.833,-137.347"/>
<polygon fill="none" stroke="midnightblue" points="51.3089,-272.243 47.8357,-282.252 56.7927,-276.593 51.3089,-272.243"/>
</g>
<!-- Node3 -->
<g id="node4" class="node"><title>Node3</title>
<polygon fill="white" stroke="#bfbfbf" points="72,-282.5 72,-339.5 122,-339.5 122,-282.5 72,-282.5"/>
<text text-anchor="middle" x="97" y="-327.5" font-family="Helvetica,sans-Serif" font-size="10.00">QString</text>
<polyline fill="none" stroke="#bfbfbf" points="72,-320.5 122,-320.5 "/>
<text text-anchor="middle" x="97" y="-308.5" font-family="Helvetica,sans-Serif" font-size="10.00"> </text>
<polyline fill="none" stroke="#bfbfbf" points="72,-301.5 122,-301.5 "/>
<text text-anchor="middle" x="97" y="-289.5" font-family="Helvetica,sans-Serif" font-size="10.00"> </text>
</g>
<!-- Node3&#45;&gt;Node1 -->
<g id="edge4" class="edge"><title>Node3&#45;&gt;Node1</title>
<path fill="none" stroke="#404040" d="M101.176,-282.342C104.953,-263.624 111.849,-238.951 124,-220 142.693,-190.845 170.593,-164.662 196.103,-144.411"/>
<polygon fill="none" stroke="#404040" points="196.252,-144.295 198.546,-137.459 205.739,-136.946 203.445,-143.783 196.252,-144.295"/>
<text text-anchor="middle" x="151.5" y="-245" font-family="Helvetica,sans-Serif" font-size="10.00"> &#45;bufferRight</text>
<text text-anchor="middle" x="151.5" y="-234" font-family="Helvetica,sans-Serif" font-size="10.00">&#45;bufferLeft</text>
</g>
<!-- Node4 -->
<g id="node6" class="node"><title>Node4</title>
<polygon fill="white" stroke="#bfbfbf" points="157.5,-282.5 157.5,-339.5 192.5,-339.5 192.5,-282.5 157.5,-282.5"/>
<text text-anchor="middle" x="175" y="-327.5" font-family="Helvetica,sans-Serif" font-size="10.00">float</text>
<polyline fill="none" stroke="#bfbfbf" points="157.5,-320.5 192.5,-320.5 "/>
<text text-anchor="middle" x="175" y="-308.5" font-family="Helvetica,sans-Serif" font-size="10.00"> </text>
<polyline fill="none" stroke="#bfbfbf" points="157.5,-301.5 192.5,-301.5 "/>
<text text-anchor="middle" x="175" y="-289.5" font-family="Helvetica,sans-Serif" font-size="10.00"> </text>
</g>
<!-- Node4&#45;&gt;Node1 -->
<g id="edge6" class="edge"><title>Node4&#45;&gt;Node1</title>
<path fill="none" stroke="#404040" d="M178.733,-282.248C181.68,-264.155 186.557,-240.233 194,-220 196.108,-214.269 198.456,-208.475 200.971,-202.69"/>
<polygon fill="none" stroke="#404040" points="201.044,-202.529 199.876,-195.413 205.996,-191.598 207.164,-198.714 201.044,-202.529"/>
<text text-anchor="middle" x="224" y="-256" font-family="Helvetica,sans-Serif" font-size="10.00"> &#45;tiltLeftRight</text>
<text text-anchor="middle" x="224" y="-245" font-family="Helvetica,sans-Serif" font-size="10.00">&#45;goUpDown</text>
<text text-anchor="middle" x="224" y="-234" font-family="Helvetica,sans-Serif" font-size="10.00">&#45;tiltFrontBack</text>
<text text-anchor="middle" x="224" y="-223" font-family="Helvetica,sans-Serif" font-size="10.00">&#45;turnLeftRight</text>
</g>
<!-- Node5 -->
<g id="node8" class="node"><title>Node5</title>
<polygon fill="white" stroke="#bfbfbf" points="243.5,-282.5 243.5,-339.5 272.5,-339.5 272.5,-282.5 243.5,-282.5"/>
<text text-anchor="middle" x="258" y="-327.5" font-family="Helvetica,sans-Serif" font-size="10.00">int</text>
<polyline fill="none" stroke="#bfbfbf" points="243.5,-320.5 272.5,-320.5 "/>
<text text-anchor="middle" x="258" y="-308.5" font-family="Helvetica,sans-Serif" font-size="10.00"> </text>
<polyline fill="none" stroke="#bfbfbf" points="243.5,-301.5 272.5,-301.5 "/>
<text text-anchor="middle" x="258" y="-289.5" font-family="Helvetica,sans-Serif" font-size="10.00"> </text>
</g>
<!-- Node5&#45;&gt;Node1 -->
<g id="edge8" class="edge"><title>Node5&#45;&gt;Node1</title>
<path fill="none" stroke="#404040" d="M258,-282.379C258,-264.253 258,-239.229 258,-213.586"/>
<polygon fill="none" stroke="#404040" points="258,-213.381 254,-207.381 258,-201.381 262,-207.381 258,-213.381"/>
<text text-anchor="middle" x="288" y="-250.5" font-family="Helvetica,sans-Serif" font-size="10.00"> &#45;port_at</text>
<text text-anchor="middle" x="288" y="-239.5" font-family="Helvetica,sans-Serif" font-size="10.00">&#45;ident</text>
<text text-anchor="middle" x="288" y="-228.5" font-family="Helvetica,sans-Serif" font-size="10.00">&#45;port_navdata</text>
</g>
<!-- Node6 -->
<g id="node10" class="node"><title>Node6</title>
<polygon fill="white" stroke="#bfbfbf" points="301,-282.5 301,-339.5 381,-339.5 381,-282.5 301,-282.5"/>
<text text-anchor="middle" x="341" y="-327.5" font-family="Helvetica,sans-Serif" font-size="10.00">QUdpSocket *</text>
<polyline fill="none" stroke="#bfbfbf" points="301,-320.5 381,-320.5 "/>
<text text-anchor="middle" x="341" y="-308.5" font-family="Helvetica,sans-Serif" font-size="10.00"> </text>
<polyline fill="none" stroke="#bfbfbf" points="301,-301.5 381,-301.5 "/>
<text text-anchor="middle" x="341" y="-289.5" font-family="Helvetica,sans-Serif" font-size="10.00"> </text>
</g>
<!-- Node6&#45;&gt;Node1 -->
<g id="edge10" class="edge"><title>Node6&#45;&gt;Node1</title>
<path fill="none" stroke="#404040" d="M336.007,-282.316C332.319,-264.251 326.618,-240.335 319,-220 317.707,-216.548 316.337,-213.067 314.906,-209.574"/>
<polygon fill="none" stroke="#404040" points="314.849,-209.439 308.816,-205.488 310.143,-198.4 316.175,-202.351 314.849,-209.439"/>
<text text-anchor="middle" x="378.5" y="-245" font-family="Helvetica,sans-Serif" font-size="10.00"> &#45;udpSocket_navdata</text>
<text text-anchor="middle" x="378.5" y="-234" font-family="Helvetica,sans-Serif" font-size="10.00">&#45;udpSocket_at</text>
</g>
<!-- Node7 -->
<g id="node12" class="node"><title>Node7</title>
<polygon fill="white" stroke="#bfbfbf" points="439.5,-282.5 439.5,-339.5 474.5,-339.5 474.5,-282.5 439.5,-282.5"/>
<text text-anchor="middle" x="457" y="-327.5" font-family="Helvetica,sans-Serif" font-size="10.00">bool</text>
<polyline fill="none" stroke="#bfbfbf" points="439.5,-320.5 474.5,-320.5 "/>
<text text-anchor="middle" x="457" y="-308.5" font-family="Helvetica,sans-Serif" font-size="10.00"> </text>
<polyline fill="none" stroke="#bfbfbf" points="439.5,-301.5 474.5,-301.5 "/>
<text text-anchor="middle" x="457" y="-289.5" font-family="Helvetica,sans-Serif" font-size="10.00"> </text>
</g>
<!-- Node7&#45;&gt;Node1 -->
<g id="edge12" class="edge"><title>Node7&#45;&gt;Node1</title>
<path fill="none" stroke="#404040" d="M453.246,-282.268C449.574,-263.281 442.477,-238.323 429,-220 401.206,-182.214 357.522,-152.367 321.265,-132.144"/>
<polygon fill="none" stroke="#404040" points="320.823,-131.904 313.642,-132.557 310.277,-126.179 317.459,-125.526 320.823,-131.904"/>
<text text-anchor="middle" x="457.5" y="-239.5" font-family="Helvetica,sans-Serif" font-size="10.00"> &#45;fly</text>
</g>
<!-- Node8 -->
<g id="node14" class="node"><title>Node8</title>
<polygon fill="white" stroke="#bfbfbf" points="493,-282.5 493,-339.5 581,-339.5 581,-282.5 493,-282.5"/>
<text text-anchor="middle" x="537" y="-327.5" font-family="Helvetica,sans-Serif" font-size="10.00">QHostAddress *</text>
<polyline fill="none" stroke="#bfbfbf" points="493,-320.5 581,-320.5 "/>
<text text-anchor="middle" x="537" y="-308.5" font-family="Helvetica,sans-Serif" font-size="10.00"> </text>
<polyline fill="none" stroke="#bfbfbf" points="493,-301.5 581,-301.5 "/>
<text text-anchor="middle" x="537" y="-289.5" font-family="Helvetica,sans-Serif" font-size="10.00"> </text>
</g>
<!-- Node8&#45;&gt;Node1 -->
<g id="edge14" class="edge"><title>Node8&#45;&gt;Node1</title>
<path fill="none" stroke="#404040" d="M520.833,-282.378C508.628,-263.201 490.514,-237.969 470,-220 425.455,-180.98 365.9,-149.23 321.254,-128.533"/>
<polygon fill="none" stroke="#404040" points="321.162,-128.491 314.043,-129.641 310.243,-123.512 317.362,-122.362 321.162,-128.491"/>
<text text-anchor="middle" x="521.5" y="-239.5" font-family="Helvetica,sans-Serif" font-size="10.00"> &#45;host</text>
</g>
</g>
</svg>
