<?xml version="1.0" encoding="UTF-8" standalone="no"?>
<!DOCTYPE svg PUBLIC "-//W3C//DTD SVG 1.1//EN"
 "http://www.w3.org/Graphics/SVG/1.1/DTD/svg11.dtd">
<!-- Generated by graphviz version 2.28.0 (20121221.0049)
 -->
<!-- Title: ARDrone::land Pages: 1 -->
<svg width="272pt" height="77pt"
 viewBox="0.00 0.00 272.00 77.00" xmlns="http://www.w3.org/2000/svg" xmlns:xlink="http://www.w3.org/1999/xlink">
<g id="graph1" class="graph" transform="scale(1 1) rotate(0) translate(4 73)">
<title>ARDrone::land</title>
<polygon fill="white" stroke="white" points="-4,5 -4,-73 269,-73 269,5 -4,5"/>
<!-- Node1 -->
<g id="node1" class="node"><title>Node1</title>
<polygon fill="#bfbfbf" stroke="black" points="0.5,-22.5 0.5,-41.5 81.5,-41.5 81.5,-22.5 0.5,-22.5"/>
<text text-anchor="middle" x="41" y="-29.5" font-family="Helvetica,sans-Serif" font-size="10.00">ARDrone::land</text>
</g>
<!-- Node2 -->
<g id="node3" class="node"><title>Node2</title>
<a xlink:href="class_main_window.html#acd4f5cba500696e45b76a309361f905e" target="_top" xlink:title="MainWindow::on_btnTakeOff\lLand_clicked">
<polygon fill="white" stroke="black" points="119.5,-39 119.5,-69 262.5,-69 262.5,-39 119.5,-39"/>
<text text-anchor="start" x="127.5" y="-57" font-family="Helvetica,sans-Serif" font-size="10.00">MainWindow::on_btnTakeOff</text>
<text text-anchor="middle" x="191" y="-46" font-family="Helvetica,sans-Serif" font-size="10.00">Land_clicked</text>
</a>
</g>
<!-- Node1&#45;&gt;Node2 -->
<g id="edge2" class="edge"><title>Node1&#45;&gt;Node2</title>
<path fill="none" stroke="midnightblue" d="M91.797,-39.4023C100.665,-40.7205 110.055,-42.1163 119.373,-43.5014"/>
<polygon fill="midnightblue" stroke="midnightblue" points="92.0672,-35.904 81.6613,-37.8956 91.038,-42.828 92.0672,-35.904"/>
</g>
<!-- Node3 -->
<g id="node5" class="node"><title>Node3</title>
<a xlink:href="class_main_window.html#a7f44c594db41845d68cd08a64f5b6601" target="_top" xlink:title="MainWindow::keyPressEvent">
<polygon fill="white" stroke="black" points="118,-0.5 118,-19.5 264,-19.5 264,-0.5 118,-0.5"/>
<text text-anchor="middle" x="191" y="-7.5" font-family="Helvetica,sans-Serif" font-size="10.00">MainWindow::keyPressEvent</text>
</a>
</g>
<!-- Node1&#45;&gt;Node3 -->
<g id="edge4" class="edge"><title>Node1&#45;&gt;Node3</title>
<path fill="none" stroke="midnightblue" d="M91.8672,-24.5873C102.802,-22.9618 114.527,-21.219 125.931,-19.5238"/>
<polygon fill="midnightblue" stroke="midnightblue" points="91.038,-21.172 81.6613,-26.1044 92.0672,-28.096 91.038,-21.172"/>
</g>
</g>
</svg>
