<?xml version="1.0" encoding="UTF-8" standalone="no"?>
<!DOCTYPE svg PUBLIC "-//W3C//DTD SVG 1.1//EN"
 "http://www.w3.org/Graphics/SVG/1.1/DTD/svg11.dtd">
<!-- Generated by graphviz version 2.28.0 (20121221.0049)
 -->
<!-- Title: ARDrone::aru Pages: 1 -->
<svg width="268pt" height="77pt"
 viewBox="0.00 0.00 268.00 77.00" xmlns="http://www.w3.org/2000/svg" xmlns:xlink="http://www.w3.org/1999/xlink">
<g id="graph1" class="graph" transform="scale(1 1) rotate(0) translate(4 73)">
<title>ARDrone::aru</title>
<polygon fill="white" stroke="white" points="-4,5 -4,-73 265,-73 265,5 -4,5"/>
<!-- Node1 -->
<g id="node1" class="node"><title>Node1</title>
<polygon fill="#bfbfbf" stroke="black" points="0.5,-22.5 0.5,-41.5 77.5,-41.5 77.5,-22.5 0.5,-22.5"/>
<text text-anchor="middle" x="39" y="-29.5" font-family="Helvetica,sans-Serif" font-size="10.00">ARDrone::aru</text>
</g>
<!-- Node2 -->
<g id="node3" class="node"><title>Node2</title>
<a xlink:href="class_main_window.html#aabdcb1f13a0dcf682e6dcf4c9b3779b8" target="_top" xlink:title="MainWindow::on_btnARU\l_clicked">
<polygon fill="white" stroke="black" points="122,-39 122,-69 252,-69 252,-39 122,-39"/>
<text text-anchor="start" x="130" y="-57" font-family="Helvetica,sans-Serif" font-size="10.00">MainWindow::on_btnARU</text>
<text text-anchor="middle" x="187" y="-46" font-family="Helvetica,sans-Serif" font-size="10.00">_clicked</text>
</a>
</g>
<!-- Node1&#45;&gt;Node2 -->
<g id="edge2" class="edge"><title>Node1&#45;&gt;Node2</title>
<path fill="none" stroke="midnightblue" d="M87.7589,-39.1965C98.6697,-40.8406 110.438,-42.614 121.909,-44.3425"/>
<polygon fill="midnightblue" stroke="midnightblue" points="88.0085,-35.6947 77.5986,-37.6655 86.9655,-42.6166 88.0085,-35.6947"/>
</g>
<!-- Node3 -->
<g id="node5" class="node"><title>Node3</title>
<a xlink:href="class_main_window.html#a7f44c594db41845d68cd08a64f5b6601" target="_top" xlink:title="MainWindow::keyPressEvent">
<polygon fill="white" stroke="black" points="114,-0.5 114,-19.5 260,-19.5 260,-0.5 114,-0.5"/>
<text text-anchor="middle" x="187" y="-7.5" font-family="Helvetica,sans-Serif" font-size="10.00">MainWindow::keyPressEvent</text>
</a>
</g>
<!-- Node1&#45;&gt;Node3 -->
<g id="edge4" class="edge"><title>Node1&#45;&gt;Node3</title>
<path fill="none" stroke="midnightblue" d="M87.6113,-24.8257C98.8333,-23.1347 110.97,-21.306 122.76,-19.5293"/>
<polygon fill="midnightblue" stroke="midnightblue" points="86.9655,-21.3834 77.5986,-26.3345 88.0085,-28.3053 86.9655,-21.3834"/>
</g>
</g>
</svg>
