<?xml version="1.0" encoding="UTF-8" standalone="no"?>
<!DOCTYPE svg PUBLIC "-//W3C//DTD SVG 1.1//EN"
 "http://www.w3.org/Graphics/SVG/1.1/DTD/svg11.dtd">
<!-- Generated by graphviz version 2.28.0 (20121221.0049)
 -->
<!-- Title: MainWindow::on_btnConnect_clicked Pages: 1 -->
<svg width="460pt" height="66pt"
 viewBox="0.00 0.00 460.00 66.00" xmlns="http://www.w3.org/2000/svg" xmlns:xlink="http://www.w3.org/1999/xlink">
<g id="graph1" class="graph" transform="scale(1 1) rotate(0) translate(4 62)">
<title>MainWindow::on_btnConnect_clicked</title>
<polygon fill="white" stroke="white" points="-4,5 -4,-62 457,-62 457,5 -4,5"/>
<!-- Node1 -->
<g id="node1" class="node"><title>Node1</title>
<polygon fill="#bfbfbf" stroke="black" points="0.5,-14 0.5,-44 145.5,-44 145.5,-14 0.5,-14"/>
<text text-anchor="start" x="8.5" y="-32" font-family="Helvetica,sans-Serif" font-size="10.00">MainWindow::on_btnConnect</text>
<text text-anchor="middle" x="73" y="-21" font-family="Helvetica,sans-Serif" font-size="10.00">_clicked</text>
</g>
<!-- Node2 -->
<g id="node3" class="node"><title>Node2</title>
<a xlink:href="class_a_r_drone.html#a2fe1afa1efc4ed2306fba14eb9295ebe" target="_top" xlink:title="Initialise la connexion au drone.">
<polygon fill="white" stroke="black" points="182.5,-38.5 182.5,-57.5 317.5,-57.5 317.5,-38.5 182.5,-38.5"/>
<text text-anchor="middle" x="250" y="-45.5" font-family="Helvetica,sans-Serif" font-size="10.00">ARDrone::connectToDrone</text>
</a>
</g>
<!-- Node1&#45;&gt;Node2 -->
<g id="edge2" class="edge"><title>Node1&#45;&gt;Node2</title>
<path fill="none" stroke="midnightblue" d="M145.684,-36.7828C154.531,-37.7434 163.601,-38.7281 172.516,-39.6961"/>
<polygon fill="midnightblue" stroke="midnightblue" points="172.176,-43.1796 182.496,-40.7796 172.932,-36.2205 172.176,-43.1796"/>
</g>
<!-- Node3 -->
<g id="node5" class="node"><title>Node3</title>
<a xlink:href="class_a_r_drone.html#a6eeff4af7dcbb8088930f6cdca0e453c" target="_top" xlink:title="Initialise le drone (à utiliser avant de lancer la navigation)">
<polygon fill="white" stroke="black" points="199,-0.5 199,-19.5 301,-19.5 301,-0.5 199,-0.5"/>
<text text-anchor="middle" x="250" y="-7.5" font-family="Helvetica,sans-Serif" font-size="10.00">ARDrone::initDrone</text>
</a>
</g>
<!-- Node1&#45;&gt;Node3 -->
<g id="edge4" class="edge"><title>Node1&#45;&gt;Node3</title>
<path fill="none" stroke="midnightblue" d="M145.684,-21.2172C159.9,-19.6737 174.693,-18.0676 188.492,-16.5694"/>
<polygon fill="midnightblue" stroke="midnightblue" points="189.262,-20.0065 198.825,-15.4475 188.506,-13.0474 189.262,-20.0065"/>
</g>
<!-- Node4 -->
<g id="node7" class="node"><title>Node4</title>
<a xlink:href="class_a_r_drone.html#a534090497b9f3a959218e2edfe8cda25" target="_top" xlink:title="Envoyer une commande AT.">
<polygon fill="white" stroke="black" points="354.5,-0.5 354.5,-19.5 451.5,-19.5 451.5,-0.5 354.5,-0.5"/>
<text text-anchor="middle" x="403" y="-7.5" font-family="Helvetica,sans-Serif" font-size="10.00">ARDrone::sendAT</text>
</a>
</g>
<!-- Node3&#45;&gt;Node4 -->
<g id="edge6" class="edge"><title>Node3&#45;&gt;Node4</title>
<path fill="none" stroke="midnightblue" d="M301.281,-10C315.088,-10 330.167,-10 344.353,-10"/>
<polygon fill="midnightblue" stroke="midnightblue" points="344.495,-13.5001 354.495,-10 344.495,-6.5001 344.495,-13.5001"/>
</g>
</g>
</svg>
