<?xml version="1.0" encoding="UTF-8" standalone="no"?>
<!DOCTYPE svg PUBLIC "-//W3C//DTD SVG 1.1//EN"
 "http://www.w3.org/Graphics/SVG/1.1/DTD/svg11.dtd">
<!-- Generated by graphviz version 2.28.0 (20121221.0049)
 -->
<!-- Title: ARDrone::setTiltLeftRight Pages: 1 -->
<svg width="512pt" height="312pt"
 viewBox="0.00 0.00 512.00 312.00" xmlns="http://www.w3.org/2000/svg" xmlns:xlink="http://www.w3.org/1999/xlink">
<g id="graph1" class="graph" transform="scale(1 1) rotate(0) translate(4 308)">
<title>ARDrone::setTiltLeftRight</title>
<polygon fill="white" stroke="white" points="-4,5 -4,-308 509,-308 509,5 -4,5"/>
<!-- Node1 -->
<g id="node1" class="node"><title>Node1</title>
<polygon fill="#bfbfbf" stroke="black" points="0,-142.5 0,-161.5 130,-161.5 130,-142.5 0,-142.5"/>
<text text-anchor="middle" x="65" y="-149.5" font-family="Helvetica,sans-Serif" font-size="10.00">ARDrone::setTiltLeftRight</text>
</g>
<!-- Node2 -->
<g id="node3" class="node"><title>Node2</title>
<a xlink:href="class_a_r_drone.html#a990dcded2f78b03960887e6c2bf3e717" target="_top" xlink:title="Demande de décollage.">
<polygon fill="white" stroke="black" points="197.5,-273.5 197.5,-292.5 290.5,-292.5 290.5,-273.5 197.5,-273.5"/>
<text text-anchor="middle" x="244" y="-280.5" font-family="Helvetica,sans-Serif" font-size="10.00">ARDrone::takeoff</text>
</a>
</g>
<!-- Node1&#45;&gt;Node2 -->
<g id="edge2" class="edge"><title>Node1&#45;&gt;Node2</title>
<path fill="none" stroke="midnightblue" d="M78.183,-169.975C95.168,-193.705 128.17,-235.247 166,-259 175.843,-265.18 187.397,-269.876 198.518,-273.4"/>
<polygon fill="midnightblue" stroke="midnightblue" points="80.8907,-167.74 72.2919,-161.55 75.154,-171.751 80.8907,-167.74"/>
</g>
<!-- Node4 -->
<g id="node7" class="node"><title>Node4</title>
<a xlink:href="class_main_window.html#a7f44c594db41845d68cd08a64f5b6601" target="_top" xlink:title="MainWindow::keyPressEvent">
<polygon fill="white" stroke="black" points="358,-235.5 358,-254.5 504,-254.5 504,-235.5 358,-235.5"/>
<text text-anchor="middle" x="431" y="-242.5" font-family="Helvetica,sans-Serif" font-size="10.00">MainWindow::keyPressEvent</text>
</a>
</g>
<!-- Node1&#45;&gt;Node4 -->
<g id="edge16" class="edge"><title>Node1&#45;&gt;Node4</title>
<path fill="none" stroke="midnightblue" d="M82.7264,-168.86C101.277,-186.355 132.97,-212.827 166,-225 227.998,-247.849 303.611,-251.343 358,-250.015"/>
<polygon fill="midnightblue" stroke="midnightblue" points="85.0113,-166.2 75.3927,-161.758 80.1416,-171.229 85.0113,-166.2"/>
</g>
<!-- Node5 -->
<g id="node9" class="node"><title>Node5</title>
<a xlink:href="class_main_window.html#ad0b15e75d6ace91df066500b048c89ca" target="_top" xlink:title="MainWindow::on_btnStat\l_clicked">
<polygon fill="white" stroke="black" points="181,-186 181,-216 307,-216 307,-186 181,-186"/>
<text text-anchor="start" x="189" y="-204" font-family="Helvetica,sans-Serif" font-size="10.00">MainWindow::on_btnStat</text>
<text text-anchor="middle" x="244" y="-193" font-family="Helvetica,sans-Serif" font-size="10.00">_clicked</text>
</a>
</g>
<!-- Node1&#45;&gt;Node5 -->
<g id="edge8" class="edge"><title>Node1&#45;&gt;Node5</title>
<path fill="none" stroke="midnightblue" d="M110.35,-164.278C134.104,-170.854 163.564,-179.009 188.683,-185.963"/>
<polygon fill="midnightblue" stroke="midnightblue" points="111.119,-160.859 100.548,-161.564 109.251,-167.605 111.119,-160.859"/>
</g>
<!-- Node6 -->
<g id="node11" class="node"><title>Node6</title>
<a xlink:href="class_main_window.html#a89998d2db841a6c1c4d9d6dc43484cf7" target="_top" xlink:title="MainWindow::on_btnStat1\l_clicked">
<polygon fill="white" stroke="black" points="178.5,-137 178.5,-167 309.5,-167 309.5,-137 178.5,-137"/>
<text text-anchor="start" x="186.5" y="-155" font-family="Helvetica,sans-Serif" font-size="10.00">MainWindow::on_btnStat1</text>
<text text-anchor="middle" x="244" y="-144" font-family="Helvetica,sans-Serif" font-size="10.00">_clicked</text>
</a>
</g>
<!-- Node1&#45;&gt;Node6 -->
<g id="edge10" class="edge"><title>Node1&#45;&gt;Node6</title>
<path fill="none" stroke="midnightblue" d="M140.234,-152C152.939,-152 166.047,-152 178.473,-152"/>
<polygon fill="midnightblue" stroke="midnightblue" points="140.151,-148.5 130.151,-152 140.151,-155.5 140.151,-148.5"/>
</g>
<!-- Node7 -->
<g id="node13" class="node"><title>Node7</title>
<a xlink:href="class_main_window.html#a0a6451b2a2229e065f647304e826c568" target="_top" xlink:title="MainWindow::on_btnTiltLeft\l_clicked">
<polygon fill="white" stroke="black" points="175,-88 175,-118 313,-118 313,-88 175,-88"/>
<text text-anchor="start" x="183" y="-106" font-family="Helvetica,sans-Serif" font-size="10.00">MainWindow::on_btnTiltLeft</text>
<text text-anchor="middle" x="244" y="-95" font-family="Helvetica,sans-Serif" font-size="10.00">_clicked</text>
</a>
</g>
<!-- Node1&#45;&gt;Node7 -->
<g id="edge12" class="edge"><title>Node1&#45;&gt;Node7</title>
<path fill="none" stroke="midnightblue" d="M110.35,-139.722C134.104,-133.146 163.564,-124.991 188.683,-118.037"/>
<polygon fill="midnightblue" stroke="midnightblue" points="109.251,-136.395 100.548,-142.436 111.119,-143.141 109.251,-136.395"/>
</g>
<!-- Node8 -->
<g id="node15" class="node"><title>Node8</title>
<a xlink:href="class_main_window.html#af628b3728c2c24cacfd2f91583f8948e" target="_top" xlink:title="MainWindow::on_btnTiltRight\l_clicked">
<polygon fill="white" stroke="black" points="171.5,-39 171.5,-69 316.5,-69 316.5,-39 171.5,-39"/>
<text text-anchor="start" x="179.5" y="-57" font-family="Helvetica,sans-Serif" font-size="10.00">MainWindow::on_btnTiltRight</text>
<text text-anchor="middle" x="244" y="-46" font-family="Helvetica,sans-Serif" font-size="10.00">_clicked</text>
</a>
</g>
<!-- Node1&#45;&gt;Node8 -->
<g id="edge14" class="edge"><title>Node1&#45;&gt;Node8</title>
<path fill="none" stroke="midnightblue" d="M84.3057,-135.852C103.515,-119.604 135.152,-94.7574 166,-79 173.26,-75.2917 181.182,-71.9805 189.095,-69.0767"/>
<polygon fill="midnightblue" stroke="midnightblue" points="81.9396,-133.271 76.6374,-142.444 86.5025,-138.579 81.9396,-133.271"/>
</g>
<!-- Node9 -->
<g id="node18" class="node"><title>Node9</title>
<a xlink:href="class_main_window.html#abacefb8ef74a2a9ef1e8fc2fe1c68c95" target="_top" xlink:title="MainWindow::keyReleaseEvent">
<polygon fill="white" stroke="black" points="166,-0.5 166,-19.5 322,-19.5 322,-0.5 166,-0.5"/>
<text text-anchor="middle" x="244" y="-7.5" font-family="Helvetica,sans-Serif" font-size="10.00">MainWindow::keyReleaseEvent</text>
</a>
</g>
<!-- Node1&#45;&gt;Node9 -->
<g id="edge18" class="edge"><title>Node1&#45;&gt;Node9</title>
<path fill="none" stroke="midnightblue" d="M76.0209,-133.509C91.618,-106.528 124.291,-56.6839 166,-30 172.864,-25.6084 180.654,-22.1788 188.579,-19.501"/>
<polygon fill="midnightblue" stroke="midnightblue" points="72.9115,-131.898 71.0621,-142.33 79.0134,-135.328 72.9115,-131.898"/>
</g>
<!-- Node3 -->
<g id="node5" class="node"><title>Node3</title>
<a xlink:href="class_main_window.html#acd4f5cba500696e45b76a309361f905e" target="_top" xlink:title="MainWindow::on_btnTakeOff\lLand_clicked">
<polygon fill="white" stroke="black" points="359.5,-274 359.5,-304 502.5,-304 502.5,-274 359.5,-274"/>
<text text-anchor="start" x="367.5" y="-292" font-family="Helvetica,sans-Serif" font-size="10.00">MainWindow::on_btnTakeOff</text>
<text text-anchor="middle" x="431" y="-281" font-family="Helvetica,sans-Serif" font-size="10.00">Land_clicked</text>
</a>
</g>
<!-- Node2&#45;&gt;Node3 -->
<g id="edge4" class="edge"><title>Node2&#45;&gt;Node3</title>
<path fill="none" stroke="midnightblue" d="M300.952,-284.815C319.299,-285.41 339.932,-286.079 359.228,-286.705"/>
<polygon fill="midnightblue" stroke="midnightblue" points="300.839,-281.309 290.73,-284.483 300.612,-288.306 300.839,-281.309"/>
</g>
<!-- Node2&#45;&gt;Node4 -->
<g id="edge6" class="edge"><title>Node2&#45;&gt;Node4</title>
<path fill="none" stroke="midnightblue" d="M300.611,-271.577C327.068,-266.143 358.339,-259.72 383.511,-254.549"/>
<polygon fill="midnightblue" stroke="midnightblue" points="299.822,-268.166 290.73,-273.607 301.23,-275.023 299.822,-268.166"/>
</g>
</g>
</svg>
