<?xml version="1.0" encoding="UTF-8" standalone="no"?>
<!DOCTYPE svg PUBLIC "-//W3C//DTD SVG 1.1//EN"
 "http://www.w3.org/Graphics/SVG/1.1/DTD/svg11.dtd">
<!-- Generated by graphviz version 2.28.0 (20121221.0049)
 -->
<!-- Title: ARDrone::connectToDrone Pages: 1 -->
<svg width="342pt" height="77pt"
 viewBox="0.00 0.00 342.00 77.00" xmlns="http://www.w3.org/2000/svg" xmlns:xlink="http://www.w3.org/1999/xlink">
<g id="graph1" class="graph" transform="scale(1 1) rotate(0) translate(4 73)">
<title>ARDrone::connectToDrone</title>
<polygon fill="white" stroke="white" points="-4,5 -4,-73 339,-73 339,5 -4,5"/>
<!-- Node1 -->
<g id="node1" class="node"><title>Node1</title>
<polygon fill="#bfbfbf" stroke="black" points="0.5,-22.5 0.5,-41.5 135.5,-41.5 135.5,-22.5 0.5,-22.5"/>
<text text-anchor="middle" x="68" y="-29.5" font-family="Helvetica,sans-Serif" font-size="10.00">ARDrone::connectToDrone</text>
</g>
<!-- Node2 -->
<g id="node3" class="node"><title>Node2</title>
<a xlink:href="class_main_window.html#a401a1ce9f9e1997a045bf6a935c9065e" target="_top" xlink:title="MainWindow::on_btnConnect\l_clicked">
<polygon fill="white" stroke="black" points="180.5,-39 180.5,-69 325.5,-69 325.5,-39 180.5,-39"/>
<text text-anchor="start" x="188.5" y="-57" font-family="Helvetica,sans-Serif" font-size="10.00">MainWindow::on_btnConnect</text>
<text text-anchor="middle" x="253" y="-46" font-family="Helvetica,sans-Serif" font-size="10.00">_clicked</text>
</a>
</g>
<!-- Node1&#45;&gt;Node2 -->
<g id="edge2" class="edge"><title>Node1&#45;&gt;Node2</title>
<path fill="none" stroke="midnightblue" d="M145.569,-41.205C157.046,-42.5847 168.845,-44.0032 180.217,-45.3704"/>
<polygon fill="midnightblue" stroke="midnightblue" points="145.931,-37.7234 135.585,-40.0047 145.096,-44.6734 145.931,-37.7234"/>
</g>
<!-- Node3 -->
<g id="node5" class="node"><title>Node3</title>
<a xlink:href="classnavdata_window.html#af8e5f19a89f5e65c1a9674364a216f67" target="_top" xlink:title="navdataWindow::navdataWindow">
<polygon fill="white" stroke="black" points="172,-0.5 172,-19.5 334,-19.5 334,-0.5 172,-0.5"/>
<text text-anchor="middle" x="253" y="-7.5" font-family="Helvetica,sans-Serif" font-size="10.00">navdataWindow::navdataWindow</text>
</a>
</g>
<!-- Node1&#45;&gt;Node3 -->
<g id="edge4" class="edge"><title>Node1&#45;&gt;Node3</title>
<path fill="none" stroke="midnightblue" d="M145.598,-22.7915C154.558,-21.7144 163.713,-20.6137 172.709,-19.5323"/>
<polygon fill="midnightblue" stroke="midnightblue" points="145.096,-19.3266 135.585,-23.9953 145.931,-26.2766 145.096,-19.3266"/>
</g>
</g>
</svg>
