<?xml version="1.0" encoding="UTF-8" standalone="no"?>
<!DOCTYPE svg PUBLIC "-//W3C//DTD SVG 1.1//EN"
 "http://www.w3.org/Graphics/SVG/1.1/DTD/svg11.dtd">
<!-- Generated by graphviz version 2.28.0 (20121221.0049)
 -->
<!-- Title: ARDrone::takeoff Pages: 1 -->
<svg width="274pt" height="180pt"
 viewBox="0.00 0.00 274.00 180.00" xmlns="http://www.w3.org/2000/svg" xmlns:xlink="http://www.w3.org/1999/xlink">
<g id="graph1" class="graph" transform="scale(1 1) rotate(0) translate(4 176)">
<title>ARDrone::takeoff</title>
<polygon fill="white" stroke="white" points="-4,5 -4,-176 271,-176 271,5 -4,5"/>
<!-- Node1 -->
<g id="node1" class="node"><title>Node1</title>
<polygon fill="#bfbfbf" stroke="black" points="0.5,-76.5 0.5,-95.5 93.5,-95.5 93.5,-76.5 0.5,-76.5"/>
<text text-anchor="middle" x="47" y="-83.5" font-family="Helvetica,sans-Serif" font-size="10.00">ARDrone::takeoff</text>
</g>
<!-- Node2 -->
<g id="node3" class="node"><title>Node2</title>
<a xlink:href="class_a_r_drone.html#a534090497b9f3a959218e2edfe8cda25" target="_top" xlink:title="Envoyer une commande AT.">
<polygon fill="white" stroke="black" points="149.5,-152.5 149.5,-171.5 246.5,-171.5 246.5,-152.5 149.5,-152.5"/>
<text text-anchor="middle" x="198" y="-159.5" font-family="Helvetica,sans-Serif" font-size="10.00">ARDrone::sendAT</text>
</a>
</g>
<!-- Node1&#45;&gt;Node2 -->
<g id="edge2" class="edge"><title>Node1&#45;&gt;Node2</title>
<path fill="none" stroke="midnightblue" d="M59.1956,-95.6113C74.3255,-108.153 102.573,-130.025 130,-143 134.918,-145.327 140.178,-147.423 145.506,-149.297"/>
<polygon fill="midnightblue" stroke="midnightblue" points="144.521,-152.657 155.114,-152.433 146.694,-146.003 144.521,-152.657"/>
</g>
<!-- Node3 -->
<g id="node5" class="node"><title>Node3</title>
<a xlink:href="class_a_r_drone.html#a6d49175397dcce8b90fb2f7200525080" target="_top" xlink:title="Setter sécurisé de la valeur de la vitesse verticale.">
<polygon fill="white" stroke="black" points="134,-114.5 134,-133.5 262,-133.5 262,-114.5 134,-114.5"/>
<text text-anchor="middle" x="198" y="-121.5" font-family="Helvetica,sans-Serif" font-size="10.00">ARDrone::setGoUpDown</text>
</a>
</g>
<!-- Node1&#45;&gt;Node3 -->
<g id="edge4" class="edge"><title>Node1&#45;&gt;Node3</title>
<path fill="none" stroke="midnightblue" d="M85.599,-95.589C105.084,-100.558 129.075,-106.677 149.796,-111.961"/>
<polygon fill="midnightblue" stroke="midnightblue" points="149.117,-115.4 159.671,-114.48 150.846,-108.617 149.117,-115.4"/>
</g>
<!-- Node4 -->
<g id="node7" class="node"><title>Node4</title>
<a xlink:href="class_a_r_drone.html#a89b56f0ae2e6f9e9103f05fd4c4b8e78" target="_top" xlink:title="Setter sécurisé de la valeur de la vitesse angulaire.">
<polygon fill="white" stroke="black" points="130,-76.5 130,-95.5 266,-95.5 266,-76.5 130,-76.5"/>
<text text-anchor="middle" x="198" y="-83.5" font-family="Helvetica,sans-Serif" font-size="10.00">ARDrone::setTurnLeftRight</text>
</a>
</g>
<!-- Node1&#45;&gt;Node4 -->
<g id="edge6" class="edge"><title>Node1&#45;&gt;Node4</title>
<path fill="none" stroke="midnightblue" d="M93.5145,-86C101.847,-86 110.752,-86 119.711,-86"/>
<polygon fill="midnightblue" stroke="midnightblue" points="119.822,-89.5001 129.822,-86 119.822,-82.5001 119.822,-89.5001"/>
</g>
<!-- Node5 -->
<g id="node9" class="node"><title>Node5</title>
<a xlink:href="class_a_r_drone.html#af59edbd15b6110cd78272fbcef16769d" target="_top" xlink:title="Setter sécurisé de la valeur de l&#39;inclinaison avant arrière.">
<polygon fill="white" stroke="black" points="130.5,-38.5 130.5,-57.5 265.5,-57.5 265.5,-38.5 130.5,-38.5"/>
<text text-anchor="middle" x="198" y="-45.5" font-family="Helvetica,sans-Serif" font-size="10.00">ARDrone::setTiltFrontBack</text>
</a>
</g>
<!-- Node1&#45;&gt;Node5 -->
<g id="edge8" class="edge"><title>Node1&#45;&gt;Node5</title>
<path fill="none" stroke="midnightblue" d="M85.599,-76.411C105.084,-71.4417 129.075,-65.3233 149.796,-60.0387"/>
<polygon fill="midnightblue" stroke="midnightblue" points="150.846,-63.3828 159.671,-57.5201 149.117,-56.5999 150.846,-63.3828"/>
</g>
<!-- Node6 -->
<g id="node11" class="node"><title>Node6</title>
<a xlink:href="class_a_r_drone.html#aa9dfdd35fc9ed963c581d3bc1c127d12" target="_top" xlink:title="Setter sécurisé de la valeur de l&#39;inclinaison gauche droite.">
<polygon fill="white" stroke="black" points="133,-0.5 133,-19.5 263,-19.5 263,-0.5 133,-0.5"/>
<text text-anchor="middle" x="198" y="-7.5" font-family="Helvetica,sans-Serif" font-size="10.00">ARDrone::setTiltLeftRight</text>
</a>
</g>
<!-- Node1&#45;&gt;Node6 -->
<g id="edge10" class="edge"><title>Node1&#45;&gt;Node6</title>
<path fill="none" stroke="midnightblue" d="M59.1956,-76.3887C74.3255,-63.847 102.573,-41.9751 130,-29 134.918,-26.6733 140.178,-24.5775 145.506,-22.7033"/>
<polygon fill="midnightblue" stroke="midnightblue" points="146.694,-25.9975 155.114,-19.5671 144.521,-19.3431 146.694,-25.9975"/>
</g>
</g>
</svg>
