<?xml version="1.0" encoding="UTF-8" standalone="no"?>
<!DOCTYPE svg PUBLIC "-//W3C//DTD SVG 1.1//EN"
 "http://www.w3.org/Graphics/SVG/1.1/DTD/svg11.dtd">
<!-- Generated by graphviz version 2.28.0 (20121221.0049)
 -->
<!-- Title: MainWindow::on_btnStat_clicked Pages: 1 -->
<svg width="306pt" height="142pt"
 viewBox="0.00 0.00 306.00 142.00" xmlns="http://www.w3.org/2000/svg" xmlns:xlink="http://www.w3.org/1999/xlink">
<g id="graph1" class="graph" transform="scale(1 1) rotate(0) translate(4 138)">
<title>MainWindow::on_btnStat_clicked</title>
<polygon fill="white" stroke="white" points="-4,5 -4,-138 303,-138 303,5 -4,5"/>
<!-- Node1 -->
<g id="node1" class="node"><title>Node1</title>
<polygon fill="#bfbfbf" stroke="black" points="0,-52 0,-82 126,-82 126,-52 0,-52"/>
<text text-anchor="start" x="8" y="-70" font-family="Helvetica,sans-Serif" font-size="10.00">MainWindow::on_btnStat</text>
<text text-anchor="middle" x="63" y="-59" font-family="Helvetica,sans-Serif" font-size="10.00">_clicked</text>
</g>
<!-- Node2 -->
<g id="node3" class="node"><title>Node2</title>
<a xlink:href="class_a_r_drone.html#a6d49175397dcce8b90fb2f7200525080" target="_top" xlink:title="Setter sécurisé de la valeur de la vitesse verticale.">
<polygon fill="white" stroke="black" points="166,-114.5 166,-133.5 294,-133.5 294,-114.5 166,-114.5"/>
<text text-anchor="middle" x="230" y="-121.5" font-family="Helvetica,sans-Serif" font-size="10.00">ARDrone::setGoUpDown</text>
</a>
</g>
<!-- Node1&#45;&gt;Node2 -->
<g id="edge2" class="edge"><title>Node1&#45;&gt;Node2</title>
<path fill="none" stroke="midnightblue" d="M100.468,-82.0765C118.785,-89.409 141.408,-98.1049 162,-105 168.857,-107.296 176.168,-109.557 183.346,-111.673"/>
<polygon fill="midnightblue" stroke="midnightblue" points="182.417,-115.048 192.996,-114.458 184.359,-108.322 182.417,-115.048"/>
</g>
<!-- Node3 -->
<g id="node5" class="node"><title>Node3</title>
<a xlink:href="class_a_r_drone.html#af59edbd15b6110cd78272fbcef16769d" target="_top" xlink:title="Setter sécurisé de la valeur de l&#39;inclinaison avant arrière.">
<polygon fill="white" stroke="black" points="162.5,-76.5 162.5,-95.5 297.5,-95.5 297.5,-76.5 162.5,-76.5"/>
<text text-anchor="middle" x="230" y="-83.5" font-family="Helvetica,sans-Serif" font-size="10.00">ARDrone::setTiltFrontBack</text>
</a>
</g>
<!-- Node1&#45;&gt;Node3 -->
<g id="edge4" class="edge"><title>Node1&#45;&gt;Node3</title>
<path fill="none" stroke="midnightblue" d="M126.379,-74.1831C134.841,-75.1574 143.603,-76.1664 152.28,-77.1655"/>
<polygon fill="midnightblue" stroke="midnightblue" points="152.068,-80.6642 162.403,-78.3312 152.869,-73.7102 152.068,-80.6642"/>
</g>
<!-- Node4 -->
<g id="node7" class="node"><title>Node4</title>
<a xlink:href="class_a_r_drone.html#aa9dfdd35fc9ed963c581d3bc1c127d12" target="_top" xlink:title="Setter sécurisé de la valeur de l&#39;inclinaison gauche droite.">
<polygon fill="white" stroke="black" points="165,-38.5 165,-57.5 295,-57.5 295,-38.5 165,-38.5"/>
<text text-anchor="middle" x="230" y="-45.5" font-family="Helvetica,sans-Serif" font-size="10.00">ARDrone::setTiltLeftRight</text>
</a>
</g>
<!-- Node1&#45;&gt;Node4 -->
<g id="edge6" class="edge"><title>Node1&#45;&gt;Node4</title>
<path fill="none" stroke="midnightblue" d="M126.379,-59.8169C135.628,-58.7519 145.236,-57.6456 154.699,-56.5559"/>
<polygon fill="midnightblue" stroke="midnightblue" points="155.352,-60.0039 164.886,-55.3829 154.551,-53.0499 155.352,-60.0039"/>
</g>
<!-- Node5 -->
<g id="node9" class="node"><title>Node5</title>
<a xlink:href="class_a_r_drone.html#a89b56f0ae2e6f9e9103f05fd4c4b8e78" target="_top" xlink:title="Setter sécurisé de la valeur de la vitesse angulaire.">
<polygon fill="white" stroke="black" points="162,-0.5 162,-19.5 298,-19.5 298,-0.5 162,-0.5"/>
<text text-anchor="middle" x="230" y="-7.5" font-family="Helvetica,sans-Serif" font-size="10.00">ARDrone::setTurnLeftRight</text>
</a>
</g>
<!-- Node1&#45;&gt;Node5 -->
<g id="edge8" class="edge"><title>Node1&#45;&gt;Node5</title>
<path fill="none" stroke="midnightblue" d="M100.468,-51.9235C118.785,-44.591 141.408,-35.8951 162,-29 168.857,-26.7038 176.168,-24.4433 183.346,-22.3273"/>
<polygon fill="midnightblue" stroke="midnightblue" points="184.359,-25.6779 192.996,-19.5416 182.417,-18.9525 184.359,-25.6779"/>
</g>
</g>
</svg>
