<?xml version="1.0" encoding="UTF-8" standalone="no"?>
<!DOCTYPE svg PUBLIC "-//W3C//DTD SVG 1.1//EN"
 "http://www.w3.org/Graphics/SVG/1.1/DTD/svg11.dtd">
<!-- Generated by graphviz version 2.28.0 (20121221.0049)
 -->
<!-- Title: MainWindow::keyPressEvent Pages: 1 -->
<svg width="456pt" height="253pt"
 viewBox="0.00 0.00 456.00 253.00" xmlns="http://www.w3.org/2000/svg" xmlns:xlink="http://www.w3.org/1999/xlink">
<g id="graph1" class="graph" transform="scale(1 1) rotate(0) translate(4 249)">
<title>MainWindow::keyPressEvent</title>
<polygon fill="white" stroke="white" points="-4,5 -4,-249 453,-249 453,5 -4,5"/>
<!-- Node1 -->
<g id="node1" class="node"><title>Node1</title>
<polygon fill="#bfbfbf" stroke="black" points="0,-114.5 0,-133.5 146,-133.5 146,-114.5 0,-114.5"/>
<text text-anchor="middle" x="73" y="-121.5" font-family="Helvetica,sans-Serif" font-size="10.00">MainWindow::keyPressEvent</text>
</g>
<!-- Node2 -->
<g id="node3" class="node"><title>Node2</title>
<a xlink:href="class_a_r_drone.html#a6d49175397dcce8b90fb2f7200525080" target="_top" xlink:title="Setter sécurisé de la valeur de la vitesse verticale.">
<polygon fill="white" stroke="black" points="316,-225.5 316,-244.5 444,-244.5 444,-225.5 316,-225.5"/>
<text text-anchor="middle" x="380" y="-232.5" font-family="Helvetica,sans-Serif" font-size="10.00">ARDrone::setGoUpDown</text>
</a>
</g>
<!-- Node1&#45;&gt;Node2 -->
<g id="edge2" class="edge"><title>Node1&#45;&gt;Node2</title>
<path fill="none" stroke="midnightblue" d="M89.1974,-133.619C109.625,-146.202 147.382,-168.26 182,-182 227.673,-200.127 281.704,-214.173 321.617,-223.237"/>
<polygon fill="midnightblue" stroke="midnightblue" points="320.924,-226.669 331.447,-225.434 322.451,-219.837 320.924,-226.669"/>
</g>
<!-- Node3 -->
<g id="node5" class="node"><title>Node3</title>
<a xlink:href="class_a_r_drone.html#a89b56f0ae2e6f9e9103f05fd4c4b8e78" target="_top" xlink:title="Setter sécurisé de la valeur de la vitesse angulaire.">
<polygon fill="white" stroke="black" points="312,-182.5 312,-201.5 448,-201.5 448,-182.5 312,-182.5"/>
<text text-anchor="middle" x="380" y="-189.5" font-family="Helvetica,sans-Serif" font-size="10.00">ARDrone::setTurnLeftRight</text>
</a>
</g>
<!-- Node1&#45;&gt;Node3 -->
<g id="edge4" class="edge"><title>Node1&#45;&gt;Node3</title>
<path fill="none" stroke="midnightblue" d="M99.8786,-133.578C121.566,-141.315 153.472,-152.028 182,-159 221.105,-168.557 265.254,-176.232 301.83,-181.767"/>
<polygon fill="midnightblue" stroke="midnightblue" points="301.529,-185.26 311.936,-183.271 302.56,-178.337 301.529,-185.26"/>
</g>
<!-- Node4 -->
<g id="node7" class="node"><title>Node4</title>
<a xlink:href="class_a_r_drone.html#af59edbd15b6110cd78272fbcef16769d" target="_top" xlink:title="Setter sécurisé de la valeur de l&#39;inclinaison avant arrière.">
<polygon fill="white" stroke="black" points="312.5,-135.5 312.5,-154.5 447.5,-154.5 447.5,-135.5 312.5,-135.5"/>
<text text-anchor="middle" x="380" y="-142.5" font-family="Helvetica,sans-Serif" font-size="10.00">ARDrone::setTiltFrontBack</text>
</a>
</g>
<!-- Node1&#45;&gt;Node4 -->
<g id="edge6" class="edge"><title>Node1&#45;&gt;Node4</title>
<path fill="none" stroke="midnightblue" d="M118.442,-133.51C137.858,-137.225 160.958,-141.055 182,-143 221.537,-146.654 265.725,-147.405 302.217,-147.135"/>
<polygon fill="midnightblue" stroke="midnightblue" points="302.331,-150.634 312.295,-147.033 302.26,-143.634 302.331,-150.634"/>
</g>
<!-- Node5 -->
<g id="node9" class="node"><title>Node5</title>
<a xlink:href="class_a_r_drone.html#aa9dfdd35fc9ed963c581d3bc1c127d12" target="_top" xlink:title="Setter sécurisé de la valeur de l&#39;inclinaison gauche droite.">
<polygon fill="white" stroke="black" points="315,-78.5 315,-97.5 445,-97.5 445,-78.5 315,-78.5"/>
<text text-anchor="middle" x="380" y="-85.5" font-family="Helvetica,sans-Serif" font-size="10.00">ARDrone::setTiltLeftRight</text>
</a>
</g>
<!-- Node1&#45;&gt;Node5 -->
<g id="edge8" class="edge"><title>Node1&#45;&gt;Node5</title>
<path fill="none" stroke="midnightblue" d="M122.784,-114.478C141.276,-111.117 162.557,-107.544 182,-105 222.447,-99.7074 267.79,-95.6654 304.77,-92.8534"/>
<polygon fill="midnightblue" stroke="midnightblue" points="305.255,-96.327 314.967,-92.0928 304.734,-89.3464 305.255,-96.327"/>
</g>
<!-- Node6 -->
<g id="node11" class="node"><title>Node6</title>
<a xlink:href="class_a_r_drone.html#ae230bca8378a15312d53936b988b30be" target="_top" xlink:title="Demande d&#39;arrêt d&#39;urgence.">
<polygon fill="white" stroke="black" points="190.5,-0.5 190.5,-19.5 267.5,-19.5 267.5,-0.5 190.5,-0.5"/>
<text text-anchor="middle" x="229" y="-7.5" font-family="Helvetica,sans-Serif" font-size="10.00">ARDrone::aru</text>
</a>
</g>
<!-- Node1&#45;&gt;Node6 -->
<g id="edge10" class="edge"><title>Node1&#45;&gt;Node6</title>
<path fill="none" stroke="midnightblue" d="M82.6978,-114.486C100.054,-95.9529 140.867,-54.5925 182,-29 184.951,-27.1642 188.109,-25.4362 191.338,-23.8276"/>
<polygon fill="midnightblue" stroke="midnightblue" points="192.88,-26.9713 200.509,-19.6194 189.96,-20.6092 192.88,-26.9713"/>
</g>
<!-- Node8 -->
<g id="node15" class="node"><title>Node8</title>
<a xlink:href="class_a_r_drone.html#a990dcded2f78b03960887e6c2bf3e717" target="_top" xlink:title="Demande de décollage.">
<polygon fill="white" stroke="black" points="182.5,-114.5 182.5,-133.5 275.5,-133.5 275.5,-114.5 182.5,-114.5"/>
<text text-anchor="middle" x="229" y="-121.5" font-family="Helvetica,sans-Serif" font-size="10.00">ARDrone::takeoff</text>
</a>
</g>
<!-- Node1&#45;&gt;Node8 -->
<g id="edge14" class="edge"><title>Node1&#45;&gt;Node8</title>
<path fill="none" stroke="midnightblue" d="M146.04,-124C154.833,-124 163.713,-124 172.218,-124"/>
<polygon fill="midnightblue" stroke="midnightblue" points="172.376,-127.5 182.376,-124 172.376,-120.5 172.376,-127.5"/>
</g>
<!-- Node9 -->
<g id="node22" class="node"><title>Node9</title>
<a xlink:href="class_a_r_drone.html#aa978fd9336466eb938ac12b774adc8d6" target="_top" xlink:title="Demande d&#39;atterrissage.">
<polygon fill="white" stroke="black" points="188.5,-38.5 188.5,-57.5 269.5,-57.5 269.5,-38.5 188.5,-38.5"/>
<text text-anchor="middle" x="229" y="-45.5" font-family="Helvetica,sans-Serif" font-size="10.00">ARDrone::land</text>
</a>
</g>
<!-- Node1&#45;&gt;Node9 -->
<g id="edge26" class="edge"><title>Node1&#45;&gt;Node9</title>
<path fill="none" stroke="midnightblue" d="M93.5042,-114.375C120.234,-101.183 168.44,-77.3932 199.295,-62.166"/>
<polygon fill="midnightblue" stroke="midnightblue" points="201.236,-65.1115 208.654,-57.5473 198.138,-58.8342 201.236,-65.1115"/>
</g>
<!-- Node7 -->
<g id="node13" class="node"><title>Node7</title>
<a xlink:href="class_a_r_drone.html#a534090497b9f3a959218e2edfe8cda25" target="_top" xlink:title="Envoyer une commande AT.">
<polygon fill="white" stroke="black" points="331.5,-38.5 331.5,-57.5 428.5,-57.5 428.5,-38.5 331.5,-38.5"/>
<text text-anchor="middle" x="380" y="-45.5" font-family="Helvetica,sans-Serif" font-size="10.00">ARDrone::sendAT</text>
</a>
</g>
<!-- Node6&#45;&gt;Node7 -->
<g id="edge12" class="edge"><title>Node6&#45;&gt;Node7</title>
<path fill="none" stroke="midnightblue" d="M267.599,-19.589C287.084,-24.5583 311.075,-30.6767 331.796,-35.9613"/>
<polygon fill="midnightblue" stroke="midnightblue" points="331.117,-39.4001 341.671,-38.4799 332.846,-32.6172 331.117,-39.4001"/>
</g>
<!-- Node8&#45;&gt;Node2 -->
<g id="edge18" class="edge"><title>Node8&#45;&gt;Node2</title>
<path fill="none" stroke="midnightblue" d="M236.56,-133.502C249.202,-151.152 278.655,-189.178 312,-211 318.542,-215.281 325.944,-218.913 333.381,-221.954"/>
<polygon fill="midnightblue" stroke="midnightblue" points="332.166,-225.236 342.757,-225.494 334.639,-218.687 332.166,-225.236"/>
</g>
<!-- Node8&#45;&gt;Node3 -->
<g id="edge20" class="edge"><title>Node8&#45;&gt;Node3</title>
<path fill="none" stroke="midnightblue" d="M248.743,-133.527C265.269,-141.835 290.064,-154.076 312,-164 322.905,-168.933 334.936,-174.058 345.758,-178.555"/>
<polygon fill="midnightblue" stroke="midnightblue" points="344.711,-181.909 355.29,-182.483 347.379,-175.437 344.711,-181.909"/>
</g>
<!-- Node8&#45;&gt;Node4 -->
<g id="edge22" class="edge"><title>Node8&#45;&gt;Node4</title>
<path fill="none" stroke="midnightblue" d="M275.515,-130.415C284.062,-131.619 293.213,-132.909 302.406,-134.205"/>
<polygon fill="midnightblue" stroke="midnightblue" points="301.981,-137.679 312.372,-135.609 302.958,-130.748 301.981,-137.679"/>
</g>
<!-- Node8&#45;&gt;Node5 -->
<g id="edge24" class="edge"><title>Node8&#45;&gt;Node5</title>
<path fill="none" stroke="midnightblue" d="M269.538,-114.447C287.966,-109.995 310.084,-104.651 329.601,-99.9354"/>
<polygon fill="midnightblue" stroke="midnightblue" points="330.638,-103.286 339.536,-97.5349 328.994,-96.4814 330.638,-103.286"/>
</g>
<!-- Node8&#45;&gt;Node7 -->
<g id="edge16" class="edge"><title>Node8&#45;&gt;Node7</title>
<path fill="none" stroke="midnightblue" d="M241.838,-114.449C257.214,-102.434 285.262,-81.8262 312,-69 318.277,-65.9891 325.087,-63.2764 331.881,-60.8788"/>
<polygon fill="midnightblue" stroke="midnightblue" points="333.375,-64.0706 341.759,-57.5934 331.166,-57.4284 333.375,-64.0706"/>
</g>
<!-- Node9&#45;&gt;Node7 -->
<g id="edge28" class="edge"><title>Node9&#45;&gt;Node7</title>
<path fill="none" stroke="midnightblue" d="M269.538,-48C285.394,-48 303.981,-48 321.293,-48"/>
<polygon fill="midnightblue" stroke="midnightblue" points="321.308,-51.5001 331.308,-48 321.308,-44.5001 321.308,-51.5001"/>
</g>
</g>
</svg>
