<?xml version="1.0" encoding="UTF-8" standalone="no"?>
<!DOCTYPE svg PUBLIC "-//W3C//DTD SVG 1.1//EN"
 "http://www.w3.org/Graphics/SVG/1.1/DTD/svg11.dtd">
<!-- Generated by graphviz version 2.28.0 (20121221.0049)
 -->
<!-- Title: navdataWindow::navdataWindow Pages: 1 -->
<svg width="476pt" height="66pt"
 viewBox="0.00 0.00 476.00 66.00" xmlns="http://www.w3.org/2000/svg" xmlns:xlink="http://www.w3.org/1999/xlink">
<g id="graph1" class="graph" transform="scale(1 1) rotate(0) translate(4 62)">
<title>navdataWindow::navdataWindow</title>
<polygon fill="white" stroke="white" points="-4,5 -4,-62 473,-62 473,5 -4,5"/>
<!-- Node1 -->
<g id="node1" class="node"><title>Node1</title>
<polygon fill="#bfbfbf" stroke="black" points="0,-19.5 0,-38.5 162,-38.5 162,-19.5 0,-19.5"/>
<text text-anchor="middle" x="81" y="-26.5" font-family="Helvetica,sans-Serif" font-size="10.00">navdataWindow::navdataWindow</text>
</g>
<!-- Node2 -->
<g id="node3" class="node"><title>Node2</title>
<a xlink:href="class_a_r_drone.html#a2fe1afa1efc4ed2306fba14eb9295ebe" target="_top" xlink:title="Initialise la connexion au drone.">
<polygon fill="white" stroke="black" points="198.5,-38.5 198.5,-57.5 333.5,-57.5 333.5,-38.5 198.5,-38.5"/>
<text text-anchor="middle" x="266" y="-45.5" font-family="Helvetica,sans-Serif" font-size="10.00">ARDrone::connectToDrone</text>
</a>
</g>
<!-- Node1&#45;&gt;Node2 -->
<g id="edge2" class="edge"><title>Node1&#45;&gt;Node2</title>
<path fill="none" stroke="midnightblue" d="M162,-37.306C170.71,-38.2104 179.562,-39.1293 188.232,-40.0295"/>
<polygon fill="midnightblue" stroke="midnightblue" points="187.999,-43.5241 198.307,-41.0756 188.722,-36.5615 187.999,-43.5241"/>
</g>
<!-- Node3 -->
<g id="node5" class="node"><title>Node3</title>
<a xlink:href="class_a_r_drone.html#ae1a1249d580e6fcd235ac0e171987948" target="_top" xlink:title="Initialise le fux de données.">
<polygon fill="white" stroke="black" points="208.5,-0.5 208.5,-19.5 323.5,-19.5 323.5,-0.5 208.5,-0.5"/>
<text text-anchor="middle" x="266" y="-7.5" font-family="Helvetica,sans-Serif" font-size="10.00">ARDrone::initNavData</text>
</a>
</g>
<!-- Node1&#45;&gt;Node3 -->
<g id="edge4" class="edge"><title>Node1&#45;&gt;Node3</title>
<path fill="none" stroke="midnightblue" d="M162,-20.694C174.051,-19.4428 186.372,-18.1636 198.109,-16.9449"/>
<polygon fill="midnightblue" stroke="midnightblue" points="198.667,-20.4059 208.252,-15.8918 197.944,-13.4433 198.667,-20.4059"/>
</g>
<!-- Node4 -->
<g id="node7" class="node"><title>Node4</title>
<a xlink:href="class_a_r_drone.html#a534090497b9f3a959218e2edfe8cda25" target="_top" xlink:title="Envoyer une commande AT.">
<polygon fill="white" stroke="black" points="370.5,-0.5 370.5,-19.5 467.5,-19.5 467.5,-0.5 370.5,-0.5"/>
<text text-anchor="middle" x="419" y="-7.5" font-family="Helvetica,sans-Serif" font-size="10.00">ARDrone::sendAT</text>
</a>
</g>
<!-- Node3&#45;&gt;Node4 -->
<g id="edge6" class="edge"><title>Node3&#45;&gt;Node4</title>
<path fill="none" stroke="midnightblue" d="M323.656,-10C335.566,-10 348.144,-10 360.098,-10"/>
<polygon fill="midnightblue" stroke="midnightblue" points="360.411,-13.5001 370.41,-10 360.41,-6.5001 360.411,-13.5001"/>
</g>
</g>
</svg>
