<?xml version="1.0" encoding="UTF-8" standalone="no"?>
<!DOCTYPE svg PUBLIC "-//W3C//DTD SVG 1.1//EN"
 "http://www.w3.org/Graphics/SVG/1.1/DTD/svg11.dtd">
<!-- Generated by graphviz version 2.28.0 (20121221.0049)
 -->
<!-- Title: navdataWindow Pages: 1 -->
<svg width="593pt" height="466pt"
 viewBox="0.00 0.00 593.00 466.00" xmlns="http://www.w3.org/2000/svg" xmlns:xlink="http://www.w3.org/1999/xlink">
<g id="graph1" class="graph" transform="scale(1 1) rotate(0) translate(4 462)">
<title>navdataWindow</title>
<polygon fill="white" stroke="white" points="-4,5 -4,-462 590,-462 590,5 -4,5"/>
<!-- Node1 -->
<g id="node1" class="node"><title>Node1</title>
<polygon fill="#bfbfbf" stroke="black" points="91.5,-1 91.5,-69 198.5,-69 198.5,-1 91.5,-1"/>
<text text-anchor="middle" x="145" y="-57" font-family="Helvetica,sans-Serif" font-size="10.00">navdataWindow</text>
<polyline fill="none" stroke="black" points="91.5,-50 198.5,-50 "/>
<text text-anchor="middle" x="145" y="-38" font-family="Helvetica,sans-Serif" font-size="10.00"> </text>
<polyline fill="none" stroke="black" points="91.5,-31 198.5,-31 "/>
<text text-anchor="start" x="99.5" y="-19" font-family="Helvetica,sans-Serif" font-size="10.00">+ navdataWindow()</text>
<text text-anchor="start" x="99.5" y="-8" font-family="Helvetica,sans-Serif" font-size="10.00">+ ~navdataWindow()</text>
</g>
<!-- Node2 -->
<g id="node2" class="node"><title>Node2</title>
<a xlink:href="class_q_main_window.html" target="_top" xlink:title="{QMainWindow\n||}">
<polygon fill="white" stroke="black" points="0,-190.5 0,-247.5 80,-247.5 80,-190.5 0,-190.5"/>
<text text-anchor="middle" x="40" y="-235.5" font-family="Helvetica,sans-Serif" font-size="10.00">QMainWindow</text>
<polyline fill="none" stroke="black" points="0,-228.5 80,-228.5 "/>
<text text-anchor="middle" x="40" y="-216.5" font-family="Helvetica,sans-Serif" font-size="10.00"> </text>
<polyline fill="none" stroke="black" points="0,-209.5 80,-209.5 "/>
<text text-anchor="middle" x="40" y="-197.5" font-family="Helvetica,sans-Serif" font-size="10.00"> </text>
</a>
</g>
<!-- Node2&#45;&gt;Node1 -->
<g id="edge2" class="edge"><title>Node2&#45;&gt;Node1</title>
<path fill="none" stroke="midnightblue" d="M56.5798,-180.993C65.5446,-161.845 77.1802,-138.294 89,-118 98.6306,-101.465 110.438,-83.8523 120.724,-69.2055"/>
<polygon fill="none" stroke="midnightblue" points="53.3036,-179.738 52.2767,-190.283 59.6554,-182.68 53.3036,-179.738"/>
</g>
<!-- Node3 -->
<g id="node4" class="node"><title>Node3</title>
<polygon fill="white" stroke="#bfbfbf" points="98.5,-190.5 98.5,-247.5 191.5,-247.5 191.5,-190.5 98.5,-190.5"/>
<text text-anchor="middle" x="145" y="-235.5" font-family="Helvetica,sans-Serif" font-size="10.00">navdataWindow *</text>
<polyline fill="none" stroke="#bfbfbf" points="98.5,-228.5 191.5,-228.5 "/>
<text text-anchor="middle" x="145" y="-216.5" font-family="Helvetica,sans-Serif" font-size="10.00"> </text>
<polyline fill="none" stroke="#bfbfbf" points="98.5,-209.5 191.5,-209.5 "/>
<text text-anchor="middle" x="145" y="-197.5" font-family="Helvetica,sans-Serif" font-size="10.00"> </text>
</g>
<!-- Node3&#45;&gt;Node1 -->
<g id="edge4" class="edge"><title>Node3&#45;&gt;Node1</title>
<path fill="none" stroke="#404040" d="M145,-190.358C145,-161.397 145,-115.44 145,-81.1929"/>
<polygon fill="none" stroke="#404040" points="145,-81.1584 141,-75.1585 145,-69.1584 149,-75.1584 145,-81.1584"/>
<text text-anchor="middle" x="152" y="-91.5" font-family="Helvetica,sans-Serif" font-size="10.00"> &#45;ui</text>
</g>
<!-- Node4 -->
<g id="node6" class="node"><title>Node4</title>
<a xlink:href="class_a_r_drone.html" target="_top" xlink:title="{ARDrone\n||+ ARDrone()\l+ connectToDrone()\l+ initDrone()\l+ initNavData()\l+ takeoff()\l+ land()\l+ aru()\l+ volCommand()\l+ setGoUpDown()\l+ setTurnLeftRight()\l+ setTiltFrontBack()\l+ setTiltLeftRight()\l&#45; sendAT()\l&#45; run()\l}">
<polygon fill="white" stroke="black" points="210,-119 210,-319 314,-319 314,-119 210,-119"/>
<text text-anchor="middle" x="262" y="-307" font-family="Helvetica,sans-Serif" font-size="10.00">ARDrone</text>
<polyline fill="none" stroke="black" points="210,-300 314,-300 "/>
<text text-anchor="middle" x="262" y="-288" font-family="Helvetica,sans-Serif" font-size="10.00"> </text>
<polyline fill="none" stroke="black" points="210,-281 314,-281 "/>
<text text-anchor="start" x="218" y="-269" font-family="Helvetica,sans-Serif" font-size="10.00">+ ARDrone()</text>
<text text-anchor="start" x="218" y="-258" font-family="Helvetica,sans-Serif" font-size="10.00">+ connectToDrone()</text>
<text text-anchor="start" x="218" y="-247" font-family="Helvetica,sans-Serif" font-size="10.00">+ initDrone()</text>
<text text-anchor="start" x="218" y="-236" font-family="Helvetica,sans-Serif" font-size="10.00">+ initNavData()</text>
<text text-anchor="start" x="218" y="-225" font-family="Helvetica,sans-Serif" font-size="10.00">+ takeoff()</text>
<text text-anchor="start" x="218" y="-214" font-family="Helvetica,sans-Serif" font-size="10.00">+ land()</text>
<text text-anchor="start" x="218" y="-203" font-family="Helvetica,sans-Serif" font-size="10.00">+ aru()</text>
<text text-anchor="start" x="218" y="-192" font-family="Helvetica,sans-Serif" font-size="10.00">+ volCommand()</text>
<text text-anchor="start" x="218" y="-181" font-family="Helvetica,sans-Serif" font-size="10.00">+ setGoUpDown()</text>
<text text-anchor="start" x="218" y="-170" font-family="Helvetica,sans-Serif" font-size="10.00">+ setTurnLeftRight()</text>
<text text-anchor="start" x="218" y="-159" font-family="Helvetica,sans-Serif" font-size="10.00">+ setTiltFrontBack()</text>
<text text-anchor="start" x="218" y="-148" font-family="Helvetica,sans-Serif" font-size="10.00">+ setTiltLeftRight()</text>
<text text-anchor="start" x="218" y="-137" font-family="Helvetica,sans-Serif" font-size="10.00">&#45; sendAT()</text>
<text text-anchor="start" x="218" y="-126" font-family="Helvetica,sans-Serif" font-size="10.00">&#45; run()</text>
</a>
</g>
<!-- Node4&#45;&gt;Node1 -->
<g id="edge6" class="edge"><title>Node4&#45;&gt;Node1</title>
<path fill="none" stroke="#404040" d="M209.951,-133.57C206.604,-128.289 203.267,-123.064 200,-118 191.869,-105.396 182.871,-91.8281 174.549,-79.428"/>
<polygon fill="none" stroke="#404040" points="174.454,-79.2867 167.784,-76.5444 167.751,-69.3333 174.42,-72.0757 174.454,-79.2867"/>
<text text-anchor="middle" x="220" y="-91.5" font-family="Helvetica,sans-Serif" font-size="10.00"> &#45;navdataFlow</text>
</g>
<!-- Node5 -->
<g id="node8" class="node"><title>Node5</title>
<a xlink:href="class_q_thread.html" target="_top" xlink:title="{QThread\n||}">
<polygon fill="white" stroke="black" points="4,-400.5 4,-457.5 58,-457.5 58,-400.5 4,-400.5"/>
<text text-anchor="middle" x="31" y="-445.5" font-family="Helvetica,sans-Serif" font-size="10.00">QThread</text>
<polyline fill="none" stroke="black" points="4,-438.5 58,-438.5 "/>
<text text-anchor="middle" x="31" y="-426.5" font-family="Helvetica,sans-Serif" font-size="10.00"> </text>
<polyline fill="none" stroke="black" points="4,-419.5 58,-419.5 "/>
<text text-anchor="middle" x="31" y="-407.5" font-family="Helvetica,sans-Serif" font-size="10.00"> </text>
</a>
</g>
<!-- Node5&#45;&gt;Node4 -->
<g id="edge8" class="edge"><title>Node5&#45;&gt;Node4</title>
<path fill="none" stroke="midnightblue" d="M51.1886,-391.853C63.6651,-372.872 81.4164,-350.931 103,-338 140.613,-315.465 163.803,-344.745 200,-320 203.373,-317.694 206.597,-315.139 209.675,-312.386"/>
<polygon fill="none" stroke="midnightblue" points="48.2194,-390 45.8325,-400.322 54.1356,-393.741 48.2194,-390"/>
</g>
<!-- Node6 -->
<g id="node10" class="node"><title>Node6</title>
<polygon fill="white" stroke="#bfbfbf" points="76,-400.5 76,-457.5 126,-457.5 126,-400.5 76,-400.5"/>
<text text-anchor="middle" x="101" y="-445.5" font-family="Helvetica,sans-Serif" font-size="10.00">QString</text>
<polyline fill="none" stroke="#bfbfbf" points="76,-438.5 126,-438.5 "/>
<text text-anchor="middle" x="101" y="-426.5" font-family="Helvetica,sans-Serif" font-size="10.00"> </text>
<polyline fill="none" stroke="#bfbfbf" points="76,-419.5 126,-419.5 "/>
<text text-anchor="middle" x="101" y="-407.5" font-family="Helvetica,sans-Serif" font-size="10.00"> </text>
</g>
<!-- Node6&#45;&gt;Node4 -->
<g id="edge10" class="edge"><title>Node6&#45;&gt;Node4</title>
<path fill="none" stroke="#404040" d="M102.275,-400.289C104.679,-380.302 111.126,-354.107 128,-338 151.859,-315.224 173.355,-339.443 200,-320 200.217,-319.842 200.433,-319.683 200.648,-319.523"/>
<polygon fill="none" stroke="#404040" points="200.762,-319.427 202.777,-312.503 209.943,-311.699 207.929,-318.623 200.762,-319.427"/>
<text text-anchor="middle" x="155.5" y="-363" font-family="Helvetica,sans-Serif" font-size="10.00"> &#45;bufferRight</text>
<text text-anchor="middle" x="155.5" y="-352" font-family="Helvetica,sans-Serif" font-size="10.00">&#45;bufferLeft</text>
</g>
<!-- Node7 -->
<g id="node12" class="node"><title>Node7</title>
<polygon fill="white" stroke="#bfbfbf" points="161.5,-400.5 161.5,-457.5 196.5,-457.5 196.5,-400.5 161.5,-400.5"/>
<text text-anchor="middle" x="179" y="-445.5" font-family="Helvetica,sans-Serif" font-size="10.00">float</text>
<polyline fill="none" stroke="#bfbfbf" points="161.5,-438.5 196.5,-438.5 "/>
<text text-anchor="middle" x="179" y="-426.5" font-family="Helvetica,sans-Serif" font-size="10.00"> </text>
<polyline fill="none" stroke="#bfbfbf" points="161.5,-419.5 196.5,-419.5 "/>
<text text-anchor="middle" x="179" y="-407.5" font-family="Helvetica,sans-Serif" font-size="10.00"> </text>
</g>
<!-- Node7&#45;&gt;Node4 -->
<g id="edge12" class="edge"><title>Node7&#45;&gt;Node4</title>
<path fill="none" stroke="#404040" d="M182.733,-400.248C185.68,-382.155 190.557,-358.233 198,-338 200.108,-332.269 202.456,-326.475 204.971,-320.69"/>
<polygon fill="none" stroke="#404040" points="205.044,-320.529 203.876,-313.413 209.996,-309.598 211.164,-316.714 205.044,-320.529"/>
<text text-anchor="middle" x="228" y="-374" font-family="Helvetica,sans-Serif" font-size="10.00"> &#45;tiltLeftRight</text>
<text text-anchor="middle" x="228" y="-363" font-family="Helvetica,sans-Serif" font-size="10.00">&#45;goUpDown</text>
<text text-anchor="middle" x="228" y="-352" font-family="Helvetica,sans-Serif" font-size="10.00">&#45;tiltFrontBack</text>
<text text-anchor="middle" x="228" y="-341" font-family="Helvetica,sans-Serif" font-size="10.00">&#45;turnLeftRight</text>
</g>
<!-- Node8 -->
<g id="node14" class="node"><title>Node8</title>
<polygon fill="white" stroke="#bfbfbf" points="247.5,-400.5 247.5,-457.5 276.5,-457.5 276.5,-400.5 247.5,-400.5"/>
<text text-anchor="middle" x="262" y="-445.5" font-family="Helvetica,sans-Serif" font-size="10.00">int</text>
<polyline fill="none" stroke="#bfbfbf" points="247.5,-438.5 276.5,-438.5 "/>
<text text-anchor="middle" x="262" y="-426.5" font-family="Helvetica,sans-Serif" font-size="10.00"> </text>
<polyline fill="none" stroke="#bfbfbf" points="247.5,-419.5 276.5,-419.5 "/>
<text text-anchor="middle" x="262" y="-407.5" font-family="Helvetica,sans-Serif" font-size="10.00"> </text>
</g>
<!-- Node8&#45;&gt;Node4 -->
<g id="edge14" class="edge"><title>Node8&#45;&gt;Node4</title>
<path fill="none" stroke="#404040" d="M262,-400.379C262,-382.253 262,-357.229 262,-331.586"/>
<polygon fill="none" stroke="#404040" points="262,-331.381 258,-325.381 262,-319.381 266,-325.381 262,-331.381"/>
<text text-anchor="middle" x="292" y="-368.5" font-family="Helvetica,sans-Serif" font-size="10.00"> &#45;port_at</text>
<text text-anchor="middle" x="292" y="-357.5" font-family="Helvetica,sans-Serif" font-size="10.00">&#45;ident</text>
<text text-anchor="middle" x="292" y="-346.5" font-family="Helvetica,sans-Serif" font-size="10.00">&#45;port_navdata</text>
</g>
<!-- Node9 -->
<g id="node16" class="node"><title>Node9</title>
<polygon fill="white" stroke="#bfbfbf" points="305,-400.5 305,-457.5 385,-457.5 385,-400.5 305,-400.5"/>
<text text-anchor="middle" x="345" y="-445.5" font-family="Helvetica,sans-Serif" font-size="10.00">QUdpSocket *</text>
<polyline fill="none" stroke="#bfbfbf" points="305,-438.5 385,-438.5 "/>
<text text-anchor="middle" x="345" y="-426.5" font-family="Helvetica,sans-Serif" font-size="10.00"> </text>
<polyline fill="none" stroke="#bfbfbf" points="305,-419.5 385,-419.5 "/>
<text text-anchor="middle" x="345" y="-407.5" font-family="Helvetica,sans-Serif" font-size="10.00"> </text>
</g>
<!-- Node9&#45;&gt;Node4 -->
<g id="edge16" class="edge"><title>Node9&#45;&gt;Node4</title>
<path fill="none" stroke="#404040" d="M340.007,-400.316C336.319,-382.251 330.618,-358.335 323,-338 321.707,-334.548 320.337,-331.067 318.906,-327.574"/>
<polygon fill="none" stroke="#404040" points="318.849,-327.439 312.816,-323.488 314.143,-316.4 320.175,-320.351 318.849,-327.439"/>
<text text-anchor="middle" x="382.5" y="-363" font-family="Helvetica,sans-Serif" font-size="10.00"> &#45;udpSocket_navdata</text>
<text text-anchor="middle" x="382.5" y="-352" font-family="Helvetica,sans-Serif" font-size="10.00">&#45;udpSocket_at</text>
</g>
<!-- Node10 -->
<g id="node18" class="node"><title>Node10</title>
<polygon fill="white" stroke="#bfbfbf" points="443.5,-400.5 443.5,-457.5 478.5,-457.5 478.5,-400.5 443.5,-400.5"/>
<text text-anchor="middle" x="461" y="-445.5" font-family="Helvetica,sans-Serif" font-size="10.00">bool</text>
<polyline fill="none" stroke="#bfbfbf" points="443.5,-438.5 478.5,-438.5 "/>
<text text-anchor="middle" x="461" y="-426.5" font-family="Helvetica,sans-Serif" font-size="10.00"> </text>
<polyline fill="none" stroke="#bfbfbf" points="443.5,-419.5 478.5,-419.5 "/>
<text text-anchor="middle" x="461" y="-407.5" font-family="Helvetica,sans-Serif" font-size="10.00"> </text>
</g>
<!-- Node10&#45;&gt;Node4 -->
<g id="edge18" class="edge"><title>Node10&#45;&gt;Node4</title>
<path fill="none" stroke="#404040" d="M457.246,-400.268C453.574,-381.281 446.477,-356.323 433,-338 405.206,-300.214 361.522,-270.367 325.265,-250.144"/>
<polygon fill="none" stroke="#404040" points="324.823,-249.904 317.642,-250.557 314.277,-244.179 321.459,-243.526 324.823,-249.904"/>
<text text-anchor="middle" x="460.5" y="-357.5" font-family="Helvetica,sans-Serif" font-size="10.00"> &#45;fly</text>
</g>
<!-- Node11 -->
<g id="node20" class="node"><title>Node11</title>
<polygon fill="white" stroke="#bfbfbf" points="497,-400.5 497,-457.5 585,-457.5 585,-400.5 497,-400.5"/>
<text text-anchor="middle" x="541" y="-445.5" font-family="Helvetica,sans-Serif" font-size="10.00">QHostAddress *</text>
<polyline fill="none" stroke="#bfbfbf" points="497,-438.5 585,-438.5 "/>
<text text-anchor="middle" x="541" y="-426.5" font-family="Helvetica,sans-Serif" font-size="10.00"> </text>
<polyline fill="none" stroke="#bfbfbf" points="497,-419.5 585,-419.5 "/>
<text text-anchor="middle" x="541" y="-407.5" font-family="Helvetica,sans-Serif" font-size="10.00"> </text>
</g>
<!-- Node11&#45;&gt;Node4 -->
<g id="edge20" class="edge"><title>Node11&#45;&gt;Node4</title>
<path fill="none" stroke="#404040" d="M524.499,-400.405C512.069,-381.241 493.669,-356.013 473,-338 428.662,-299.361 369.645,-267.667 325.302,-246.892"/>
<polygon fill="none" stroke="#404040" points="325.26,-246.873 318.137,-247.993 314.363,-241.848 321.487,-240.728 325.26,-246.873"/>
<text text-anchor="middle" x="523.5" y="-357.5" font-family="Helvetica,sans-Serif" font-size="10.00"> &#45;host</text>
</g>
</g>
</svg>
