<?xml version="1.0" encoding="UTF-8" standalone="no"?>
<!DOCTYPE svg PUBLIC "-//W3C//DTD SVG 1.1//EN"
 "http://www.w3.org/Graphics/SVG/1.1/DTD/svg11.dtd">
<!-- Generated by graphviz version 2.28.0 (20121221.0049)
 -->
<!-- Title: MainWindow Pages: 1 -->
<svg width="606pt" height="738pt"
 viewBox="0.00 0.00 606.00 738.00" xmlns="http://www.w3.org/2000/svg" xmlns:xlink="http://www.w3.org/1999/xlink">
<g id="graph1" class="graph" transform="scale(1 1) rotate(0) translate(4 734)">
<title>MainWindow</title>
<polygon fill="white" stroke="white" points="-4,5 -4,-734 603,-734 603,5 -4,5"/>
<!-- Node1 -->
<g id="node1" class="node"><title>Node1</title>
<polygon fill="#bfbfbf" stroke="black" points="253.5,-1 253.5,-223 400.5,-223 400.5,-1 253.5,-1"/>
<text text-anchor="middle" x="327" y="-211" font-family="Helvetica,sans-Serif" font-size="10.00">MainWindow</text>
<polyline fill="none" stroke="black" points="253.5,-204 400.5,-204 "/>
<text text-anchor="middle" x="327" y="-192" font-family="Helvetica,sans-Serif" font-size="10.00"> </text>
<polyline fill="none" stroke="black" points="253.5,-185 400.5,-185 "/>
<text text-anchor="start" x="261.5" y="-173" font-family="Helvetica,sans-Serif" font-size="10.00">+ MainWindow()</text>
<text text-anchor="start" x="261.5" y="-162" font-family="Helvetica,sans-Serif" font-size="10.00">+ ~MainWindow()</text>
<text text-anchor="start" x="261.5" y="-151" font-family="Helvetica,sans-Serif" font-size="10.00">&#45; keyPressEvent()</text>
<text text-anchor="start" x="261.5" y="-140" font-family="Helvetica,sans-Serif" font-size="10.00">&#45; keyReleaseEvent()</text>
<text text-anchor="start" x="261.5" y="-129" font-family="Helvetica,sans-Serif" font-size="10.00">&#45; on_btnKeyboardMode</text>
<text text-anchor="start" x="261.5" y="-118" font-family="Helvetica,sans-Serif" font-size="10.00">_clicked()</text>
<text text-anchor="start" x="261.5" y="-107" font-family="Helvetica,sans-Serif" font-size="10.00">&#45; on_btnMouseMode_clicked()</text>
<text text-anchor="start" x="261.5" y="-96" font-family="Helvetica,sans-Serif" font-size="10.00">&#45; on_btnUp_clicked()</text>
<text text-anchor="start" x="261.5" y="-85" font-family="Helvetica,sans-Serif" font-size="10.00">&#45; on_btnStat_clicked()</text>
<text text-anchor="start" x="261.5" y="-74" font-family="Helvetica,sans-Serif" font-size="10.00">&#45; on_btnStat1_clicked()</text>
<text text-anchor="start" x="261.5" y="-63" font-family="Helvetica,sans-Serif" font-size="10.00">&#45; on_btnLeft_clicked()</text>
<text text-anchor="start" x="261.5" y="-52" font-family="Helvetica,sans-Serif" font-size="10.00">&#45; on_btnRight_clicked()</text>
<text text-anchor="start" x="261.5" y="-41" font-family="Helvetica,sans-Serif" font-size="10.00">&#45; on_btnDown_clicked()</text>
<text text-anchor="start" x="261.5" y="-30" font-family="Helvetica,sans-Serif" font-size="10.00">&#45; on_btnFront_clicked()</text>
<text text-anchor="start" x="261.5" y="-19" font-family="Helvetica,sans-Serif" font-size="10.00">&#45; on_btnBack_clicked()</text>
<text text-anchor="start" x="261.5" y="-8" font-family="Helvetica,sans-Serif" font-size="10.00">and 6 more...</text>
</g>
<!-- Node2 -->
<g id="node2" class="node"><title>Node2</title>
<a xlink:href="class_q_main_window.html" target="_top" xlink:title="{QMainWindow\n||}">
<polygon fill="white" stroke="black" points="65,-462.5 65,-519.5 145,-519.5 145,-462.5 65,-462.5"/>
<text text-anchor="middle" x="105" y="-507.5" font-family="Helvetica,sans-Serif" font-size="10.00">QMainWindow</text>
<polyline fill="none" stroke="black" points="65,-500.5 145,-500.5 "/>
<text text-anchor="middle" x="105" y="-488.5" font-family="Helvetica,sans-Serif" font-size="10.00"> </text>
<polyline fill="none" stroke="black" points="65,-481.5 145,-481.5 "/>
<text text-anchor="middle" x="105" y="-469.5" font-family="Helvetica,sans-Serif" font-size="10.00"> </text>
</a>
</g>
<!-- Node2&#45;&gt;Node1 -->
<g id="edge2" class="edge"><title>Node2&#45;&gt;Node1</title>
<path fill="none" stroke="midnightblue" d="M111.249,-452.163C119.941,-406.864 138.632,-329.873 173,-272 194.192,-236.315 224.912,-202.44 253.349,-175.2"/>
<polygon fill="none" stroke="midnightblue" points="107.78,-451.677 109.398,-462.148 114.663,-452.953 107.78,-451.677"/>
</g>
<!-- Node3 -->
<g id="node4" class="node"><title>Node3</title>
<a xlink:href="classnavdata_window.html" target="_top" xlink:title="{navdataWindow\n||+ navdataWindow()\l+ ~navdataWindow()\l}">
<polygon fill="white" stroke="black" points="182.5,-273 182.5,-341 289.5,-341 289.5,-273 182.5,-273"/>
<text text-anchor="middle" x="236" y="-329" font-family="Helvetica,sans-Serif" font-size="10.00">navdataWindow</text>
<polyline fill="none" stroke="black" points="182.5,-322 289.5,-322 "/>
<text text-anchor="middle" x="236" y="-310" font-family="Helvetica,sans-Serif" font-size="10.00"> </text>
<polyline fill="none" stroke="black" points="182.5,-303 289.5,-303 "/>
<text text-anchor="start" x="190.5" y="-291" font-family="Helvetica,sans-Serif" font-size="10.00">+ navdataWindow()</text>
<text text-anchor="start" x="190.5" y="-280" font-family="Helvetica,sans-Serif" font-size="10.00">+ ~navdataWindow()</text>
</a>
</g>
<!-- Node2&#45;&gt;Node3 -->
<g id="edge6" class="edge"><title>Node2&#45;&gt;Node3</title>
<path fill="none" stroke="midnightblue" d="M119.582,-453.095C128.177,-433.479 140.089,-409.465 154,-390 166.526,-372.474 182.906,-355.273 197.73,-341.188"/>
<polygon fill="none" stroke="midnightblue" points="116.346,-451.761 115.635,-462.332 122.783,-454.512 116.346,-451.761"/>
</g>
<!-- Node3&#45;&gt;Node1 -->
<g id="edge4" class="edge"><title>Node3&#45;&gt;Node1</title>
<path fill="none" stroke="#404040" d="M251.643,-272.822C256.948,-261.571 263.222,-248.264 269.85,-234.208"/>
<polygon fill="none" stroke="#404040" points="269.86,-234.188 268.8,-227.055 274.977,-223.334 276.036,-230.467 269.86,-234.188"/>
<text text-anchor="middle" x="288" y="-245.5" font-family="Helvetica,sans-Serif" font-size="10.00"> +navdata</text>
</g>
<!-- Node4 -->
<g id="node7" class="node"><title>Node4</title>
<polygon fill="white" stroke="#bfbfbf" points="163.5,-462.5 163.5,-519.5 256.5,-519.5 256.5,-462.5 163.5,-462.5"/>
<text text-anchor="middle" x="210" y="-507.5" font-family="Helvetica,sans-Serif" font-size="10.00">navdataWindow *</text>
<polyline fill="none" stroke="#bfbfbf" points="163.5,-500.5 256.5,-500.5 "/>
<text text-anchor="middle" x="210" y="-488.5" font-family="Helvetica,sans-Serif" font-size="10.00"> </text>
<polyline fill="none" stroke="#bfbfbf" points="163.5,-481.5 256.5,-481.5 "/>
<text text-anchor="middle" x="210" y="-469.5" font-family="Helvetica,sans-Serif" font-size="10.00"> </text>
</g>
<!-- Node4&#45;&gt;Node3 -->
<g id="edge8" class="edge"><title>Node4&#45;&gt;Node3</title>
<path fill="none" stroke="#404040" d="M207.155,-462.468C205.169,-435.882 204.107,-394.664 212,-360 212.561,-357.538 213.246,-355.054 214.026,-352.574"/>
<polygon fill="none" stroke="#404040" points="214.098,-352.38 212.422,-345.366 218.252,-341.122 219.928,-348.136 214.098,-352.38"/>
<text text-anchor="middle" x="219" y="-363.5" font-family="Helvetica,sans-Serif" font-size="10.00"> &#45;ui</text>
</g>
<!-- Node5 -->
<g id="node9" class="node"><title>Node5</title>
<a xlink:href="class_a_r_drone.html" target="_top" xlink:title="{ARDrone\n||+ ARDrone()\l+ connectToDrone()\l+ initDrone()\l+ initNavData()\l+ takeoff()\l+ land()\l+ aru()\l+ volCommand()\l+ setGoUpDown()\l+ setTurnLeftRight()\l+ setTiltFrontBack()\l+ setTiltLeftRight()\l&#45; sendAT()\l&#45; run()\l}">
<polygon fill="white" stroke="black" points="275,-391 275,-591 379,-591 379,-391 275,-391"/>
<text text-anchor="middle" x="327" y="-579" font-family="Helvetica,sans-Serif" font-size="10.00">ARDrone</text>
<polyline fill="none" stroke="black" points="275,-572 379,-572 "/>
<text text-anchor="middle" x="327" y="-560" font-family="Helvetica,sans-Serif" font-size="10.00"> </text>
<polyline fill="none" stroke="black" points="275,-553 379,-553 "/>
<text text-anchor="start" x="283" y="-541" font-family="Helvetica,sans-Serif" font-size="10.00">+ ARDrone()</text>
<text text-anchor="start" x="283" y="-530" font-family="Helvetica,sans-Serif" font-size="10.00">+ connectToDrone()</text>
<text text-anchor="start" x="283" y="-519" font-family="Helvetica,sans-Serif" font-size="10.00">+ initDrone()</text>
<text text-anchor="start" x="283" y="-508" font-family="Helvetica,sans-Serif" font-size="10.00">+ initNavData()</text>
<text text-anchor="start" x="283" y="-497" font-family="Helvetica,sans-Serif" font-size="10.00">+ takeoff()</text>
<text text-anchor="start" x="283" y="-486" font-family="Helvetica,sans-Serif" font-size="10.00">+ land()</text>
<text text-anchor="start" x="283" y="-475" font-family="Helvetica,sans-Serif" font-size="10.00">+ aru()</text>
<text text-anchor="start" x="283" y="-464" font-family="Helvetica,sans-Serif" font-size="10.00">+ volCommand()</text>
<text text-anchor="start" x="283" y="-453" font-family="Helvetica,sans-Serif" font-size="10.00">+ setGoUpDown()</text>
<text text-anchor="start" x="283" y="-442" font-family="Helvetica,sans-Serif" font-size="10.00">+ setTurnLeftRight()</text>
<text text-anchor="start" x="283" y="-431" font-family="Helvetica,sans-Serif" font-size="10.00">+ setTiltFrontBack()</text>
<text text-anchor="start" x="283" y="-420" font-family="Helvetica,sans-Serif" font-size="10.00">+ setTiltLeftRight()</text>
<text text-anchor="start" x="283" y="-409" font-family="Helvetica,sans-Serif" font-size="10.00">&#45; sendAT()</text>
<text text-anchor="start" x="283" y="-398" font-family="Helvetica,sans-Serif" font-size="10.00">&#45; run()</text>
</a>
</g>
<!-- Node5&#45;&gt;Node1 -->
<g id="edge28" class="edge"><title>Node5&#45;&gt;Node1</title>
<path fill="none" stroke="#404040" d="M327,-390.948C327,-343.283 327,-285.684 327,-235.31"/>
<polygon fill="none" stroke="#404040" points="327,-235.006 323,-229.006 327,-223.006 331,-229.006 327,-235.006"/>
<text text-anchor="middle" x="342.5" y="-304.5" font-family="Helvetica,sans-Serif" font-size="10.00"> &#45;drone</text>
</g>
<!-- Node5&#45;&gt;Node3 -->
<g id="edge10" class="edge"><title>Node5&#45;&gt;Node3</title>
<path fill="none" stroke="#404040" d="M274.838,-404.499C271.562,-399.558 268.267,-394.695 265,-390 259.211,-381.681 255.368,-381.145 251,-372 248.141,-366.014 245.807,-359.448 243.907,-352.872"/>
<polygon fill="none" stroke="#404040" points="243.884,-352.782 238.532,-347.949 240.936,-341.15 246.287,-345.984 243.884,-352.782"/>
<text text-anchor="middle" x="282" y="-363.5" font-family="Helvetica,sans-Serif" font-size="10.00"> &#45;navdataFlow</text>
</g>
<!-- Node6 -->
<g id="node11" class="node"><title>Node6</title>
<a xlink:href="class_q_thread.html" target="_top" xlink:title="{QThread\n||}">
<polygon fill="white" stroke="black" points="139,-672.5 139,-729.5 193,-729.5 193,-672.5 139,-672.5"/>
<text text-anchor="middle" x="166" y="-717.5" font-family="Helvetica,sans-Serif" font-size="10.00">QThread</text>
<polyline fill="none" stroke="black" points="139,-710.5 193,-710.5 "/>
<text text-anchor="middle" x="166" y="-698.5" font-family="Helvetica,sans-Serif" font-size="10.00"> </text>
<polyline fill="none" stroke="black" points="139,-691.5 193,-691.5 "/>
<text text-anchor="middle" x="166" y="-679.5" font-family="Helvetica,sans-Serif" font-size="10.00"> </text>
</a>
</g>
<!-- Node6&#45;&gt;Node5 -->
<g id="edge12" class="edge"><title>Node6&#45;&gt;Node5</title>
<path fill="none" stroke="midnightblue" d="M181.226,-663.204C190.249,-645.157 203.225,-624.286 220,-610 236.399,-596.034 248.499,-605.846 265,-592 268.443,-589.111 271.751,-585.98 274.924,-582.671"/>
<polygon fill="none" stroke="midnightblue" points="178.017,-661.801 176.869,-672.334 184.335,-664.816 178.017,-661.801"/>
</g>
<!-- Node7 -->
<g id="node13" class="node"><title>Node7</title>
<polygon fill="white" stroke="#bfbfbf" points="0,-672.5 0,-729.5 50,-729.5 50,-672.5 0,-672.5"/>
<text text-anchor="middle" x="25" y="-717.5" font-family="Helvetica,sans-Serif" font-size="10.00">QString</text>
<polyline fill="none" stroke="#bfbfbf" points="0,-710.5 50,-710.5 "/>
<text text-anchor="middle" x="25" y="-698.5" font-family="Helvetica,sans-Serif" font-size="10.00"> </text>
<polyline fill="none" stroke="#bfbfbf" points="0,-691.5 50,-691.5 "/>
<text text-anchor="middle" x="25" y="-679.5" font-family="Helvetica,sans-Serif" font-size="10.00"> </text>
</g>
<!-- Node7&#45;&gt;Node5 -->
<g id="edge14" class="edge"><title>Node7&#45;&gt;Node5</title>
<path fill="none" stroke="#404040" d="M22.8181,-672.12C22.8875,-651.775 26.742,-625.198 44,-610 80.9791,-577.435 222.955,-617.693 265,-592 265.109,-591.933 265.218,-591.867 265.326,-591.799"/>
<polygon fill="none" stroke="#404040" points="265.239,-591.863 267.758,-585.106 274.964,-584.833 272.445,-591.59 265.239,-591.863"/>
<text text-anchor="middle" x="71.5" y="-635" font-family="Helvetica,sans-Serif" font-size="10.00"> &#45;bufferRight</text>
<text text-anchor="middle" x="71.5" y="-624" font-family="Helvetica,sans-Serif" font-size="10.00">&#45;bufferLeft</text>
</g>
<!-- Node8 -->
<g id="node15" class="node"><title>Node8</title>
<polygon fill="white" stroke="#bfbfbf" points="85.5,-672.5 85.5,-729.5 120.5,-729.5 120.5,-672.5 85.5,-672.5"/>
<text text-anchor="middle" x="103" y="-717.5" font-family="Helvetica,sans-Serif" font-size="10.00">float</text>
<polyline fill="none" stroke="#bfbfbf" points="85.5,-710.5 120.5,-710.5 "/>
<text text-anchor="middle" x="103" y="-698.5" font-family="Helvetica,sans-Serif" font-size="10.00"> </text>
<polyline fill="none" stroke="#bfbfbf" points="85.5,-691.5 120.5,-691.5 "/>
<text text-anchor="middle" x="103" y="-679.5" font-family="Helvetica,sans-Serif" font-size="10.00"> </text>
</g>
<!-- Node8&#45;&gt;Node5 -->
<g id="edge16" class="edge"><title>Node8&#45;&gt;Node5</title>
<path fill="none" stroke="#404040" d="M101.353,-672.309C101.766,-652.062 105.965,-625.526 123,-610 170.017,-567.146 211.474,-626.38 265,-592 265.107,-591.931 265.215,-591.862 265.322,-591.792"/>
<polygon fill="none" stroke="#404040" points="265.249,-591.847 267.641,-585.044 274.84,-584.635 272.448,-591.438 265.249,-591.847"/>
<text text-anchor="middle" x="153" y="-646" font-family="Helvetica,sans-Serif" font-size="10.00"> &#45;tiltLeftRight</text>
<text text-anchor="middle" x="153" y="-635" font-family="Helvetica,sans-Serif" font-size="10.00">&#45;goUpDown</text>
<text text-anchor="middle" x="153" y="-624" font-family="Helvetica,sans-Serif" font-size="10.00">&#45;tiltFrontBack</text>
<text text-anchor="middle" x="153" y="-613" font-family="Helvetica,sans-Serif" font-size="10.00">&#45;turnLeftRight</text>
</g>
<!-- Node9 -->
<g id="node17" class="node"><title>Node9</title>
<polygon fill="white" stroke="#bfbfbf" points="472.5,-672.5 472.5,-729.5 501.5,-729.5 501.5,-672.5 472.5,-672.5"/>
<text text-anchor="middle" x="487" y="-717.5" font-family="Helvetica,sans-Serif" font-size="10.00">int</text>
<polyline fill="none" stroke="#bfbfbf" points="472.5,-710.5 501.5,-710.5 "/>
<text text-anchor="middle" x="487" y="-698.5" font-family="Helvetica,sans-Serif" font-size="10.00"> </text>
<polyline fill="none" stroke="#bfbfbf" points="472.5,-691.5 501.5,-691.5 "/>
<text text-anchor="middle" x="487" y="-679.5" font-family="Helvetica,sans-Serif" font-size="10.00"> </text>
</g>
<!-- Node9&#45;&gt;Node1 -->
<g id="edge26" class="edge"><title>Node9&#45;&gt;Node1</title>
<path fill="none" stroke="#404040" d="M484.832,-672.228C483.135,-654.336 480.324,-630.645 476,-610 448.736,-479.819 403.355,-334.473 369.826,-234.761"/>
<polygon fill="none" stroke="#404040" points="369.739,-234.505 364.03,-230.1 365.901,-223.136 371.61,-227.541 369.739,-234.505"/>
<text text-anchor="middle" x="428.5" y="-363.5" font-family="Helvetica,sans-Serif" font-size="10.00"> &#45;mode</text>
</g>
<!-- Node9&#45;&gt;Node5 -->
<g id="edge18" class="edge"><title>Node9&#45;&gt;Node5</title>
<path fill="none" stroke="#404040" d="M472.266,-683.131C468.236,-679.142 463.681,-675.141 459,-672 441.795,-660.457 431.261,-668.012 416,-654 399.746,-639.076 403.498,-629.409 393,-610 390.418,-605.226 387.763,-600.351 385.071,-595.433"/>
<polygon fill="none" stroke="#404040" points="384.908,-595.137 378.513,-591.804 379.129,-584.62 385.524,-587.952 384.908,-595.137"/>
<text text-anchor="middle" x="446" y="-640.5" font-family="Helvetica,sans-Serif" font-size="10.00"> &#45;port_at</text>
<text text-anchor="middle" x="446" y="-629.5" font-family="Helvetica,sans-Serif" font-size="10.00">&#45;ident</text>
<text text-anchor="middle" x="446" y="-618.5" font-family="Helvetica,sans-Serif" font-size="10.00">&#45;port_navdata</text>
</g>
<!-- Node10 -->
<g id="node19" class="node"><title>Node10</title>
<polygon fill="white" stroke="#bfbfbf" points="211,-672.5 211,-729.5 291,-729.5 291,-672.5 211,-672.5"/>
<text text-anchor="middle" x="251" y="-717.5" font-family="Helvetica,sans-Serif" font-size="10.00">QUdpSocket *</text>
<polyline fill="none" stroke="#bfbfbf" points="211,-710.5 291,-710.5 "/>
<text text-anchor="middle" x="251" y="-698.5" font-family="Helvetica,sans-Serif" font-size="10.00"> </text>
<polyline fill="none" stroke="#bfbfbf" points="211,-691.5 291,-691.5 "/>
<text text-anchor="middle" x="251" y="-679.5" font-family="Helvetica,sans-Serif" font-size="10.00"> </text>
</g>
<!-- Node10&#45;&gt;Node5 -->
<g id="edge20" class="edge"><title>Node10&#45;&gt;Node5</title>
<path fill="none" stroke="#404040" d="M234.377,-672.31C225.47,-653.577 218.467,-628.901 230,-610 239.111,-595.068 252.147,-603.864 265,-592 265.539,-591.502 266.076,-590.998 266.609,-590.489"/>
<polygon fill="none" stroke="#404040" points="266.658,-590.439 267.946,-583.344 274.991,-581.804 273.703,-588.899 266.658,-590.439"/>
<text text-anchor="middle" x="276.5" y="-635" font-family="Helvetica,sans-Serif" font-size="10.00"> &#45;udpSocket_navdata</text>
<text text-anchor="middle" x="276.5" y="-624" font-family="Helvetica,sans-Serif" font-size="10.00">&#45;udpSocket_at</text>
</g>
<!-- Node11 -->
<g id="node21" class="node"><title>Node11</title>
<polygon fill="white" stroke="#bfbfbf" points="309.5,-672.5 309.5,-729.5 344.5,-729.5 344.5,-672.5 309.5,-672.5"/>
<text text-anchor="middle" x="327" y="-717.5" font-family="Helvetica,sans-Serif" font-size="10.00">bool</text>
<polyline fill="none" stroke="#bfbfbf" points="309.5,-710.5 344.5,-710.5 "/>
<text text-anchor="middle" x="327" y="-698.5" font-family="Helvetica,sans-Serif" font-size="10.00"> </text>
<polyline fill="none" stroke="#bfbfbf" points="309.5,-691.5 344.5,-691.5 "/>
<text text-anchor="middle" x="327" y="-679.5" font-family="Helvetica,sans-Serif" font-size="10.00"> </text>
</g>
<!-- Node11&#45;&gt;Node5 -->
<g id="edge22" class="edge"><title>Node11&#45;&gt;Node5</title>
<path fill="none" stroke="#404040" d="M327,-672.379C327,-654.253 327,-629.229 327,-603.586"/>
<polygon fill="none" stroke="#404040" points="327,-603.381 323,-597.381 327,-591.381 331,-597.381 327,-603.381"/>
<text text-anchor="middle" x="335.5" y="-629.5" font-family="Helvetica,sans-Serif" font-size="10.00"> &#45;fly</text>
</g>
<!-- Node12 -->
<g id="node23" class="node"><title>Node12</title>
<polygon fill="white" stroke="#bfbfbf" points="363,-672.5 363,-729.5 451,-729.5 451,-672.5 363,-672.5"/>
<text text-anchor="middle" x="407" y="-717.5" font-family="Helvetica,sans-Serif" font-size="10.00">QHostAddress *</text>
<polyline fill="none" stroke="#bfbfbf" points="363,-710.5 451,-710.5 "/>
<text text-anchor="middle" x="407" y="-698.5" font-family="Helvetica,sans-Serif" font-size="10.00"> </text>
<polyline fill="none" stroke="#bfbfbf" points="363,-691.5 451,-691.5 "/>
<text text-anchor="middle" x="407" y="-679.5" font-family="Helvetica,sans-Serif" font-size="10.00"> </text>
</g>
<!-- Node12&#45;&gt;Node5 -->
<g id="edge24" class="edge"><title>Node12&#45;&gt;Node5</title>
<path fill="none" stroke="#404040" d="M380.067,-672.253C375.539,-666.542 371.26,-660.33 368,-654 359.867,-638.207 353.279,-620.701 347.962,-603.205"/>
<polygon fill="none" stroke="#404040" points="347.89,-602.953 342.384,-598.296 344.565,-591.423 350.071,-596.08 347.89,-602.953"/>
<text text-anchor="middle" x="380.5" y="-629.5" font-family="Helvetica,sans-Serif" font-size="10.00"> &#45;host</text>
</g>
<!-- Node13 -->
<g id="node27" class="node"><title>Node13</title>
<polygon fill="white" stroke="#bfbfbf" points="518,-278.5 518,-335.5 598,-335.5 598,-278.5 518,-278.5"/>
<text text-anchor="middle" x="558" y="-323.5" font-family="Helvetica,sans-Serif" font-size="10.00">MainWindow *</text>
<polyline fill="none" stroke="#bfbfbf" points="518,-316.5 598,-316.5 "/>
<text text-anchor="middle" x="558" y="-304.5" font-family="Helvetica,sans-Serif" font-size="10.00"> </text>
<polyline fill="none" stroke="#bfbfbf" points="518,-297.5 598,-297.5 "/>
<text text-anchor="middle" x="558" y="-285.5" font-family="Helvetica,sans-Serif" font-size="10.00"> </text>
</g>
<!-- Node13&#45;&gt;Node1 -->
<g id="edge30" class="edge"><title>Node13&#45;&gt;Node1</title>
<path fill="none" stroke="#404040" d="M537.018,-278.248C527.529,-266.491 515.809,-252.998 504,-242 475.501,-215.457 441.474,-189.504 410.904,-167.918"/>
<polygon fill="none" stroke="#404040" points="410.516,-167.647 403.307,-167.487 400.682,-160.77 407.892,-160.93 410.516,-167.647"/>
<text text-anchor="middle" x="523" y="-245.5" font-family="Helvetica,sans-Serif" font-size="10.00"> &#45;ui</text>
</g>
</g>
</svg>
