<?xml version="1.0" encoding="UTF-8" standalone="no"?>
<!DOCTYPE svg PUBLIC "-//W3C//DTD SVG 1.1//EN"
 "http://www.w3.org/Graphics/SVG/1.1/DTD/svg11.dtd">
<!-- Generated by graphviz version 2.28.0 (20121221.0049)
 -->
<!-- Title: /media/DEVEL/ProjetIUT/DroneWifi/sources/keyboardCommand/navdatawindow.h Pages: 1 -->
<svg width="261pt" height="162pt"
 viewBox="0.00 0.00 261.00 162.00" xmlns="http://www.w3.org/2000/svg" xmlns:xlink="http://www.w3.org/1999/xlink">
<g id="graph1" class="graph" transform="scale(1 1) rotate(0) translate(4 158)">
<title>/media/DEVEL/ProjetIUT/DroneWifi/sources/keyboardCommand/navdatawindow.h</title>
<polygon fill="white" stroke="white" points="-4,5 -4,-158 258,-158 258,5 -4,5"/>
<!-- Node1 -->
<g id="node1" class="node"><title>Node1</title>
<polygon fill="#bfbfbf" stroke="black" points="0,-112.5 0,-153.5 188,-153.5 188,-112.5 0,-112.5"/>
<text text-anchor="start" x="8" y="-141.5" font-family="Helvetica,sans-Serif" font-size="10.00">/media/DEVEL/ProjetIUT</text>
<text text-anchor="start" x="8" y="-130.5" font-family="Helvetica,sans-Serif" font-size="10.00">/DroneWifi/sources/keyboardCommand</text>
<text text-anchor="middle" x="94" y="-119.5" font-family="Helvetica,sans-Serif" font-size="10.00">/navdatawindow.h</text>
</g>
<!-- Node2 -->
<g id="node3" class="node"><title>Node2</title>
<polygon fill="white" stroke="#bfbfbf" points="11,-56.5 11,-75.5 91,-75.5 91,-56.5 11,-56.5"/>
<text text-anchor="middle" x="51" y="-63.5" font-family="Helvetica,sans-Serif" font-size="10.00">QMainWindow</text>
</g>
<!-- Node1&#45;&gt;Node2 -->
<g id="edge2" class="edge"><title>Node1&#45;&gt;Node2</title>
<path fill="none" stroke="midnightblue" d="M81.0986,-112.498C75.1398,-103.49 68.126,-92.8881 62.3687,-84.1852"/>
<polygon fill="midnightblue" stroke="midnightblue" points="65.1604,-82.0616 56.724,-75.6525 59.3223,-85.9238 65.1604,-82.0616"/>
</g>
<!-- Node3 -->
<g id="node5" class="node"><title>Node3</title>
<a xlink:href="ardrone_8h.html" target="_top" xlink:title="ardrone.h">
<polygon fill="white" stroke="black" points="109.5,-56.5 109.5,-75.5 166.5,-75.5 166.5,-56.5 109.5,-56.5"/>
<text text-anchor="middle" x="138" y="-63.5" font-family="Helvetica,sans-Serif" font-size="10.00">ardrone.h</text>
</a>
</g>
<!-- Node1&#45;&gt;Node3 -->
<g id="edge4" class="edge"><title>Node1&#45;&gt;Node3</title>
<path fill="none" stroke="midnightblue" d="M107.201,-112.498C113.299,-103.49 120.476,-92.8881 126.367,-84.1852"/>
<polygon fill="midnightblue" stroke="midnightblue" points="129.436,-85.8956 132.143,-75.6525 123.639,-81.9716 129.436,-85.8956"/>
</g>
<!-- Node4 -->
<g id="node7" class="node"><title>Node4</title>
<polygon fill="white" stroke="#bfbfbf" points="58,-0.5 58,-19.5 112,-19.5 112,-0.5 58,-0.5"/>
<text text-anchor="middle" x="85" y="-7.5" font-family="Helvetica,sans-Serif" font-size="10.00">QThread</text>
</g>
<!-- Node3&#45;&gt;Node4 -->
<g id="edge6" class="edge"><title>Node3&#45;&gt;Node4</title>
<path fill="none" stroke="midnightblue" d="M129.248,-56.083C121.53,-48.2195 110.095,-36.5688 100.783,-27.0813"/>
<polygon fill="midnightblue" stroke="midnightblue" points="103.092,-24.4363 93.589,-19.7511 98.0958,-29.3396 103.092,-24.4363"/>
</g>
<!-- Node5 -->
<g id="node9" class="node"><title>Node5</title>
<polygon fill="white" stroke="#bfbfbf" points="130.5,-0.5 130.5,-19.5 253.5,-19.5 253.5,-0.5 130.5,-0.5"/>
<text text-anchor="middle" x="192" y="-7.5" font-family="Helvetica,sans-Serif" font-size="10.00">QtNetwork/QUdpSocket</text>
</g>
<!-- Node3&#45;&gt;Node5 -->
<g id="edge8" class="edge"><title>Node3&#45;&gt;Node5</title>
<path fill="none" stroke="midnightblue" d="M146.917,-56.083C154.78,-48.2195 166.431,-36.5688 175.919,-27.0813"/>
<polygon fill="midnightblue" stroke="midnightblue" points="178.653,-29.2971 183.249,-19.7511 173.703,-24.3473 178.653,-29.2971"/>
</g>
</g>
</svg>
