<?xml version="1.0" encoding="UTF-8" standalone="no"?>
<!DOCTYPE svg PUBLIC "-//W3C//DTD SVG 1.1//EN"
 "http://www.w3.org/Graphics/SVG/1.1/DTD/svg11.dtd">
<!-- Generated by graphviz version 2.28.0 (20121221.0049)
 -->
<!-- Title: /media/DEVEL/ProjetIUT/DroneWifi/sources/keyboardCommand/ardrone.h Pages: 1 -->
<svg width="524pt" height="284pt"
 viewBox="0.00 0.00 524.00 284.00" xmlns="http://www.w3.org/2000/svg" xmlns:xlink="http://www.w3.org/1999/xlink">
<g id="graph1" class="graph" transform="scale(1 1) rotate(0) translate(4 280)">
<title>/media/DEVEL/ProjetIUT/DroneWifi/sources/keyboardCommand/ardrone.h</title>
<polygon fill="white" stroke="white" points="-4,5 -4,-280 521,-280 521,5 -4,5"/>
<!-- Node1 -->
<g id="node1" class="node"><title>Node1</title>
<polygon fill="#bfbfbf" stroke="black" points="122,-234.5 122,-275.5 310,-275.5 310,-234.5 122,-234.5"/>
<text text-anchor="start" x="130" y="-263.5" font-family="Helvetica,sans-Serif" font-size="10.00">/media/DEVEL/ProjetIUT</text>
<text text-anchor="start" x="130" y="-252.5" font-family="Helvetica,sans-Serif" font-size="10.00">/DroneWifi/sources/keyboardCommand</text>
<text text-anchor="middle" x="216" y="-241.5" font-family="Helvetica,sans-Serif" font-size="10.00">/ardrone.h</text>
</g>
<!-- Node2 -->
<g id="node3" class="node"><title>Node2</title>
<a xlink:href="ardrone_8cpp.html" target="_top" xlink:title="/media/DEVEL/ProjetIUT\l/DroneWifi/sources/keyboardCommand\l/ardrone.cpp">
<polygon fill="white" stroke="black" points="0,-156.5 0,-197.5 188,-197.5 188,-156.5 0,-156.5"/>
<text text-anchor="start" x="8" y="-185.5" font-family="Helvetica,sans-Serif" font-size="10.00">/media/DEVEL/ProjetIUT</text>
<text text-anchor="start" x="8" y="-174.5" font-family="Helvetica,sans-Serif" font-size="10.00">/DroneWifi/sources/keyboardCommand</text>
<text text-anchor="middle" x="94" y="-163.5" font-family="Helvetica,sans-Serif" font-size="10.00">/ardrone.cpp</text>
</a>
</g>
<!-- Node1&#45;&gt;Node2 -->
<g id="edge2" class="edge"><title>Node1&#45;&gt;Node2</title>
<path fill="none" stroke="midnightblue" d="M175.739,-228.919C159.337,-218.702 140.665,-207.07 125.312,-197.506"/>
<polygon fill="midnightblue" stroke="midnightblue" points="174.244,-232.111 184.582,-234.428 177.945,-226.17 174.244,-232.111"/>
</g>
<!-- Node3 -->
<g id="node5" class="node"><title>Node3</title>
<a xlink:href="mainwindow_8h.html" target="_top" xlink:title="/media/DEVEL/ProjetIUT\l/DroneWifi/sources/keyboardCommand\l/mainwindow.h">
<polygon fill="white" stroke="black" points="122,-78.5 122,-119.5 310,-119.5 310,-78.5 122,-78.5"/>
<text text-anchor="start" x="130" y="-107.5" font-family="Helvetica,sans-Serif" font-size="10.00">/media/DEVEL/ProjetIUT</text>
<text text-anchor="start" x="130" y="-96.5" font-family="Helvetica,sans-Serif" font-size="10.00">/DroneWifi/sources/keyboardCommand</text>
<text text-anchor="middle" x="216" y="-85.5" font-family="Helvetica,sans-Serif" font-size="10.00">/mainwindow.h</text>
</a>
</g>
<!-- Node1&#45;&gt;Node3 -->
<g id="edge4" class="edge"><title>Node1&#45;&gt;Node3</title>
<path fill="none" stroke="midnightblue" d="M216,-224.365C216,-193.606 216,-146.358 216,-119.832"/>
<polygon fill="midnightblue" stroke="midnightblue" points="212.5,-224.496 216,-234.496 219.5,-224.496 212.5,-224.496"/>
</g>
<!-- Node6 -->
<g id="node11" class="node"><title>Node6</title>
<a xlink:href="navdatawindow_8h.html" target="_top" xlink:title="/media/DEVEL/ProjetIUT\l/DroneWifi/sources/keyboardCommand\l/navdatawindow.h">
<polygon fill="white" stroke="black" points="244,-156.5 244,-197.5 432,-197.5 432,-156.5 244,-156.5"/>
<text text-anchor="start" x="252" y="-185.5" font-family="Helvetica,sans-Serif" font-size="10.00">/media/DEVEL/ProjetIUT</text>
<text text-anchor="start" x="252" y="-174.5" font-family="Helvetica,sans-Serif" font-size="10.00">/DroneWifi/sources/keyboardCommand</text>
<text text-anchor="middle" x="338" y="-163.5" font-family="Helvetica,sans-Serif" font-size="10.00">/navdatawindow.h</text>
</a>
</g>
<!-- Node1&#45;&gt;Node6 -->
<g id="edge10" class="edge"><title>Node1&#45;&gt;Node6</title>
<path fill="none" stroke="midnightblue" d="M256.261,-228.919C272.663,-218.702 291.335,-207.07 306.688,-197.506"/>
<polygon fill="midnightblue" stroke="midnightblue" points="254.055,-226.17 247.418,-234.428 257.756,-232.111 254.055,-226.17"/>
</g>
<!-- Node4 -->
<g id="node7" class="node"><title>Node4</title>
<a xlink:href="main_8cpp.html" target="_top" xlink:title="/media/DEVEL/ProjetIUT\l/DroneWifi/sources/keyboardCommand\l/main.cpp">
<polygon fill="white" stroke="black" points="19,-0.5 19,-41.5 207,-41.5 207,-0.5 19,-0.5"/>
<text text-anchor="start" x="27" y="-29.5" font-family="Helvetica,sans-Serif" font-size="10.00">/media/DEVEL/ProjetIUT</text>
<text text-anchor="start" x="27" y="-18.5" font-family="Helvetica,sans-Serif" font-size="10.00">/DroneWifi/sources/keyboardCommand</text>
<text text-anchor="middle" x="113" y="-7.5" font-family="Helvetica,sans-Serif" font-size="10.00">/main.cpp</text>
</a>
</g>
<!-- Node3&#45;&gt;Node4 -->
<g id="edge6" class="edge"><title>Node3&#45;&gt;Node4</title>
<path fill="none" stroke="midnightblue" d="M181.238,-72.3503C167.579,-62.2719 152.158,-50.893 139.435,-41.5056"/>
<polygon fill="midnightblue" stroke="midnightblue" points="179.35,-75.3071 189.475,-78.4281 183.506,-69.6744 179.35,-75.3071"/>
</g>
<!-- Node5 -->
<g id="node9" class="node"><title>Node5</title>
<a xlink:href="mainwindow_8cpp.html" target="_top" xlink:title="/media/DEVEL/ProjetIUT\l/DroneWifi/sources/keyboardCommand\l/mainwindow.cpp">
<polygon fill="white" stroke="black" points="225,-0.5 225,-41.5 413,-41.5 413,-0.5 225,-0.5"/>
<text text-anchor="start" x="233" y="-29.5" font-family="Helvetica,sans-Serif" font-size="10.00">/media/DEVEL/ProjetIUT</text>
<text text-anchor="start" x="233" y="-18.5" font-family="Helvetica,sans-Serif" font-size="10.00">/DroneWifi/sources/keyboardCommand</text>
<text text-anchor="middle" x="319" y="-7.5" font-family="Helvetica,sans-Serif" font-size="10.00">/mainwindow.cpp</text>
</a>
</g>
<!-- Node3&#45;&gt;Node5 -->
<g id="edge8" class="edge"><title>Node3&#45;&gt;Node5</title>
<path fill="none" stroke="midnightblue" d="M250.762,-72.3503C264.421,-62.2719 279.842,-50.893 292.565,-41.5056"/>
<polygon fill="midnightblue" stroke="midnightblue" points="248.494,-69.6744 242.525,-78.4281 252.65,-75.3071 248.494,-69.6744"/>
</g>
<!-- Node6&#45;&gt;Node3 -->
<g id="edge12" class="edge"><title>Node6&#45;&gt;Node3</title>
<path fill="none" stroke="midnightblue" d="M297.739,-150.919C281.337,-140.702 262.665,-129.07 247.312,-119.506"/>
<polygon fill="midnightblue" stroke="midnightblue" points="296.244,-154.111 306.582,-156.428 299.945,-148.17 296.244,-154.111"/>
</g>
<!-- Node7 -->
<g id="node14" class="node"><title>Node7</title>
<a xlink:href="navdatawindow_8cpp.html" target="_top" xlink:title="/media/DEVEL/ProjetIUT\l/DroneWifi/sources/keyboardCommand\l/navdatawindow.cpp">
<polygon fill="white" stroke="black" points="328,-78.5 328,-119.5 516,-119.5 516,-78.5 328,-78.5"/>
<text text-anchor="start" x="336" y="-107.5" font-family="Helvetica,sans-Serif" font-size="10.00">/media/DEVEL/ProjetIUT</text>
<text text-anchor="start" x="336" y="-96.5" font-family="Helvetica,sans-Serif" font-size="10.00">/DroneWifi/sources/keyboardCommand</text>
<text text-anchor="middle" x="422" y="-85.5" font-family="Helvetica,sans-Serif" font-size="10.00">/navdatawindow.cpp</text>
</a>
</g>
<!-- Node6&#45;&gt;Node7 -->
<g id="edge14" class="edge"><title>Node6&#45;&gt;Node7</title>
<path fill="none" stroke="midnightblue" d="M367.299,-149.492C378.199,-139.629 390.359,-128.627 400.441,-119.506"/>
<polygon fill="midnightblue" stroke="midnightblue" points="364.699,-147.124 359.632,-156.428 369.396,-152.314 364.699,-147.124"/>
</g>
</g>
</svg>
