<?xml version="1.0" encoding="UTF-8" standalone="no"?>
<!DOCTYPE svg PUBLIC "-//W3C//DTD SVG 1.1//EN"
 "http://www.w3.org/Graphics/SVG/1.1/DTD/svg11.dtd">
<!-- Generated by graphviz version 2.28.0 (20121221.0049)
 -->
<!-- Title: /media/DEVEL/ProjetIUT/DroneWifi/sources/keyboardCommand/ardrone.h Pages: 1 -->
<svg width="217pt" height="106pt"
 viewBox="0.00 0.00 217.00 106.00" xmlns="http://www.w3.org/2000/svg" xmlns:xlink="http://www.w3.org/1999/xlink">
<g id="graph1" class="graph" transform="scale(1 1) rotate(0) translate(4 102)">
<title>/media/DEVEL/ProjetIUT/DroneWifi/sources/keyboardCommand/ardrone.h</title>
<polygon fill="white" stroke="white" points="-4,5 -4,-102 214,-102 214,5 -4,5"/>
<!-- Node1 -->
<g id="node1" class="node"><title>Node1</title>
<polygon fill="#bfbfbf" stroke="black" points="0,-56.5 0,-97.5 188,-97.5 188,-56.5 0,-56.5"/>
<text text-anchor="start" x="8" y="-85.5" font-family="Helvetica,sans-Serif" font-size="10.00">/media/DEVEL/ProjetIUT</text>
<text text-anchor="start" x="8" y="-74.5" font-family="Helvetica,sans-Serif" font-size="10.00">/DroneWifi/sources/keyboardCommand</text>
<text text-anchor="middle" x="94" y="-63.5" font-family="Helvetica,sans-Serif" font-size="10.00">/ardrone.h</text>
</g>
<!-- Node2 -->
<g id="node3" class="node"><title>Node2</title>
<polygon fill="white" stroke="#bfbfbf" points="14,-0.5 14,-19.5 68,-19.5 68,-0.5 14,-0.5"/>
<text text-anchor="middle" x="41" y="-7.5" font-family="Helvetica,sans-Serif" font-size="10.00">QThread</text>
</g>
<!-- Node1&#45;&gt;Node2 -->
<g id="edge2" class="edge"><title>Node1&#45;&gt;Node2</title>
<path fill="none" stroke="midnightblue" d="M78.0983,-56.4979C70.5974,-47.2987 61.7403,-36.4362 54.5617,-27.6323"/>
<polygon fill="midnightblue" stroke="midnightblue" points="57.0871,-25.1909 48.0551,-19.6525 51.662,-29.6145 57.0871,-25.1909"/>
</g>
<!-- Node3 -->
<g id="node5" class="node"><title>Node3</title>
<polygon fill="white" stroke="#bfbfbf" points="86.5,-0.5 86.5,-19.5 209.5,-19.5 209.5,-0.5 86.5,-0.5"/>
<text text-anchor="middle" x="148" y="-7.5" font-family="Helvetica,sans-Serif" font-size="10.00">QtNetwork/QUdpSocket</text>
</g>
<!-- Node1&#45;&gt;Node3 -->
<g id="edge4" class="edge"><title>Node1&#45;&gt;Node3</title>
<path fill="none" stroke="midnightblue" d="M110.202,-56.4979C117.924,-47.2029 127.057,-36.2097 134.41,-27.3579"/>
<polygon fill="midnightblue" stroke="midnightblue" points="137.114,-29.581 140.812,-19.6525 131.729,-25.1078 137.114,-29.581"/>
</g>
</g>
</svg>
