<?xml version="1.0" encoding="UTF-8" standalone="no"?>
<!DOCTYPE svg PUBLIC "-//W3C//DTD SVG 1.1//EN"
 "http://www.w3.org/Graphics/SVG/1.1/DTD/svg11.dtd">
<!-- Generated by graphviz version 2.28.0 (20121221.0049)
 -->
<!-- Title: navdataWindow Pages: 1 -->
<svg width="114pt" height="172pt"
 viewBox="0.00 0.00 114.00 172.00" xmlns="http://www.w3.org/2000/svg" xmlns:xlink="http://www.w3.org/1999/xlink">
<g id="graph1" class="graph" transform="scale(1 1) rotate(0) translate(4 168)">
<title>navdataWindow</title>
<polygon fill="white" stroke="white" points="-4,5 -4,-168 111,-168 111,5 -4,5"/>
<!-- Node1 -->
<g id="node1" class="node"><title>Node1</title>
<polygon fill="#bfbfbf" stroke="black" points="-0.5,-1 -0.5,-69 106.5,-69 106.5,-1 -0.5,-1"/>
<text text-anchor="middle" x="53" y="-57" font-family="Helvetica,sans-Serif" font-size="10.00">navdataWindow</text>
<polyline fill="none" stroke="black" points="-0.5,-50 106.5,-50 "/>
<text text-anchor="middle" x="53" y="-38" font-family="Helvetica,sans-Serif" font-size="10.00"> </text>
<polyline fill="none" stroke="black" points="-0.5,-31 106.5,-31 "/>
<text text-anchor="start" x="7.5" y="-19" font-family="Helvetica,sans-Serif" font-size="10.00">+ navdataWindow()</text>
<text text-anchor="start" x="7.5" y="-8" font-family="Helvetica,sans-Serif" font-size="10.00">+ ~navdataWindow()</text>
</g>
<!-- Node2 -->
<g id="node2" class="node"><title>Node2</title>
<a xlink:href="class_q_main_window.html" target="_top" xlink:title="{QMainWindow\n||}">
<polygon fill="white" stroke="black" points="13,-106.5 13,-163.5 93,-163.5 93,-106.5 13,-106.5"/>
<text text-anchor="middle" x="53" y="-151.5" font-family="Helvetica,sans-Serif" font-size="10.00">QMainWindow</text>
<polyline fill="none" stroke="black" points="13,-144.5 93,-144.5 "/>
<text text-anchor="middle" x="53" y="-132.5" font-family="Helvetica,sans-Serif" font-size="10.00"> </text>
<polyline fill="none" stroke="black" points="13,-125.5 93,-125.5 "/>
<text text-anchor="middle" x="53" y="-113.5" font-family="Helvetica,sans-Serif" font-size="10.00"> </text>
</a>
</g>
<!-- Node2&#45;&gt;Node1 -->
<g id="edge2" class="edge"><title>Node2&#45;&gt;Node1</title>
<path fill="none" stroke="midnightblue" d="M53,-96.3023C53,-87.3951 53,-77.9608 53,-69.2659"/>
<polygon fill="none" stroke="midnightblue" points="49.5001,-96.4407 53,-106.441 56.5001,-96.4408 49.5001,-96.4407"/>
</g>
</g>
</svg>
