<?xml version="1.0" encoding="UTF-8" standalone="no"?>
<!DOCTYPE svg PUBLIC "-//W3C//DTD SVG 1.1//EN"
 "http://www.w3.org/Graphics/SVG/1.1/DTD/svg11.dtd">
<!-- Generated by graphviz version 2.28.0 (20121221.0049)
 -->
<!-- Title: navdataWindow Pages: 1 -->
<svg width="266pt" height="66pt"
 viewBox="0.00 0.00 266.00 66.00" xmlns="http://www.w3.org/2000/svg" xmlns:xlink="http://www.w3.org/1999/xlink">
<g id="graph1" class="graph" transform="scale(1 1) rotate(0) translate(4 62)">
<title>navdataWindow</title>
<polygon fill="white" stroke="white" points="-4,5 -4,-62 263,-62 263,5 -4,5"/>
<!-- Node1 -->
<g id="node1" class="node"><title>Node1</title>
<polygon fill="#bfbfbf" stroke="black" points="0,-19.5 0,-38.5 86,-38.5 86,-19.5 0,-19.5"/>
<text text-anchor="middle" x="43" y="-26.5" font-family="Helvetica,sans-Serif" font-size="10.00">navdataWindow</text>
</g>
<!-- Node2 -->
<g id="node3" class="node"><title>Node2</title>
<a xlink:href="class_a_r_drone.html#a0ba4b4e4cf7a107a1587152af3f4fbab" target="_top" xlink:title="Initialise la connexion au drone.">
<polygon fill="white" stroke="black" points="122.5,-38.5 122.5,-57.5 257.5,-57.5 257.5,-38.5 122.5,-38.5"/>
<text text-anchor="middle" x="190" y="-45.5" font-family="Helvetica,sans-Serif" font-size="10.00">ARDrone::connectToDrone</text>
</a>
</g>
<!-- Node1&#45;&gt;Node2 -->
<g id="edge2" class="edge"><title>Node1&#45;&gt;Node2</title>
<path fill="none" stroke="midnightblue" d="M86.3298,-34.5467C94.5289,-35.621 103.355,-36.7775 112.266,-37.9452"/>
<polygon fill="midnightblue" stroke="midnightblue" points="111.965,-41.4355 122.335,-39.2645 112.874,-34.4949 111.965,-41.4355"/>
</g>
<!-- Node3 -->
<g id="node5" class="node"><title>Node3</title>
<a xlink:href="class_a_r_drone.html#a36946b429549afb5b1d64c0ff1fe4fbb" target="_top" xlink:title="Initialise le fux de données.">
<polygon fill="white" stroke="black" points="132.5,-0.5 132.5,-19.5 247.5,-19.5 247.5,-0.5 132.5,-0.5"/>
<text text-anchor="middle" x="190" y="-7.5" font-family="Helvetica,sans-Serif" font-size="10.00">ARDrone::initNavData</text>
</a>
</g>
<!-- Node1&#45;&gt;Node3 -->
<g id="edge4" class="edge"><title>Node1&#45;&gt;Node3</title>
<path fill="none" stroke="midnightblue" d="M86.3298,-23.4533C97.5624,-21.9815 109.971,-20.3555 122.164,-18.7578"/>
<polygon fill="midnightblue" stroke="midnightblue" points="122.865,-22.1959 132.326,-17.4263 121.956,-15.2552 122.865,-22.1959"/>
</g>
</g>
</svg>
