<?xml version="1.0" encoding="UTF-8" standalone="no"?>
<!DOCTYPE svg PUBLIC "-//W3C//DTD SVG 1.1//EN"
 "http://www.w3.org/Graphics/SVG/1.1/DTD/svg11.dtd">
<!-- Generated by graphviz version 2.28.0 (20121221.0049)
 -->
<!-- Title: takeoff Pages: 1 -->
<svg width="182pt" height="142pt"
 viewBox="0.00 0.00 182.00 142.00" xmlns="http://www.w3.org/2000/svg" xmlns:xlink="http://www.w3.org/1999/xlink">
<g id="graph1" class="graph" transform="scale(1 1) rotate(0) translate(4 138)">
<title>takeoff</title>
<polygon fill="white" stroke="white" points="-4,5 -4,-138 179,-138 179,5 -4,5"/>
<!-- Node1 -->
<g id="node1" class="node"><title>Node1</title>
<polygon fill="#bfbfbf" stroke="black" points="0.5,-57.5 0.5,-76.5 47.5,-76.5 47.5,-57.5 0.5,-57.5"/>
<text text-anchor="middle" x="24" y="-64.5" font-family="Helvetica,sans-Serif" font-size="10.00">takeoff</text>
</g>
<!-- Node2 -->
<g id="node3" class="node"><title>Node2</title>
<a xlink:href="class_a_r_drone.html#a40d5afd3a519061379938368c9096df0" target="_top" xlink:title="Setter sécurisé de la valeur de la vitesse verticale.">
<polygon fill="white" stroke="black" points="88.5,-114.5 88.5,-133.5 169.5,-133.5 169.5,-114.5 88.5,-114.5"/>
<text text-anchor="middle" x="129" y="-121.5" font-family="Helvetica,sans-Serif" font-size="10.00">setGoUpDown</text>
</a>
</g>
<!-- Node1&#45;&gt;Node2 -->
<g id="edge2" class="edge"><title>Node1&#45;&gt;Node2</title>
<path fill="none" stroke="midnightblue" d="M38.6752,-76.7267C50.3897,-84.8322 67.8741,-96.4004 84,-105 87.3543,-106.789 90.9128,-108.544 94.4958,-110.221"/>
<polygon fill="midnightblue" stroke="midnightblue" points="93.357,-113.547 103.914,-114.447 96.2224,-107.16 93.357,-113.547"/>
</g>
<!-- Node3 -->
<g id="node5" class="node"><title>Node3</title>
<a xlink:href="class_a_r_drone.html#a846d9ca708547b77d6353b8c544e2764" target="_top" xlink:title="Setter sécurisé de la valeur de la vitesse angulaire.">
<polygon fill="white" stroke="black" points="84.5,-76.5 84.5,-95.5 173.5,-95.5 173.5,-76.5 84.5,-76.5"/>
<text text-anchor="middle" x="129" y="-83.5" font-family="Helvetica,sans-Serif" font-size="10.00">setTurnLeftRight</text>
</a>
</g>
<!-- Node1&#45;&gt;Node3 -->
<g id="edge4" class="edge"><title>Node1&#45;&gt;Node3</title>
<path fill="none" stroke="midnightblue" d="M47.6038,-71.1696C55.6029,-72.6452 64.9771,-74.3744 74.4441,-76.1208"/>
<polygon fill="midnightblue" stroke="midnightblue" points="73.8205,-79.5647 84.2896,-77.9369 75.0904,-72.6808 73.8205,-79.5647"/>
</g>
<!-- Node4 -->
<g id="node7" class="node"><title>Node4</title>
<a xlink:href="class_a_r_drone.html#a35091a8252bbb1cffab5c07834d1f263" target="_top" xlink:title="Setter sécurisé de la valeur de l&#39;inclinaison avant arrière.">
<polygon fill="white" stroke="black" points="84.5,-38.5 84.5,-57.5 173.5,-57.5 173.5,-38.5 84.5,-38.5"/>
<text text-anchor="middle" x="129" y="-45.5" font-family="Helvetica,sans-Serif" font-size="10.00">setTiltFrontBack</text>
</a>
</g>
<!-- Node1&#45;&gt;Node4 -->
<g id="edge6" class="edge"><title>Node1&#45;&gt;Node4</title>
<path fill="none" stroke="midnightblue" d="M47.6038,-62.8304C55.6029,-61.3548 64.9771,-59.6256 74.4441,-57.8792"/>
<polygon fill="midnightblue" stroke="midnightblue" points="75.0904,-61.3192 84.2896,-56.0631 73.8205,-54.4353 75.0904,-61.3192"/>
</g>
<!-- Node5 -->
<g id="node9" class="node"><title>Node5</title>
<a xlink:href="class_a_r_drone.html#a2cd513a18603d81fdbc8167c103af577" target="_top" xlink:title="Setter sécurisé de la valeur de l&#39;inclinaison gauche droite.">
<polygon fill="white" stroke="black" points="87.5,-0.5 87.5,-19.5 170.5,-19.5 170.5,-0.5 87.5,-0.5"/>
<text text-anchor="middle" x="129" y="-7.5" font-family="Helvetica,sans-Serif" font-size="10.00">setTiltLeftRight</text>
</a>
</g>
<!-- Node1&#45;&gt;Node5 -->
<g id="edge8" class="edge"><title>Node1&#45;&gt;Node5</title>
<path fill="none" stroke="midnightblue" d="M38.6752,-57.2733C50.3897,-49.1678 67.8741,-37.5996 84,-29 87.3543,-27.2112 90.9128,-25.4557 94.4958,-23.7787"/>
<polygon fill="midnightblue" stroke="midnightblue" points="96.2224,-26.8402 103.914,-19.5535 93.357,-20.4535 96.2224,-26.8402"/>
</g>
</g>
</svg>
