<?xml version="1.0" encoding="UTF-8" standalone="no"?>
<!DOCTYPE svg PUBLIC "-//W3C//DTD SVG 1.1//EN"
 "http://www.w3.org/Graphics/SVG/1.1/DTD/svg11.dtd">
<!-- Generated by graphviz version 2.28.0 (20121221.0049)
 -->
<!-- Title: MainWindow Pages: 1 -->
<svg width="174pt" height="292pt"
 viewBox="0.00 0.00 174.00 292.00" xmlns="http://www.w3.org/2000/svg" xmlns:xlink="http://www.w3.org/1999/xlink">
<g id="graph1" class="graph" transform="scale(1 1) rotate(0) translate(4 288)">
<title>MainWindow</title>
<polygon fill="white" stroke="white" points="-4,5 -4,-288 171,-288 171,5 -4,5"/>
<!-- Node1 -->
<g id="node1" class="node"><title>Node1</title>
<polygon fill="#bfbfbf" stroke="black" points="0,-1 0,-69 94,-69 94,-1 0,-1"/>
<text text-anchor="middle" x="47" y="-57" font-family="Helvetica,sans-Serif" font-size="10.00">MainWindow</text>
<polyline fill="none" stroke="black" points="0,-50 94,-50 "/>
<text text-anchor="middle" x="47" y="-38" font-family="Helvetica,sans-Serif" font-size="10.00"> </text>
<polyline fill="none" stroke="black" points="0,-31 94,-31 "/>
<text text-anchor="start" x="8" y="-19" font-family="Helvetica,sans-Serif" font-size="10.00">+ MainWindow()</text>
<text text-anchor="start" x="8" y="-8" font-family="Helvetica,sans-Serif" font-size="10.00">+ ~MainWindow()</text>
</g>
<!-- Node2 -->
<g id="node2" class="node"><title>Node2</title>
<a xlink:href="class_q_main_window.html" target="_top" xlink:title="{QMainWindow\n||}">
<polygon fill="white" stroke="black" points="17,-226.5 17,-283.5 97,-283.5 97,-226.5 17,-226.5"/>
<text text-anchor="middle" x="57" y="-271.5" font-family="Helvetica,sans-Serif" font-size="10.00">QMainWindow</text>
<polyline fill="none" stroke="black" points="17,-264.5 97,-264.5 "/>
<text text-anchor="middle" x="57" y="-252.5" font-family="Helvetica,sans-Serif" font-size="10.00"> </text>
<polyline fill="none" stroke="black" points="17,-245.5 97,-245.5 "/>
<text text-anchor="middle" x="57" y="-233.5" font-family="Helvetica,sans-Serif" font-size="10.00"> </text>
</a>
</g>
<!-- Node2&#45;&gt;Node1 -->
<g id="edge2" class="edge"><title>Node2&#45;&gt;Node1</title>
<path fill="none" stroke="midnightblue" d="M53.1521,-216.31C52.3242,-207.06 51.5375,-197.18 51,-188 48.6083,-147.153 47.6465,-100.047 47.2598,-69.2357"/>
<polygon fill="none" stroke="midnightblue" points="49.6807,-216.781 54.0932,-226.413 56.6505,-216.132 49.6807,-216.781"/>
</g>
<!-- Node3 -->
<g id="node4" class="node"><title>Node3</title>
<a xlink:href="classnavdata_window.html" target="_top" xlink:title="{navdataWindow\n||+ navdataWindow()\l+ ~navdataWindow()\l}">
<polygon fill="white" stroke="black" points="59.5,-119 59.5,-187 166.5,-187 166.5,-119 59.5,-119"/>
<text text-anchor="middle" x="113" y="-175" font-family="Helvetica,sans-Serif" font-size="10.00">navdataWindow</text>
<polyline fill="none" stroke="black" points="59.5,-168 166.5,-168 "/>
<text text-anchor="middle" x="113" y="-156" font-family="Helvetica,sans-Serif" font-size="10.00"> </text>
<polyline fill="none" stroke="black" points="59.5,-149 166.5,-149 "/>
<text text-anchor="start" x="67.5" y="-137" font-family="Helvetica,sans-Serif" font-size="10.00">+ navdataWindow()</text>
<text text-anchor="start" x="67.5" y="-126" font-family="Helvetica,sans-Serif" font-size="10.00">+ ~navdataWindow()</text>
</a>
</g>
<!-- Node2&#45;&gt;Node3 -->
<g id="edge6" class="edge"><title>Node2&#45;&gt;Node3</title>
<path fill="none" stroke="midnightblue" d="M77.408,-217.557C82.9688,-207.627 88.9618,-196.925 94.4154,-187.187"/>
<polygon fill="none" stroke="midnightblue" points="74.2828,-215.975 72.4505,-226.41 80.3903,-219.395 74.2828,-215.975"/>
</g>
<!-- Node3&#45;&gt;Node1 -->
<g id="edge4" class="edge"><title>Node3&#45;&gt;Node1</title>
<path fill="none" stroke="#404040" d="M94.087,-118.759C87.183,-106.625 79.2661,-92.7102 71.9188,-79.7967"/>
<polygon fill="none" stroke="#404040" points="71.8501,-79.6758 65.4062,-76.4389 65.9157,-69.2458 72.3595,-72.4827 71.8501,-79.6758"/>
<text text-anchor="middle" x="103" y="-91.5" font-family="Helvetica,sans-Serif" font-size="10.00"> +navdata</text>
</g>
</g>
</svg>
