<?xml version="1.0" encoding="UTF-8" standalone="no"?>
<!DOCTYPE svg PUBLIC "-//W3C//DTD SVG 1.1//EN"
 "http://www.w3.org/Graphics/SVG/1.1/DTD/svg11.dtd">
<!-- Generated by graphviz version 2.28.0 (20121221.0049)
 -->
<!-- Title: ARDrone Pages: 1 -->
<svg width="112pt" height="282pt"
 viewBox="0.00 0.00 112.00 282.00" xmlns="http://www.w3.org/2000/svg" xmlns:xlink="http://www.w3.org/1999/xlink">
<g id="graph1" class="graph" transform="scale(1 1) rotate(0) translate(4 278)">
<title>ARDrone</title>
<polygon fill="white" stroke="white" points="-4,5 -4,-278 109,-278 109,5 -4,5"/>
<!-- Node1 -->
<g id="node1" class="node"><title>Node1</title>
<polygon fill="#bfbfbf" stroke="black" points="0,-1 0,-179 104,-179 104,-1 0,-1"/>
<text text-anchor="middle" x="52" y="-167" font-family="Helvetica,sans-Serif" font-size="10.00">ARDrone</text>
<polyline fill="none" stroke="black" points="0,-160 104,-160 "/>
<text text-anchor="middle" x="52" y="-148" font-family="Helvetica,sans-Serif" font-size="10.00"> </text>
<polyline fill="none" stroke="black" points="0,-141 104,-141 "/>
<text text-anchor="start" x="8" y="-129" font-family="Helvetica,sans-Serif" font-size="10.00">+ ARDrone()</text>
<text text-anchor="start" x="8" y="-118" font-family="Helvetica,sans-Serif" font-size="10.00">+ connectToDrone()</text>
<text text-anchor="start" x="8" y="-107" font-family="Helvetica,sans-Serif" font-size="10.00">+ initDrone()</text>
<text text-anchor="start" x="8" y="-96" font-family="Helvetica,sans-Serif" font-size="10.00">+ initNavData()</text>
<text text-anchor="start" x="8" y="-85" font-family="Helvetica,sans-Serif" font-size="10.00">+ takeoff()</text>
<text text-anchor="start" x="8" y="-74" font-family="Helvetica,sans-Serif" font-size="10.00">+ land()</text>
<text text-anchor="start" x="8" y="-63" font-family="Helvetica,sans-Serif" font-size="10.00">+ aru()</text>
<text text-anchor="start" x="8" y="-52" font-family="Helvetica,sans-Serif" font-size="10.00">+ volCommand()</text>
<text text-anchor="start" x="8" y="-41" font-family="Helvetica,sans-Serif" font-size="10.00">+ setGoUpDown()</text>
<text text-anchor="start" x="8" y="-30" font-family="Helvetica,sans-Serif" font-size="10.00">+ setTurnLeftRight()</text>
<text text-anchor="start" x="8" y="-19" font-family="Helvetica,sans-Serif" font-size="10.00">+ setTiltFrontBack()</text>
<text text-anchor="start" x="8" y="-8" font-family="Helvetica,sans-Serif" font-size="10.00">+ setTiltLeftRight()</text>
</g>
<!-- Node2 -->
<g id="node2" class="node"><title>Node2</title>
<a xlink:href="class_q_thread.html" target="_top" xlink:title="{QThread\n||}">
<polygon fill="white" stroke="black" points="25,-216.5 25,-273.5 79,-273.5 79,-216.5 25,-216.5"/>
<text text-anchor="middle" x="52" y="-261.5" font-family="Helvetica,sans-Serif" font-size="10.00">QThread</text>
<polyline fill="none" stroke="black" points="25,-254.5 79,-254.5 "/>
<text text-anchor="middle" x="52" y="-242.5" font-family="Helvetica,sans-Serif" font-size="10.00"> </text>
<polyline fill="none" stroke="black" points="25,-235.5 79,-235.5 "/>
<text text-anchor="middle" x="52" y="-223.5" font-family="Helvetica,sans-Serif" font-size="10.00"> </text>
</a>
</g>
<!-- Node2&#45;&gt;Node1 -->
<g id="edge2" class="edge"><title>Node2&#45;&gt;Node1</title>
<path fill="none" stroke="midnightblue" d="M52,-206.166C52,-197.781 52,-188.554 52,-179.086"/>
<polygon fill="none" stroke="midnightblue" points="48.5001,-206.293 52,-216.293 55.5001,-206.293 48.5001,-206.293"/>
</g>
</g>
</svg>
