<?xml version="1.0" encoding="UTF-8" standalone="no"?>
<!DOCTYPE svg PUBLIC "-//W3C//DTD SVG 1.1//EN"
 "http://www.w3.org/Graphics/SVG/1.1/DTD/svg11.dtd">
<!-- Generated by graphviz version 2.28.0 (20121221.0049)
 -->
<!-- Title: QMainWindow Pages: 1 -->
<svg width="227pt" height="172pt"
 viewBox="0.00 0.00 227.00 172.00" xmlns="http://www.w3.org/2000/svg" xmlns:xlink="http://www.w3.org/1999/xlink">
<g id="graph1" class="graph" transform="scale(1 1) rotate(0) translate(4 168)">
<title>QMainWindow</title>
<polygon fill="white" stroke="white" points="-4,5 -4,-168 224,-168 224,5 -4,5"/>
<!-- Node1 -->
<g id="node1" class="node"><title>Node1</title>
<polygon fill="#bfbfbf" stroke="black" points="66,-106.5 66,-163.5 146,-163.5 146,-106.5 66,-106.5"/>
<text text-anchor="middle" x="106" y="-151.5" font-family="Helvetica,sans-Serif" font-size="10.00">QMainWindow</text>
<polyline fill="none" stroke="black" points="66,-144.5 146,-144.5 "/>
<text text-anchor="middle" x="106" y="-132.5" font-family="Helvetica,sans-Serif" font-size="10.00"> </text>
<polyline fill="none" stroke="black" points="66,-125.5 146,-125.5 "/>
<text text-anchor="middle" x="106" y="-113.5" font-family="Helvetica,sans-Serif" font-size="10.00"> </text>
</g>
<!-- Node2 -->
<g id="node3" class="node"><title>Node2</title>
<a xlink:href="class_main_window.html" target="_top" xlink:title="{MainWindow\n|+ navdata\l|+ MainWindow()\l+ ~MainWindow()\l}">
<polygon fill="white" stroke="black" points="0,-1 0,-69 94,-69 94,-1 0,-1"/>
<text text-anchor="middle" x="47" y="-57" font-family="Helvetica,sans-Serif" font-size="10.00">MainWindow</text>
<polyline fill="none" stroke="black" points="0,-50 94,-50 "/>
<text text-anchor="start" x="8" y="-38" font-family="Helvetica,sans-Serif" font-size="10.00">+ navdata</text>
<polyline fill="none" stroke="black" points="0,-31 94,-31 "/>
<text text-anchor="start" x="8" y="-19" font-family="Helvetica,sans-Serif" font-size="10.00">+ MainWindow()</text>
<text text-anchor="start" x="8" y="-8" font-family="Helvetica,sans-Serif" font-size="10.00">+ ~MainWindow()</text>
</a>
</g>
<!-- Node1&#45;&gt;Node2 -->
<g id="edge2" class="edge"><title>Node1&#45;&gt;Node2</title>
<path fill="none" stroke="midnightblue" d="M84.1759,-97.7497C78.5606,-88.4227 72.5466,-78.4333 67.0274,-69.2659"/>
<polygon fill="none" stroke="midnightblue" points="81.2518,-99.6788 89.4082,-106.441 87.2489,-96.0683 81.2518,-99.6788"/>
</g>
<!-- Node3 -->
<g id="node5" class="node"><title>Node3</title>
<a xlink:href="classnavdata_window.html" target="_top" xlink:title="{navdataWindow\n||+ navdataWindow()\l+ ~navdataWindow()\l}">
<polygon fill="white" stroke="black" points="112.5,-1 112.5,-69 219.5,-69 219.5,-1 112.5,-1"/>
<text text-anchor="middle" x="166" y="-57" font-family="Helvetica,sans-Serif" font-size="10.00">navdataWindow</text>
<polyline fill="none" stroke="black" points="112.5,-50 219.5,-50 "/>
<text text-anchor="middle" x="166" y="-38" font-family="Helvetica,sans-Serif" font-size="10.00"> </text>
<polyline fill="none" stroke="black" points="112.5,-31 219.5,-31 "/>
<text text-anchor="start" x="120.5" y="-19" font-family="Helvetica,sans-Serif" font-size="10.00">+ navdataWindow()</text>
<text text-anchor="start" x="120.5" y="-8" font-family="Helvetica,sans-Serif" font-size="10.00">+ ~navdataWindow()</text>
</a>
</g>
<!-- Node1&#45;&gt;Node3 -->
<g id="edge4" class="edge"><title>Node1&#45;&gt;Node3</title>
<path fill="none" stroke="midnightblue" d="M128.194,-97.7497C133.904,-88.4227 140.02,-78.4333 145.633,-69.2659"/>
<polygon fill="none" stroke="midnightblue" points="125.11,-96.0847 122.873,-106.441 131.08,-99.7398 125.11,-96.0847"/>
</g>
</g>
</svg>
