<?xml version="1.0" encoding="UTF-8" standalone="no"?>
<!DOCTYPE svg PUBLIC "-//W3C//DTD SVG 1.1//EN"
 "http://www.w3.org/Graphics/SVG/1.1/DTD/svg11.dtd">
<!-- Generated by graphviz version 2.28.0 (20121221.0049)
 -->
<!-- Title: main Pages: 1 -->
<svg width="448pt" height="674pt"
 viewBox="0.00 0.00 448.00 674.00" xmlns="http://www.w3.org/2000/svg" xmlns:xlink="http://www.w3.org/1999/xlink">
<g id="graph1" class="graph" transform="scale(1 1) rotate(0) translate(4 670)">
<title>main</title>
<polygon fill="white" stroke="white" points="-4,5 -4,-670 445,-670 445,5 -4,5"/>
<!-- Node1 -->
<g id="node1" class="node"><title>Node1</title>
<polygon fill="#bfbfbf" stroke="black" points="0,-361.5 0,-380.5 38,-380.5 38,-361.5 0,-361.5"/>
<text text-anchor="middle" x="19" y="-368.5" font-family="Helvetica,sans-Serif" font-size="10.00">main</text>
</g>
<!-- Node2 -->
<g id="node3" class="node"><title>Node2</title>
<a xlink:href="group___i_o.html#ga9cb15ec1781380780672afe306a163ec" target="_top" xlink:title="Initialise tous les ports d&#39;entreés sorties pour la carte joystick.">
<polygon fill="white" stroke="black" points="103,-646.5 103,-665.5 155,-665.5 155,-646.5 103,-646.5"/>
<text text-anchor="middle" x="129" y="-653.5" font-family="Helvetica,sans-Serif" font-size="10.00">BRDInit</text>
</a>
</g>
<!-- Node1&#45;&gt;Node2 -->
<g id="edge2" class="edge"><title>Node1&#45;&gt;Node2</title>
<path fill="none" stroke="midnightblue" d="M20.6958,-380.564C23.9921,-423.393 39.3434,-597.196 74,-637 79.0251,-642.771 85.9127,-646.79 93.0876,-649.588"/>
<polygon fill="midnightblue" stroke="midnightblue" points="92.3119,-653.013 102.902,-652.697 94.4257,-646.34 92.3119,-653.013"/>
</g>
<!-- Node3 -->
<g id="node5" class="node"><title>Node3</title>
<a xlink:href="group___i_o.html#ga47503442984c9244a27e7b95ffa472c3" target="_top" xlink:title="initialise la structure structure de l&#39;état des commandes">
<polygon fill="white" stroke="black" points="74,-608.5 74,-627.5 184,-627.5 184,-608.5 74,-608.5"/>
<text text-anchor="middle" x="129" y="-615.5" font-family="Helvetica,sans-Serif" font-size="10.00">init_etat_commandes</text>
</a>
</g>
<!-- Node1&#45;&gt;Node3 -->
<g id="edge4" class="edge"><title>Node1&#45;&gt;Node3</title>
<path fill="none" stroke="midnightblue" d="M21.0665,-380.746C25.5368,-419.944 43.9403,-565.58 74,-599 75.2109,-600.346 76.5229,-601.597 77.9155,-602.759"/>
<polygon fill="midnightblue" stroke="midnightblue" points="76.3524,-605.92 86.6301,-608.494 80.2002,-600.073 76.3524,-605.92"/>
</g>
<!-- Node4 -->
<g id="node7" class="node"><title>Node4</title>
<a xlink:href="group___connexion.html#ga4316deed036a20c32186612b0e2ed7f2" target="_top" xlink:title="fonction qui se connecte au drone. Elle se quitte uniquement si la connexion est effective">
<polygon fill="white" stroke="black" points="98.5,-570.5 98.5,-589.5 159.5,-589.5 159.5,-570.5 98.5,-570.5"/>
<text text-anchor="middle" x="129" y="-577.5" font-family="Helvetica,sans-Serif" font-size="10.00">connexion</text>
</a>
</g>
<!-- Node1&#45;&gt;Node4 -->
<g id="edge6" class="edge"><title>Node1&#45;&gt;Node4</title>
<path fill="none" stroke="midnightblue" d="M19.8234,-380.777C19.8071,-411.592 23.9609,-507.789 74,-561 78.1436,-565.406 83.3689,-568.791 88.9275,-571.392"/>
<polygon fill="midnightblue" stroke="midnightblue" points="87.875,-574.737 98.4647,-575.069 90.3933,-568.206 87.875,-574.737"/>
</g>
<!-- Node7 -->
<g id="node13" class="node"><title>Node7</title>
<a xlink:href="group___a_t_commands.html#ga6f1e46bbcb882594c8442c75ae3dedf8" target="_top" xlink:title="Constructeur de l&#39;objet ardrone.">
<polygon fill="white" stroke="black" points="91.5,-532.5 91.5,-551.5 166.5,-551.5 166.5,-532.5 91.5,-532.5"/>
<text text-anchor="middle" x="129" y="-539.5" font-family="Helvetica,sans-Serif" font-size="10.00">newARDrone</text>
</a>
</g>
<!-- Node1&#45;&gt;Node7 -->
<g id="edge12" class="edge"><title>Node1&#45;&gt;Node7</title>
<path fill="none" stroke="midnightblue" d="M20.6327,-380.69C22.8823,-407.234 32.7488,-481.874 74,-523 76.504,-525.496 79.3551,-527.666 82.4083,-529.551"/>
<polygon fill="midnightblue" stroke="midnightblue" points="80.9288,-532.726 91.4279,-534.147 84.1068,-526.489 80.9288,-532.726"/>
</g>
<!-- Node8 -->
<g id="node15" class="node"><title>Node8</title>
<a xlink:href="group___a_t_commands.html#gab107cb405a02a0e16ee50f68347c6d4d" target="_top" xlink:title="Initie la connexion avec le drone dr.">
<polygon fill="white" stroke="black" points="84.5,-494.5 84.5,-513.5 173.5,-513.5 173.5,-494.5 84.5,-494.5"/>
<text text-anchor="middle" x="129" y="-501.5" font-family="Helvetica,sans-Serif" font-size="10.00">connectToDrone</text>
</a>
</g>
<!-- Node1&#45;&gt;Node8 -->
<g id="edge14" class="edge"><title>Node1&#45;&gt;Node8</title>
<path fill="none" stroke="midnightblue" d="M21.9502,-380.77C26.8049,-402.593 41.4604,-455.681 74,-485 75.7397,-486.568 77.6167,-488.007 79.5908,-489.33"/>
<polygon fill="midnightblue" stroke="midnightblue" points="78.3024,-492.618 88.7448,-494.408 81.6983,-486.497 78.3024,-492.618"/>
</g>
<!-- Node9 -->
<g id="node17" class="node"><title>Node9</title>
<a xlink:href="group___a_t_commands.html#ga4daa3ada04813c5a99503bd329c6be2c" target="_top" xlink:title="Initialisation du drone dr pour permettre un décollage en toute sécurité.">
<polygon fill="white" stroke="black" points="101,-456.5 101,-475.5 157,-475.5 157,-456.5 101,-456.5"/>
<text text-anchor="middle" x="129" y="-463.5" font-family="Helvetica,sans-Serif" font-size="10.00">initDrone</text>
</a>
</g>
<!-- Node1&#45;&gt;Node9 -->
<g id="edge16" class="edge"><title>Node1&#45;&gt;Node9</title>
<path fill="none" stroke="midnightblue" d="M24.3855,-380.618C32.1549,-396.629 49.8255,-428.787 74,-447 79.157,-450.885 85.1744,-454.022 91.2834,-456.541"/>
<polygon fill="midnightblue" stroke="midnightblue" points="90.2539,-459.89 100.848,-460.007 92.6391,-453.309 90.2539,-459.89"/>
</g>
<!-- Node12 -->
<g id="node23" class="node"><title>Node12</title>
<a xlink:href="group___i_o.html#ga85dc4c920777870405563fe56611b457" target="_top" xlink:title="écris les valeurs de la structure de l&#39;état des commandes en sortie.">
<polygon fill="white" stroke="black" points="81,-114.5 81,-133.5 177,-133.5 177,-114.5 81,-114.5"/>
<text text-anchor="middle" x="129" y="-121.5" font-family="Helvetica,sans-Serif" font-size="10.00">ecrireCommandes</text>
</a>
</g>
<!-- Node1&#45;&gt;Node12 -->
<g id="edge22" class="edge"><title>Node1&#45;&gt;Node12</title>
<path fill="none" stroke="midnightblue" d="M19.5071,-361.208C18.3363,-327.407 18.895,-214.081 74,-148 77.082,-144.304 80.8474,-141.157 84.9424,-138.481"/>
<polygon fill="midnightblue" stroke="midnightblue" points="86.649,-141.537 93.6975,-133.627 83.2546,-135.415 86.649,-141.537"/>
</g>
<!-- Node13 -->
<g id="node25" class="node"><title>Node13</title>
<a xlink:href="group___i_o.html#ga91ea6d792c13305827a81e66a1eedf87" target="_top" xlink:title="remplie la structure de l&#39;état des commandes avec de nouvelles valeurs lues">
<polygon fill="white" stroke="black" points="86.5,-76.5 86.5,-95.5 171.5,-95.5 171.5,-76.5 86.5,-76.5"/>
<text text-anchor="middle" x="129" y="-83.5" font-family="Helvetica,sans-Serif" font-size="10.00">lireCommandes</text>
</a>
</g>
<!-- Node1&#45;&gt;Node13 -->
<g id="edge24" class="edge"><title>Node1&#45;&gt;Node13</title>
<path fill="none" stroke="midnightblue" d="M20.6958,-361.436C23.9921,-318.607 39.3434,-144.804 74,-105 75.1665,-103.66 76.4335,-102.415 77.781,-101.257"/>
<polygon fill="midnightblue" stroke="midnightblue" points="79.9158,-104.039 86.2438,-95.5416 75.9979,-98.2382 79.9158,-104.039"/>
</g>
<!-- Node20 -->
<g id="node39" class="node"><title>Node20</title>
<a xlink:href="group___a_t_commands.html#gab16c7bf6e0f5d8df9f422308cb958b2d" target="_top" xlink:title="Envoi un arrêt d&#39;urgence au drone dr.">
<polygon fill="white" stroke="black" points="114,-418.5 114,-437.5 144,-437.5 144,-418.5 114,-418.5"/>
<text text-anchor="middle" x="129" y="-425.5" font-family="Helvetica,sans-Serif" font-size="10.00">aru</text>
</a>
</g>
<!-- Node1&#45;&gt;Node20 -->
<g id="edge38" class="edge"><title>Node1&#45;&gt;Node20</title>
<path fill="none" stroke="midnightblue" d="M31.8261,-380.767C42.3777,-389.119 58.5105,-401.019 74,-409 83.4724,-413.881 94.4826,-418.006 104.081,-421.152"/>
<polygon fill="midnightblue" stroke="midnightblue" points="103.214,-424.548 113.802,-424.172 105.291,-417.863 103.214,-424.548"/>
</g>
<!-- Node21 -->
<g id="node42" class="node"><title>Node21</title>
<a xlink:href="group___a_t_commands.html#ga565736370f76ee54efe74f65acb3ccc4" target="_top" xlink:title="Commande le décollage du drone dr.">
<polygon fill="white" stroke="black" points="105.5,-266.5 105.5,-285.5 152.5,-285.5 152.5,-266.5 105.5,-266.5"/>
<text text-anchor="middle" x="129" y="-273.5" font-family="Helvetica,sans-Serif" font-size="10.00">takeoff</text>
</a>
</g>
<!-- Node1&#45;&gt;Node21 -->
<g id="edge42" class="edge"><title>Node1&#45;&gt;Node21</title>
<path fill="none" stroke="midnightblue" d="M25.2472,-361.263C33.7311,-346.31 51.7757,-317.585 74,-300 80.5053,-294.853 88.2885,-290.562 95.8933,-287.102"/>
<polygon fill="midnightblue" stroke="midnightblue" points="97.4454,-290.246 105.321,-283.159 94.7448,-283.788 97.4454,-290.246"/>
</g>
<!-- Node22 -->
<g id="node45" class="node"><title>Node22</title>
<a xlink:href="group___a_t_commands.html#ga9d9aece95d737ed64ba8e9131ff0065c" target="_top" xlink:title="Mettre une valeur de manière sécurisée dans le buffer de la vitesse verticale du drone dr...">
<polygon fill="white" stroke="black" points="234.5,-285.5 234.5,-304.5 315.5,-304.5 315.5,-285.5 234.5,-285.5"/>
<text text-anchor="middle" x="275" y="-292.5" font-family="Helvetica,sans-Serif" font-size="10.00">setGoUpDown</text>
</a>
</g>
<!-- Node1&#45;&gt;Node22 -->
<g id="edge58" class="edge"><title>Node1&#45;&gt;Node22</title>
<path fill="none" stroke="midnightblue" d="M30.7434,-361.326C41.082,-352.558 57.5319,-339.972 74,-333 122.607,-312.422 182.567,-302.921 224.091,-298.576"/>
<polygon fill="midnightblue" stroke="midnightblue" points="224.624,-302.041 234.233,-297.579 223.939,-295.074 224.624,-302.041"/>
</g>
<!-- Node23 -->
<g id="node47" class="node"><title>Node23</title>
<a xlink:href="group___a_t_commands.html#ga0d757863caf7f9c4110ab6e71cac1a4c" target="_top" xlink:title="Mettre une valeur dans de manière sécurisée dans le buffer de la vitesse angulaire du drone dr...">
<polygon fill="white" stroke="black" points="230.5,-247.5 230.5,-266.5 319.5,-266.5 319.5,-247.5 230.5,-247.5"/>
<text text-anchor="middle" x="275" y="-254.5" font-family="Helvetica,sans-Serif" font-size="10.00">setTurnLeftRight</text>
</a>
</g>
<!-- Node1&#45;&gt;Node23 -->
<g id="edge60" class="edge"><title>Node1&#45;&gt;Node23</title>
<path fill="none" stroke="midnightblue" d="M21.1548,-361.421C24.49,-338.527 36.4337,-280.773 74,-257 121.807,-226.746 189.778,-235.004 232.879,-245.006"/>
<polygon fill="midnightblue" stroke="midnightblue" points="232.196,-248.442 242.742,-247.426 233.864,-241.644 232.196,-248.442"/>
</g>
<!-- Node24 -->
<g id="node49" class="node"><title>Node24</title>
<a xlink:href="group___a_t_commands.html#ga9a290eee046f983fc53d282c0bc53aff" target="_top" xlink:title="Mettre une valeur de manière sécurisé dans le buffer de l&#39;inclinaison avant/arrière du drone dr...">
<polygon fill="white" stroke="black" points="230.5,-209.5 230.5,-228.5 319.5,-228.5 319.5,-209.5 230.5,-209.5"/>
<text text-anchor="middle" x="275" y="-216.5" font-family="Helvetica,sans-Serif" font-size="10.00">setTiltFrontBack</text>
</a>
</g>
<!-- Node1&#45;&gt;Node24 -->
<g id="edge62" class="edge"><title>Node1&#45;&gt;Node24</title>
<path fill="none" stroke="midnightblue" d="M20.37,-361.453C21.9482,-335.414 30.2577,-262.98 74,-231 116.634,-199.83 179.046,-201.412 222.78,-207.86"/>
<polygon fill="midnightblue" stroke="midnightblue" points="222.489,-211.358 232.918,-209.491 223.601,-204.447 222.489,-211.358"/>
</g>
<!-- Node25 -->
<g id="node51" class="node"><title>Node25</title>
<a xlink:href="group___a_t_commands.html#ga28a6f7458f7dbcdf7068b26236f10e2c" target="_top" xlink:title="Mettre une valeur de manière sécurisée dans le buffer de l&#39;inclinaison gauche/droite du drone dr...">
<polygon fill="white" stroke="black" points="233.5,-171.5 233.5,-190.5 316.5,-190.5 316.5,-171.5 233.5,-171.5"/>
<text text-anchor="middle" x="275" y="-178.5" font-family="Helvetica,sans-Serif" font-size="10.00">setTiltLeftRight</text>
</a>
</g>
<!-- Node1&#45;&gt;Node25 -->
<g id="edge64" class="edge"><title>Node1&#45;&gt;Node25</title>
<path fill="none" stroke="midnightblue" d="M19.6884,-361.259C19.3232,-331.533 22.6717,-241.492 74,-200 115.521,-166.436 178.897,-166.218 223.145,-171.468"/>
<polygon fill="midnightblue" stroke="midnightblue" points="222.746,-174.946 233.117,-172.781 223.66,-168.006 222.746,-174.946"/>
</g>
<!-- Node26 -->
<g id="node53" class="node"><title>Node26</title>
<a xlink:href="group___a_t_commands.html#ga89c4cd20c1bb10d5624cdcc2154efdd1" target="_top" xlink:title="Commande l&#39;atterissage du drone dr.">
<polygon fill="white" stroke="black" points="111.5,-380.5 111.5,-399.5 146.5,-399.5 146.5,-380.5 111.5,-380.5"/>
<text text-anchor="middle" x="129" y="-387.5" font-family="Helvetica,sans-Serif" font-size="10.00">land</text>
</a>
</g>
<!-- Node1&#45;&gt;Node26 -->
<g id="edge54" class="edge"><title>Node1&#45;&gt;Node26</title>
<path fill="none" stroke="midnightblue" d="M38.3207,-374.223C55.5853,-377.26 81.6569,-381.847 101.246,-385.293"/>
<polygon fill="midnightblue" stroke="midnightblue" points="100.91,-388.788 111.365,-387.074 102.123,-381.894 100.91,-388.788"/>
</g>
<!-- Node27 -->
<g id="node60" class="node"><title>Node27</title>
<a xlink:href="group___a_t_commands.html#gafba5305bd996ecb4332a17cf68e79928" target="_top" xlink:title="Envoi de la commande de vol au drone dr.">
<polygon fill="white" stroke="black" points="92,-342.5 92,-361.5 166,-361.5 166,-342.5 92,-342.5"/>
<text text-anchor="middle" x="129" y="-349.5" font-family="Helvetica,sans-Serif" font-size="10.00">volCommand</text>
</a>
</g>
<!-- Node1&#45;&gt;Node27 -->
<g id="edge66" class="edge"><title>Node1&#45;&gt;Node27</title>
<path fill="none" stroke="midnightblue" d="M38.3207,-367.777C50.2677,-365.675 66.4319,-362.831 81.7472,-360.137"/>
<polygon fill="midnightblue" stroke="midnightblue" points="82.3938,-363.577 91.6361,-358.397 81.1809,-356.683 82.3938,-363.577"/>
</g>
<!-- Node5 -->
<g id="node9" class="node"><title>Node5</title>
<a xlink:href="group___connexion.html#gad60eefc83c0bcc85273af32869e49f5d" target="_top" xlink:title="fonction de callback qui traite les points d&#39;accès donnés : recherche le point d&#39;accès du drone et se...">
<polygon fill="white" stroke="black" points="220,-570.5 220,-589.5 330,-589.5 330,-570.5 220,-570.5"/>
<text text-anchor="middle" x="275" y="-577.5" font-family="Helvetica,sans-Serif" font-size="10.00">scan_assoc_callback</text>
</a>
</g>
<!-- Node4&#45;&gt;Node5 -->
<g id="edge8" class="edge"><title>Node4&#45;&gt;Node5</title>
<path fill="none" stroke="midnightblue" d="M159.837,-580C174.298,-580 192.264,-580 209.63,-580"/>
<polygon fill="midnightblue" stroke="midnightblue" points="209.755,-583.5 219.755,-580 209.755,-576.5 209.755,-583.5"/>
</g>
<!-- Node6 -->
<g id="node11" class="node"><title>Node6</title>
<a xlink:href="group___connexion.html#ga933f44b3a816d407be7ad49f7544342e" target="_top" xlink:title="fonction qui permet le trie les points d&#39;accès WiFi par puissance du signal">
<polygon fill="white" stroke="black" points="366,-570.5 366,-589.5 440,-589.5 440,-570.5 366,-570.5"/>
<text text-anchor="middle" x="403" y="-577.5" font-family="Helvetica,sans-Serif" font-size="10.00">rxsignal_cmp</text>
</a>
</g>
<!-- Node5&#45;&gt;Node6 -->
<g id="edge10" class="edge"><title>Node5&#45;&gt;Node6</title>
<path fill="none" stroke="midnightblue" d="M330.167,-580C338.608,-580 347.266,-580 355.517,-580"/>
<polygon fill="midnightblue" stroke="midnightblue" points="355.704,-583.5 365.704,-580 355.703,-576.5 355.704,-583.5"/>
</g>
<!-- Node10 -->
<g id="node19" class="node"><title>Node10</title>
<a xlink:href="group___a_t_commands.html#gad4a88a78f2b094bcce69b749a845e11c" target="_top" xlink:title="Envoyer la commande AT qui est dans le buffer du drone dr.">
<polygon fill="white" stroke="black" points="250,-380.5 250,-399.5 300,-399.5 300,-380.5 250,-380.5"/>
<text text-anchor="middle" x="275" y="-387.5" font-family="Helvetica,sans-Serif" font-size="10.00">sendAT</text>
</a>
</g>
<!-- Node9&#45;&gt;Node10 -->
<g id="edge18" class="edge"><title>Node9&#45;&gt;Node10</title>
<path fill="none" stroke="midnightblue" d="M157.129,-457.795C165.878,-454.797 175.504,-451.119 184,-447 208.517,-435.113 234.622,-418.031 252.367,-405.669"/>
<polygon fill="midnightblue" stroke="midnightblue" points="254.685,-408.317 260.832,-399.688 250.645,-402.6 254.685,-408.317"/>
</g>
<!-- Node11 -->
<g id="node21" class="node"><title>Node11</title>
<a xlink:href="group___u_d_p.html#ga303d5a717d50385e7908c735d5bddff7" target="_top" xlink:title="envoie une chaîne de caractère">
<polygon fill="white" stroke="black" points="367,-380.5 367,-399.5 439,-399.5 439,-380.5 367,-380.5"/>
<text text-anchor="middle" x="403" y="-387.5" font-family="Helvetica,sans-Serif" font-size="10.00">send_packet</text>
</a>
</g>
<!-- Node10&#45;&gt;Node11 -->
<g id="edge20" class="edge"><title>Node10&#45;&gt;Node11</title>
<path fill="none" stroke="midnightblue" d="M300.294,-390C316.297,-390 337.74,-390 356.811,-390"/>
<polygon fill="midnightblue" stroke="midnightblue" points="356.818,-393.5 366.818,-390 356.818,-386.5 356.818,-393.5"/>
</g>
<!-- Node14 -->
<g id="node27" class="node"><title>Node14</title>
<a xlink:href="group___i_o.html#ga5232f075d5cd2577d072721a1494eb03" target="_top" xlink:title="demande au convertisseur A/N SPI de convertir le canal addr">
<polygon fill="white" stroke="black" points="249,-76.5 249,-95.5 301,-95.5 301,-76.5 249,-76.5"/>
<text text-anchor="middle" x="275" y="-83.5" font-family="Helvetica,sans-Serif" font-size="10.00">SPIread</text>
</a>
</g>
<!-- Node13&#45;&gt;Node14 -->
<g id="edge26" class="edge"><title>Node13&#45;&gt;Node14</title>
<path fill="none" stroke="midnightblue" d="M171.651,-86C192.871,-86 218.396,-86 238.647,-86"/>
<polygon fill="midnightblue" stroke="midnightblue" points="238.706,-89.5001 248.706,-86 238.706,-82.5001 238.706,-89.5001"/>
</g>
<!-- Node15 -->
<g id="node29" class="node"><title>Node15</title>
<a xlink:href="group___i_o.html#gab5cfdcd0547c9f87516a805b4849d64f" target="_top" xlink:title="modifie l&#39;état de la sortie CS pour le convertisseur A/N SPI">
<polygon fill="white" stroke="black" points="376.5,-114.5 376.5,-133.5 429.5,-133.5 429.5,-114.5 376.5,-114.5"/>
<text text-anchor="middle" x="403" y="-121.5" font-family="Helvetica,sans-Serif" font-size="10.00">SPI_CS</text>
</a>
</g>
<!-- Node14&#45;&gt;Node15 -->
<g id="edge28" class="edge"><title>Node14&#45;&gt;Node15</title>
<path fill="none" stroke="midnightblue" d="M301.195,-93.5985C319.957,-99.2569 345.818,-107.056 366.648,-113.338"/>
<polygon fill="midnightblue" stroke="midnightblue" points="365.832,-116.748 376.417,-116.284 367.853,-110.046 365.832,-116.748"/>
</g>
<!-- Node16 -->
<g id="node31" class="node"><title>Node16</title>
<a xlink:href="group___i_o.html#ga831fe77ab7ce75ba9a41ecb3c08a97d9" target="_top" xlink:title="modifie l&#39;état de la sortie DIN pour le convertisseur A/N SPI">
<polygon fill="white" stroke="black" points="375,-76.5 375,-95.5 431,-95.5 431,-76.5 375,-76.5"/>
<text text-anchor="middle" x="403" y="-83.5" font-family="Helvetica,sans-Serif" font-size="10.00">SPI_DIN</text>
</a>
</g>
<!-- Node14&#45;&gt;Node16 -->
<g id="edge30" class="edge"><title>Node14&#45;&gt;Node16</title>
<path fill="none" stroke="midnightblue" d="M301.195,-86C319.297,-86 344.008,-86 364.432,-86"/>
<polygon fill="midnightblue" stroke="midnightblue" points="364.665,-89.5001 374.665,-86 364.665,-82.5001 364.665,-89.5001"/>
</g>
<!-- Node17 -->
<g id="node33" class="node"><title>Node17</title>
<a xlink:href="group___i_o.html#ga2574e1f1506d0a5313c21891bef79aca" target="_top" xlink:title="temps d&#39;attente de &#39;i&#39; * 5 µs">
<polygon fill="white" stroke="black" points="372,-38.5 372,-57.5 434,-57.5 434,-38.5 372,-38.5"/>
<text text-anchor="middle" x="403" y="-45.5" font-family="Helvetica,sans-Serif" font-size="10.00">SPI_delay</text>
</a>
</g>
<!-- Node14&#45;&gt;Node17 -->
<g id="edge32" class="edge"><title>Node14&#45;&gt;Node17</title>
<path fill="none" stroke="midnightblue" d="M301.195,-78.4015C318.643,-73.1394 342.23,-66.0258 362.202,-60.0027"/>
<polygon fill="midnightblue" stroke="midnightblue" points="363.404,-63.2959 371.967,-57.0574 361.383,-56.594 363.404,-63.2959"/>
</g>
<!-- Node18 -->
<g id="node35" class="node"><title>Node18</title>
<a xlink:href="group___i_o.html#gaf61e8f99c1568bc62cd24251e4cc0fa2" target="_top" xlink:title="modifie l&#39;état de la sortie CLK pour le convertisseur A/N SPI">
<polygon fill="white" stroke="black" points="374,-0.5 374,-19.5 432,-19.5 432,-0.5 374,-0.5"/>
<text text-anchor="middle" x="403" y="-7.5" font-family="Helvetica,sans-Serif" font-size="10.00">SPI_CLK</text>
</a>
</g>
<!-- Node14&#45;&gt;Node18 -->
<g id="edge34" class="edge"><title>Node14&#45;&gt;Node18</title>
<path fill="none" stroke="midnightblue" d="M290.436,-76.3602C308.033,-64.7256 338.794,-44.7616 366,-29 368.666,-27.4556 371.468,-25.8862 374.282,-24.3452"/>
<polygon fill="midnightblue" stroke="midnightblue" points="376.002,-27.394 383.162,-19.5843 372.695,-21.2247 376.002,-27.394"/>
</g>
<!-- Node19 -->
<g id="node37" class="node"><title>Node19</title>
<a xlink:href="group___i_o.html#ga837457e63fcbfcc6e59b6d4c59bd7252" target="_top" xlink:title="lit l&#39;état de l&#39;entrée DOUT du convertisseur A/N SPI">
<polygon fill="white" stroke="black" points="369.5,-152.5 369.5,-171.5 436.5,-171.5 436.5,-152.5 369.5,-152.5"/>
<text text-anchor="middle" x="403" y="-159.5" font-family="Helvetica,sans-Serif" font-size="10.00">SPI_DOUT</text>
</a>
</g>
<!-- Node14&#45;&gt;Node19 -->
<g id="edge36" class="edge"><title>Node14&#45;&gt;Node19</title>
<path fill="none" stroke="midnightblue" d="M290.436,-95.6398C308.033,-107.274 338.794,-127.238 366,-143 368.666,-144.544 371.468,-146.114 374.282,-147.655"/>
<polygon fill="midnightblue" stroke="midnightblue" points="372.695,-150.775 383.162,-152.416 376.002,-144.606 372.695,-150.775"/>
</g>
<!-- Node20&#45;&gt;Node10 -->
<g id="edge40" class="edge"><title>Node20&#45;&gt;Node10</title>
<path fill="none" stroke="midnightblue" d="M144.07,-424.287C166.133,-418.465 209.5,-407.021 240.048,-398.96"/>
<polygon fill="midnightblue" stroke="midnightblue" points="241.091,-402.304 249.867,-396.369 239.305,-395.536 241.091,-402.304"/>
</g>
<!-- Node21&#45;&gt;Node10 -->
<g id="edge44" class="edge"><title>Node21&#45;&gt;Node10</title>
<path fill="none" stroke="midnightblue" d="M142.277,-285.72C167.039,-305.322 223.186,-349.772 253.566,-373.823"/>
<polygon fill="midnightblue" stroke="midnightblue" points="251.741,-376.842 261.754,-380.305 256.086,-371.354 251.741,-376.842"/>
</g>
<!-- Node21&#45;&gt;Node22 -->
<g id="edge46" class="edge"><title>Node21&#45;&gt;Node22</title>
<path fill="none" stroke="midnightblue" d="M152.817,-279.011C171.969,-281.538 200.015,-285.238 224.304,-288.443"/>
<polygon fill="midnightblue" stroke="midnightblue" points="224.074,-291.943 234.446,-289.781 224.99,-285.003 224.074,-291.943"/>
</g>
<!-- Node21&#45;&gt;Node23 -->
<g id="edge48" class="edge"><title>Node21&#45;&gt;Node23</title>
<path fill="none" stroke="midnightblue" d="M152.817,-272.989C170.917,-270.601 196.959,-267.165 220.267,-264.09"/>
<polygon fill="midnightblue" stroke="midnightblue" points="220.944,-267.531 230.4,-262.753 220.028,-260.591 220.944,-267.531"/>
</g>
<!-- Node21&#45;&gt;Node24 -->
<g id="edge50" class="edge"><title>Node21&#45;&gt;Node24</title>
<path fill="none" stroke="midnightblue" d="M151.672,-266.41C169.808,-258.491 196.429,-247.113 220,-238 225.214,-235.984 230.744,-233.937 236.199,-231.969"/>
<polygon fill="midnightblue" stroke="midnightblue" points="237.603,-235.185 245.853,-228.538 235.259,-228.589 237.603,-235.185"/>
</g>
<!-- Node21&#45;&gt;Node25 -->
<g id="edge52" class="edge"><title>Node21&#45;&gt;Node25</title>
<path fill="none" stroke="midnightblue" d="M139.102,-266.298C154.435,-250.452 186.986,-218.894 220,-200 223.639,-197.917 227.545,-196.005 231.531,-194.264"/>
<polygon fill="midnightblue" stroke="midnightblue" points="232.912,-197.481 240.891,-190.511 230.306,-190.984 232.912,-197.481"/>
</g>
<!-- Node26&#45;&gt;Node10 -->
<g id="edge56" class="edge"><title>Node26&#45;&gt;Node10</title>
<path fill="none" stroke="midnightblue" d="M146.519,-390C169.086,-390 210.106,-390 239.525,-390"/>
<polygon fill="midnightblue" stroke="midnightblue" points="239.783,-393.5 249.783,-390 239.783,-386.5 239.783,-393.5"/>
</g>
<!-- Node27&#45;&gt;Node10 -->
<g id="edge68" class="edge"><title>Node27&#45;&gt;Node10</title>
<path fill="none" stroke="midnightblue" d="M166.337,-361.589C188.922,-367.549 217.771,-375.162 239.92,-381.007"/>
<polygon fill="midnightblue" stroke="midnightblue" points="239.325,-384.47 249.887,-383.637 241.112,-377.701 239.325,-384.47"/>
</g>
</g>
</svg>
