<?xml version="1.0" encoding="UTF-8" standalone="no"?>
<!DOCTYPE svg PUBLIC "-//W3C//DTD SVG 1.1//EN"
 "http://www.w3.org/Graphics/SVG/1.1/DTD/svg11.dtd">
<!-- Generated by graphviz version 2.28.0 (20121221.0049)
 -->
<!-- Title: sendAT Pages: 1 -->
<svg width="242pt" height="180pt"
 viewBox="0.00 0.00 242.00 180.00" xmlns="http://www.w3.org/2000/svg" xmlns:xlink="http://www.w3.org/1999/xlink">
<g id="graph1" class="graph" transform="scale(1 1) rotate(0) translate(4 176)">
<title>sendAT</title>
<polygon fill="white" stroke="white" points="-4,5 -4,-176 239,-176 239,5 -4,5"/>
<!-- Node1 -->
<g id="node1" class="node"><title>Node1</title>
<polygon fill="#bfbfbf" stroke="black" points="0,-76.5 0,-95.5 50,-95.5 50,-76.5 0,-76.5"/>
<text text-anchor="middle" x="25" y="-83.5" font-family="Helvetica,sans-Serif" font-size="10.00">sendAT</text>
</g>
<!-- Node2 -->
<g id="node3" class="node"><title>Node2</title>
<a xlink:href="group___a_t_commands.html#ga4daa3ada04813c5a99503bd329c6be2c" target="_top" xlink:title="Initialisation du drone dr pour permettre un décollage en toute sécurité.">
<polygon fill="white" stroke="black" points="95,-152.5 95,-171.5 151,-171.5 151,-152.5 95,-152.5"/>
<text text-anchor="middle" x="123" y="-159.5" font-family="Helvetica,sans-Serif" font-size="10.00">initDrone</text>
</a>
</g>
<!-- Node1&#45;&gt;Node2 -->
<g id="edge2" class="edge"><title>Node1&#45;&gt;Node2</title>
<path fill="none" stroke="midnightblue" d="M41.7907,-103.342C53.3065,-115.378 69.6896,-131.289 86,-143 90.8221,-146.462 96.3557,-149.698 101.615,-152.483"/>
<polygon fill="midnightblue" stroke="midnightblue" points="44.048,-100.632 34.6566,-95.7281 38.9398,-105.419 44.048,-100.632"/>
</g>
<!-- Node4 -->
<g id="node7" class="node"><title>Node4</title>
<a xlink:href="group___a_t_commands.html#ga565736370f76ee54efe74f65acb3ccc4" target="_top" xlink:title="Commande le décollage du drone dr.">
<polygon fill="white" stroke="black" points="99.5,-114.5 99.5,-133.5 146.5,-133.5 146.5,-114.5 99.5,-114.5"/>
<text text-anchor="middle" x="123" y="-121.5" font-family="Helvetica,sans-Serif" font-size="10.00">takeoff</text>
</a>
</g>
<!-- Node1&#45;&gt;Node4 -->
<g id="edge6" class="edge"><title>Node1&#45;&gt;Node4</title>
<path fill="none" stroke="midnightblue" d="M59.8787,-99.4103C72.9921,-104.601 87.6491,-110.403 99.4316,-115.067"/>
<polygon fill="midnightblue" stroke="midnightblue" points="60.8111,-96.0152 50.2249,-95.589 58.2347,-102.524 60.8111,-96.0152"/>
</g>
<!-- Node5 -->
<g id="node10" class="node"><title>Node5</title>
<a xlink:href="group___a_t_commands.html#ga89c4cd20c1bb10d5624cdcc2154efdd1" target="_top" xlink:title="Commande l&#39;atterissage du drone dr.">
<polygon fill="white" stroke="black" points="105.5,-76.5 105.5,-95.5 140.5,-95.5 140.5,-76.5 105.5,-76.5"/>
<text text-anchor="middle" x="123" y="-83.5" font-family="Helvetica,sans-Serif" font-size="10.00">land</text>
</a>
</g>
<!-- Node1&#45;&gt;Node5 -->
<g id="edge10" class="edge"><title>Node1&#45;&gt;Node5</title>
<path fill="none" stroke="midnightblue" d="M60.4013,-86C75.6865,-86 92.9769,-86 105.34,-86"/>
<polygon fill="midnightblue" stroke="midnightblue" points="60.2249,-82.5001 50.2249,-86 60.2248,-89.5001 60.2249,-82.5001"/>
</g>
<!-- Node6 -->
<g id="node13" class="node"><title>Node6</title>
<a xlink:href="group___a_t_commands.html#gab16c7bf6e0f5d8df9f422308cb958b2d" target="_top" xlink:title="Envoi un arrêt d&#39;urgence au drone dr.">
<polygon fill="white" stroke="black" points="108,-38.5 108,-57.5 138,-57.5 138,-38.5 108,-38.5"/>
<text text-anchor="middle" x="123" y="-45.5" font-family="Helvetica,sans-Serif" font-size="10.00">aru</text>
</a>
</g>
<!-- Node1&#45;&gt;Node6 -->
<g id="edge14" class="edge"><title>Node1&#45;&gt;Node6</title>
<path fill="none" stroke="midnightblue" d="M59.618,-72.6929C76.1803,-66.137 95.2595,-58.5848 107.912,-53.5764"/>
<polygon fill="midnightblue" stroke="midnightblue" points="58.2347,-69.4761 50.2249,-76.411 60.8111,-75.9848 58.2347,-69.4761"/>
</g>
<!-- Node7 -->
<g id="node16" class="node"><title>Node7</title>
<a xlink:href="group___a_t_commands.html#gafba5305bd996ecb4332a17cf68e79928" target="_top" xlink:title="Envoi de la commande de vol au drone dr.">
<polygon fill="white" stroke="black" points="86,-0.5 86,-19.5 160,-19.5 160,-0.5 86,-0.5"/>
<text text-anchor="middle" x="123" y="-7.5" font-family="Helvetica,sans-Serif" font-size="10.00">volCommand</text>
</a>
</g>
<!-- Node1&#45;&gt;Node7 -->
<g id="edge18" class="edge"><title>Node1&#45;&gt;Node7</title>
<path fill="none" stroke="midnightblue" d="M41.7907,-68.6578C53.3065,-56.6219 69.6896,-40.7106 86,-29 90.8221,-25.5378 96.3557,-22.302 101.615,-19.5168"/>
<polygon fill="midnightblue" stroke="midnightblue" points="38.9398,-66.5814 34.6566,-76.2719 44.048,-71.3676 38.9398,-66.5814"/>
</g>
<!-- Node3 -->
<g id="node5" class="node"><title>Node3</title>
<a xlink:href="connexion_8c.html#a6288eba0f8e8ad3ab1544ad731eb7667" target="_top" xlink:title="Fonction principal : gestion du pilotage du drone en fonctions des entrées/sorties.">
<polygon fill="white" stroke="black" points="196,-76.5 196,-95.5 234,-95.5 234,-76.5 196,-76.5"/>
<text text-anchor="middle" x="215" y="-83.5" font-family="Helvetica,sans-Serif" font-size="10.00">main</text>
</a>
</g>
<!-- Node2&#45;&gt;Node3 -->
<g id="edge4" class="edge"><title>Node2&#45;&gt;Node3</title>
<path fill="none" stroke="midnightblue" d="M153.597,-147.414C155.819,-146.008 157.98,-144.532 160,-143 178.679,-128.829 196.635,-107.97 206.407,-95.8063"/>
<polygon fill="midnightblue" stroke="midnightblue" points="151.79,-144.416 144.887,-152.454 155.295,-150.475 151.79,-144.416"/>
</g>
<!-- Node4&#45;&gt;Node3 -->
<g id="edge8" class="edge"><title>Node4&#45;&gt;Node3</title>
<path fill="none" stroke="midnightblue" d="M156.065,-110.462C169.417,-104.824 184.431,-98.4849 195.828,-93.6727"/>
<polygon fill="midnightblue" stroke="midnightblue" points="154.562,-107.297 146.711,-114.411 157.285,-113.746 154.562,-107.297"/>
</g>
<!-- Node5&#45;&gt;Node3 -->
<g id="edge12" class="edge"><title>Node5&#45;&gt;Node3</title>
<path fill="none" stroke="midnightblue" d="M150.87,-86C165.353,-86 182.845,-86 195.74,-86"/>
<polygon fill="midnightblue" stroke="midnightblue" points="150.507,-82.5001 140.507,-86 150.507,-89.5001 150.507,-82.5001"/>
</g>
<!-- Node6&#45;&gt;Node3 -->
<g id="edge16" class="edge"><title>Node6&#45;&gt;Node3</title>
<path fill="none" stroke="midnightblue" d="M147.683,-57.9996C162.697,-64.3386 181.827,-72.4158 195.679,-78.2643"/>
<polygon fill="midnightblue" stroke="midnightblue" points="148.636,-54.6029 138.062,-53.9375 145.914,-61.0517 148.636,-54.6029"/>
</g>
<!-- Node7&#45;&gt;Node3 -->
<g id="edge20" class="edge"><title>Node7&#45;&gt;Node3</title>
<path fill="none" stroke="midnightblue" d="M153.597,-24.5863C155.819,-25.9916 157.98,-27.4676 160,-29 178.679,-43.171 196.635,-64.0305 206.407,-76.1937"/>
<polygon fill="midnightblue" stroke="midnightblue" points="155.295,-21.5253 144.887,-19.5464 151.79,-27.5841 155.295,-21.5253"/>
</g>
</g>
</svg>
