<?xml version="1.0" encoding="UTF-8" standalone="no"?>
<!DOCTYPE svg PUBLIC "-//W3C//DTD SVG 1.1//EN"
 "http://www.w3.org/Graphics/SVG/1.1/DTD/svg11.dtd">
<!-- Generated by graphviz version 2.28.0 (20121221.0049)
 -->
<!-- Title: SPIread Pages: 1 -->
<svg width="164pt" height="180pt"
 viewBox="0.00 0.00 164.00 180.00" xmlns="http://www.w3.org/2000/svg" xmlns:xlink="http://www.w3.org/1999/xlink">
<g id="graph1" class="graph" transform="scale(1 1) rotate(0) translate(4 176)">
<title>SPIread</title>
<polygon fill="white" stroke="white" points="-4,5 -4,-176 161,-176 161,5 -4,5"/>
<!-- Node1 -->
<g id="node1" class="node"><title>Node1</title>
<polygon fill="#bfbfbf" stroke="black" points="0,-76.5 0,-95.5 52,-95.5 52,-76.5 0,-76.5"/>
<text text-anchor="middle" x="26" y="-83.5" font-family="Helvetica,sans-Serif" font-size="10.00">SPIread</text>
</g>
<!-- Node2 -->
<g id="node3" class="node"><title>Node2</title>
<a xlink:href="group___i_o.html#gab5cfdcd0547c9f87516a805b4849d64f" target="_top" xlink:title="modifie l&#39;état de la sortie CS pour le convertisseur A/N SPI">
<polygon fill="white" stroke="black" points="95.5,-152.5 95.5,-171.5 148.5,-171.5 148.5,-152.5 95.5,-152.5"/>
<text text-anchor="middle" x="122" y="-159.5" font-family="Helvetica,sans-Serif" font-size="10.00">SPI_CS</text>
</a>
</g>
<!-- Node1&#45;&gt;Node2 -->
<g id="edge2" class="edge"><title>Node1&#45;&gt;Node2</title>
<path fill="none" stroke="midnightblue" d="M35.9195,-95.5944C47.3114,-107.539 67.9586,-128.173 88,-143 89.8568,-144.374 91.8214,-145.726 93.8298,-147.038"/>
<polygon fill="midnightblue" stroke="midnightblue" points="92.3583,-150.24 102.717,-152.465 96.0067,-144.266 92.3583,-150.24"/>
</g>
<!-- Node3 -->
<g id="node5" class="node"><title>Node3</title>
<a xlink:href="group___i_o.html#ga831fe77ab7ce75ba9a41ecb3c08a97d9" target="_top" xlink:title="modifie l&#39;état de la sortie DIN pour le convertisseur A/N SPI">
<polygon fill="white" stroke="black" points="94,-114.5 94,-133.5 150,-133.5 150,-114.5 94,-114.5"/>
<text text-anchor="middle" x="122" y="-121.5" font-family="Helvetica,sans-Serif" font-size="10.00">SPI_DIN</text>
</a>
</g>
<!-- Node1&#45;&gt;Node3 -->
<g id="edge4" class="edge"><title>Node1&#45;&gt;Node3</title>
<path fill="none" stroke="midnightblue" d="M50.7202,-95.589C61.9641,-100.134 75.5861,-105.641 87.8326,-110.592"/>
<polygon fill="midnightblue" stroke="midnightblue" points="86.7045,-113.911 97.2874,-114.414 89.3281,-107.421 86.7045,-113.911"/>
</g>
<!-- Node4 -->
<g id="node7" class="node"><title>Node4</title>
<a xlink:href="group___i_o.html#ga2574e1f1506d0a5313c21891bef79aca" target="_top" xlink:title="temps d&#39;attente de &#39;i&#39; * 5 µs">
<polygon fill="white" stroke="black" points="91,-76.5 91,-95.5 153,-95.5 153,-76.5 91,-76.5"/>
<text text-anchor="middle" x="122" y="-83.5" font-family="Helvetica,sans-Serif" font-size="10.00">SPI_delay</text>
</a>
</g>
<!-- Node1&#45;&gt;Node4 -->
<g id="edge6" class="edge"><title>Node1&#45;&gt;Node4</title>
<path fill="none" stroke="midnightblue" d="M52.1903,-86C60.8966,-86 70.8859,-86 80.5045,-86"/>
<polygon fill="midnightblue" stroke="midnightblue" points="80.7181,-89.5001 90.7181,-86 80.7181,-82.5001 80.7181,-89.5001"/>
</g>
<!-- Node5 -->
<g id="node9" class="node"><title>Node5</title>
<a xlink:href="group___i_o.html#gaf61e8f99c1568bc62cd24251e4cc0fa2" target="_top" xlink:title="modifie l&#39;état de la sortie CLK pour le convertisseur A/N SPI">
<polygon fill="white" stroke="black" points="93,-38.5 93,-57.5 151,-57.5 151,-38.5 93,-38.5"/>
<text text-anchor="middle" x="122" y="-45.5" font-family="Helvetica,sans-Serif" font-size="10.00">SPI_CLK</text>
</a>
</g>
<!-- Node1&#45;&gt;Node5 -->
<g id="edge8" class="edge"><title>Node1&#45;&gt;Node5</title>
<path fill="none" stroke="midnightblue" d="M50.7202,-76.411C61.9641,-71.8656 75.5861,-66.3588 87.8326,-61.4081"/>
<polygon fill="midnightblue" stroke="midnightblue" points="89.3281,-64.5788 97.2874,-57.5859 86.7045,-58.089 89.3281,-64.5788"/>
</g>
<!-- Node6 -->
<g id="node11" class="node"><title>Node6</title>
<a xlink:href="group___i_o.html#ga837457e63fcbfcc6e59b6d4c59bd7252" target="_top" xlink:title="lit l&#39;état de l&#39;entrée DOUT du convertisseur A/N SPI">
<polygon fill="white" stroke="black" points="88.5,-0.5 88.5,-19.5 155.5,-19.5 155.5,-0.5 88.5,-0.5"/>
<text text-anchor="middle" x="122" y="-7.5" font-family="Helvetica,sans-Serif" font-size="10.00">SPI_DOUT</text>
</a>
</g>
<!-- Node1&#45;&gt;Node6 -->
<g id="edge10" class="edge"><title>Node1&#45;&gt;Node6</title>
<path fill="none" stroke="midnightblue" d="M35.9195,-76.4056C47.3114,-64.4611 67.9586,-43.8272 88,-29 89.8568,-27.6263 91.8214,-26.2737 93.8298,-24.962"/>
<polygon fill="midnightblue" stroke="midnightblue" points="96.0067,-27.7336 102.717,-19.5346 92.3583,-21.7596 96.0067,-27.7336"/>
</g>
</g>
</svg>
