<?xml version="1.0" encoding="UTF-8" standalone="no"?>
<!DOCTYPE svg PUBLIC "-//W3C//DTD SVG 1.1//EN"
 "http://www.w3.org/Graphics/SVG/1.1/DTD/svg11.dtd">
<!-- Generated by graphviz version 2.28.0 (20121221.0049)
 -->
<!-- Title: lireCommandes Pages: 1 -->
<svg width="286pt" height="180pt"
 viewBox="0.00 0.00 286.00 180.00" xmlns="http://www.w3.org/2000/svg" xmlns:xlink="http://www.w3.org/1999/xlink">
<g id="graph1" class="graph" transform="scale(1 1) rotate(0) translate(4 176)">
<title>lireCommandes</title>
<polygon fill="white" stroke="white" points="-4,5 -4,-176 283,-176 283,5 -4,5"/>
<!-- Node1 -->
<g id="node1" class="node"><title>Node1</title>
<polygon fill="#bfbfbf" stroke="black" points="0.5,-76.5 0.5,-95.5 85.5,-95.5 85.5,-76.5 0.5,-76.5"/>
<text text-anchor="middle" x="43" y="-83.5" font-family="Helvetica,sans-Serif" font-size="10.00">lireCommandes</text>
</g>
<!-- Node2 -->
<g id="node3" class="node"><title>Node2</title>
<a xlink:href="group___i_o.html#ga5232f075d5cd2577d072721a1494eb03" target="_top" xlink:title="demande au convertisseur A/N SPI de convertir le canal addr">
<polygon fill="white" stroke="black" points="122,-76.5 122,-95.5 174,-95.5 174,-76.5 122,-76.5"/>
<text text-anchor="middle" x="148" y="-83.5" font-family="Helvetica,sans-Serif" font-size="10.00">SPIread</text>
</a>
</g>
<!-- Node1&#45;&gt;Node2 -->
<g id="edge2" class="edge"><title>Node1&#45;&gt;Node2</title>
<path fill="none" stroke="midnightblue" d="M85.5971,-86C94.2338,-86 103.256,-86 111.644,-86"/>
<polygon fill="midnightblue" stroke="midnightblue" points="111.851,-89.5001 121.851,-86 111.851,-82.5001 111.851,-89.5001"/>
</g>
<!-- Node3 -->
<g id="node5" class="node"><title>Node3</title>
<a xlink:href="group___i_o.html#gab5cfdcd0547c9f87516a805b4849d64f" target="_top" xlink:title="modifie l&#39;état de la sortie CS pour le convertisseur A/N SPI">
<polygon fill="white" stroke="black" points="217.5,-152.5 217.5,-171.5 270.5,-171.5 270.5,-152.5 217.5,-152.5"/>
<text text-anchor="middle" x="244" y="-159.5" font-family="Helvetica,sans-Serif" font-size="10.00">SPI_CS</text>
</a>
</g>
<!-- Node2&#45;&gt;Node3 -->
<g id="edge4" class="edge"><title>Node2&#45;&gt;Node3</title>
<path fill="none" stroke="midnightblue" d="M157.92,-95.5944C169.311,-107.539 189.959,-128.173 210,-143 211.857,-144.374 213.821,-145.726 215.83,-147.038"/>
<polygon fill="midnightblue" stroke="midnightblue" points="214.358,-150.24 224.717,-152.465 218.007,-144.266 214.358,-150.24"/>
</g>
<!-- Node4 -->
<g id="node7" class="node"><title>Node4</title>
<a xlink:href="group___i_o.html#ga831fe77ab7ce75ba9a41ecb3c08a97d9" target="_top" xlink:title="modifie l&#39;état de la sortie DIN pour le convertisseur A/N SPI">
<polygon fill="white" stroke="black" points="216,-114.5 216,-133.5 272,-133.5 272,-114.5 216,-114.5"/>
<text text-anchor="middle" x="244" y="-121.5" font-family="Helvetica,sans-Serif" font-size="10.00">SPI_DIN</text>
</a>
</g>
<!-- Node2&#45;&gt;Node4 -->
<g id="edge6" class="edge"><title>Node2&#45;&gt;Node4</title>
<path fill="none" stroke="midnightblue" d="M172.72,-95.589C183.964,-100.134 197.586,-105.641 209.833,-110.592"/>
<polygon fill="midnightblue" stroke="midnightblue" points="208.705,-113.911 219.287,-114.414 211.328,-107.421 208.705,-113.911"/>
</g>
<!-- Node5 -->
<g id="node9" class="node"><title>Node5</title>
<a xlink:href="group___i_o.html#ga2574e1f1506d0a5313c21891bef79aca" target="_top" xlink:title="temps d&#39;attente de &#39;i&#39; * 5 µs">
<polygon fill="white" stroke="black" points="213,-76.5 213,-95.5 275,-95.5 275,-76.5 213,-76.5"/>
<text text-anchor="middle" x="244" y="-83.5" font-family="Helvetica,sans-Serif" font-size="10.00">SPI_delay</text>
</a>
</g>
<!-- Node2&#45;&gt;Node5 -->
<g id="edge8" class="edge"><title>Node2&#45;&gt;Node5</title>
<path fill="none" stroke="midnightblue" d="M174.19,-86C182.897,-86 192.886,-86 202.505,-86"/>
<polygon fill="midnightblue" stroke="midnightblue" points="202.718,-89.5001 212.718,-86 202.718,-82.5001 202.718,-89.5001"/>
</g>
<!-- Node6 -->
<g id="node11" class="node"><title>Node6</title>
<a xlink:href="group___i_o.html#gaf61e8f99c1568bc62cd24251e4cc0fa2" target="_top" xlink:title="modifie l&#39;état de la sortie CLK pour le convertisseur A/N SPI">
<polygon fill="white" stroke="black" points="215,-38.5 215,-57.5 273,-57.5 273,-38.5 215,-38.5"/>
<text text-anchor="middle" x="244" y="-45.5" font-family="Helvetica,sans-Serif" font-size="10.00">SPI_CLK</text>
</a>
</g>
<!-- Node2&#45;&gt;Node6 -->
<g id="edge10" class="edge"><title>Node2&#45;&gt;Node6</title>
<path fill="none" stroke="midnightblue" d="M172.72,-76.411C183.964,-71.8656 197.586,-66.3588 209.833,-61.4081"/>
<polygon fill="midnightblue" stroke="midnightblue" points="211.328,-64.5788 219.287,-57.5859 208.705,-58.089 211.328,-64.5788"/>
</g>
<!-- Node7 -->
<g id="node13" class="node"><title>Node7</title>
<a xlink:href="group___i_o.html#ga837457e63fcbfcc6e59b6d4c59bd7252" target="_top" xlink:title="lit l&#39;état de l&#39;entrée DOUT du convertisseur A/N SPI">
<polygon fill="white" stroke="black" points="210.5,-0.5 210.5,-19.5 277.5,-19.5 277.5,-0.5 210.5,-0.5"/>
<text text-anchor="middle" x="244" y="-7.5" font-family="Helvetica,sans-Serif" font-size="10.00">SPI_DOUT</text>
</a>
</g>
<!-- Node2&#45;&gt;Node7 -->
<g id="edge12" class="edge"><title>Node2&#45;&gt;Node7</title>
<path fill="none" stroke="midnightblue" d="M157.92,-76.4056C169.311,-64.4611 189.959,-43.8272 210,-29 211.857,-27.6263 213.821,-26.2737 215.83,-24.962"/>
<polygon fill="midnightblue" stroke="midnightblue" points="218.007,-27.7336 224.717,-19.5346 214.358,-21.7596 218.007,-27.7336"/>
</g>
</g>
</svg>
