<?xml version="1.0" encoding="UTF-8" standalone="no"?>
<!DOCTYPE svg PUBLIC "-//W3C//DTD SVG 1.1//EN"
 "http://www.w3.org/Graphics/SVG/1.1/DTD/svg11.dtd">
<!-- Generated by graphviz version 2.28.0 (20121221.0049)
 -->
<!-- Title: connexion Pages: 1 -->
<svg width="326pt" height="28pt"
 viewBox="0.00 0.00 326.00 28.00" xmlns="http://www.w3.org/2000/svg" xmlns:xlink="http://www.w3.org/1999/xlink">
<g id="graph1" class="graph" transform="scale(1 1) rotate(0) translate(4 24)">
<title>connexion</title>
<polygon fill="white" stroke="white" points="-4,5 -4,-24 323,-24 323,5 -4,5"/>
<!-- Node1 -->
<g id="node1" class="node"><title>Node1</title>
<polygon fill="#bfbfbf" stroke="black" points="0.5,-0.5 0.5,-19.5 61.5,-19.5 61.5,-0.5 0.5,-0.5"/>
<text text-anchor="middle" x="31" y="-7.5" font-family="Helvetica,sans-Serif" font-size="10.00">connexion</text>
</g>
<!-- Node2 -->
<g id="node3" class="node"><title>Node2</title>
<a xlink:href="group___connexion.html#gad60eefc83c0bcc85273af32869e49f5d" target="_top" xlink:title="fonction de callback qui traite les points d&#39;accès donnés : recherche le point d&#39;accès du drone et se...">
<polygon fill="white" stroke="black" points="98,-0.5 98,-19.5 208,-19.5 208,-0.5 98,-0.5"/>
<text text-anchor="middle" x="153" y="-7.5" font-family="Helvetica,sans-Serif" font-size="10.00">scan_assoc_callback</text>
</a>
</g>
<!-- Node1&#45;&gt;Node2 -->
<g id="edge2" class="edge"><title>Node1&#45;&gt;Node2</title>
<path fill="none" stroke="midnightblue" d="M61.6629,-10C69.6304,-10 78.5665,-10 87.6362,-10"/>
<polygon fill="midnightblue" stroke="midnightblue" points="87.8885,-13.5001 97.8885,-10 87.8884,-6.5001 87.8885,-13.5001"/>
</g>
<!-- Node3 -->
<g id="node5" class="node"><title>Node3</title>
<a xlink:href="group___connexion.html#ga933f44b3a816d407be7ad49f7544342e" target="_top" xlink:title="fonction qui permet le trie les points d&#39;accès WiFi par puissance du signal">
<polygon fill="white" stroke="black" points="244,-0.5 244,-19.5 318,-19.5 318,-0.5 244,-0.5"/>
<text text-anchor="middle" x="281" y="-7.5" font-family="Helvetica,sans-Serif" font-size="10.00">rxsignal_cmp</text>
</a>
</g>
<!-- Node2&#45;&gt;Node3 -->
<g id="edge4" class="edge"><title>Node2&#45;&gt;Node3</title>
<path fill="none" stroke="midnightblue" d="M208.167,-10C216.608,-10 225.266,-10 233.517,-10"/>
<polygon fill="midnightblue" stroke="midnightblue" points="233.704,-13.5001 243.704,-10 233.703,-6.5001 233.704,-13.5001"/>
</g>
</g>
</svg>
