<?xml version="1.0" encoding="UTF-8" standalone="no"?>
<!DOCTYPE svg PUBLIC "-//W3C//DTD SVG 1.1//EN"
 "http://www.w3.org/Graphics/SVG/1.1/DTD/svg11.dtd">
<!-- Generated by graphviz version 2.28.0 (20121221.0049)
 -->
<!-- Title: SPI_delay Pages: 1 -->
<svg width="354pt" height="28pt"
 viewBox="0.00 0.00 354.00 28.00" xmlns="http://www.w3.org/2000/svg" xmlns:xlink="http://www.w3.org/1999/xlink">
<g id="graph1" class="graph" transform="scale(1 1) rotate(0) translate(4 24)">
<title>SPI_delay</title>
<polygon fill="white" stroke="white" points="-4,5 -4,-24 351,-24 351,5 -4,5"/>
<!-- Node1 -->
<g id="node1" class="node"><title>Node1</title>
<polygon fill="#bfbfbf" stroke="black" points="0,-0.5 0,-19.5 62,-19.5 62,-0.5 0,-0.5"/>
<text text-anchor="middle" x="31" y="-7.5" font-family="Helvetica,sans-Serif" font-size="10.00">SPI_delay</text>
</g>
<!-- Node2 -->
<g id="node3" class="node"><title>Node2</title>
<a xlink:href="group___i_o.html#ga5232f075d5cd2577d072721a1494eb03" target="_top" xlink:title="demande au convertisseur A/N SPI de convertir le canal addr">
<polygon fill="white" stroke="black" points="98,-0.5 98,-19.5 150,-19.5 150,-0.5 98,-0.5"/>
<text text-anchor="middle" x="124" y="-7.5" font-family="Helvetica,sans-Serif" font-size="10.00">SPIread</text>
</a>
</g>
<!-- Node1&#45;&gt;Node2 -->
<g id="edge2" class="edge"><title>Node1&#45;&gt;Node2</title>
<path fill="none" stroke="midnightblue" d="M72.1152,-10C80.8627,-10 89.8795,-10 97.8477,-10"/>
<polygon fill="midnightblue" stroke="midnightblue" points="72.049,-6.5001 62.049,-10 72.049,-13.5001 72.049,-6.5001"/>
</g>
<!-- Node3 -->
<g id="node5" class="node"><title>Node3</title>
<a xlink:href="group___i_o.html#ga91ea6d792c13305827a81e66a1eedf87" target="_top" xlink:title="remplie la structure de l&#39;état des commandes avec de nouvelles valeurs lues">
<polygon fill="white" stroke="black" points="186.5,-0.5 186.5,-19.5 271.5,-19.5 271.5,-0.5 186.5,-0.5"/>
<text text-anchor="middle" x="229" y="-7.5" font-family="Helvetica,sans-Serif" font-size="10.00">lireCommandes</text>
</a>
</g>
<!-- Node2&#45;&gt;Node3 -->
<g id="edge4" class="edge"><title>Node2&#45;&gt;Node3</title>
<path fill="none" stroke="midnightblue" d="M160.337,-10C168.667,-10 177.625,-10 186.209,-10"/>
<polygon fill="midnightblue" stroke="midnightblue" points="160.197,-6.5001 150.197,-10 160.197,-13.5001 160.197,-6.5001"/>
</g>
<!-- Node4 -->
<g id="node7" class="node"><title>Node4</title>
<a xlink:href="connexion_8c.html#a6288eba0f8e8ad3ab1544ad731eb7667" target="_top" xlink:title="Fonction principal : gestion du pilotage du drone en fonctions des entrées/sorties.">
<polygon fill="white" stroke="black" points="308,-0.5 308,-19.5 346,-19.5 346,-0.5 308,-0.5"/>
<text text-anchor="middle" x="327" y="-7.5" font-family="Helvetica,sans-Serif" font-size="10.00">main</text>
</a>
</g>
<!-- Node3&#45;&gt;Node4 -->
<g id="edge6" class="edge"><title>Node3&#45;&gt;Node4</title>
<path fill="none" stroke="midnightblue" d="M281.624,-10C290.905,-10 300.003,-10 307.522,-10"/>
<polygon fill="midnightblue" stroke="midnightblue" points="281.549,-6.5001 271.549,-10 281.549,-13.5001 281.549,-6.5001"/>
</g>
</g>
</svg>
