<?xml version="1.0" encoding="UTF-8" standalone="no"?>
<!DOCTYPE svg PUBLIC "-//W3C//DTD SVG 1.1//EN"
 "http://www.w3.org/Graphics/SVG/1.1/DTD/svg11.dtd">
<!-- Generated by graphviz version 2.28.0 (20121221.0049)
 -->
<!-- Title: setTiltLeftRight Pages: 1 -->
<svg width="250pt" height="47pt"
 viewBox="0.00 0.00 250.00 47.00" xmlns="http://www.w3.org/2000/svg" xmlns:xlink="http://www.w3.org/1999/xlink">
<g id="graph1" class="graph" transform="scale(1 1) rotate(0) translate(4 43)">
<title>setTiltLeftRight</title>
<polygon fill="white" stroke="white" points="-4,5 -4,-43 247,-43 247,5 -4,5"/>
<!-- Node1 -->
<g id="node1" class="node"><title>Node1</title>
<polygon fill="#bfbfbf" stroke="black" points="0.5,-19.5 0.5,-38.5 83.5,-38.5 83.5,-19.5 0.5,-19.5"/>
<text text-anchor="middle" x="42" y="-26.5" font-family="Helvetica,sans-Serif" font-size="10.00">setTiltLeftRight</text>
</g>
<!-- Node2 -->
<g id="node3" class="node"><title>Node2</title>
<a xlink:href="connexion_8c.html#a6288eba0f8e8ad3ab1544ad731eb7667" target="_top" xlink:title="Fonction principal : gestion du pilotage du drone en fonctions des entrées/sorties.">
<polygon fill="white" stroke="black" points="204,-19.5 204,-38.5 242,-38.5 242,-19.5 204,-19.5"/>
<text text-anchor="middle" x="223" y="-26.5" font-family="Helvetica,sans-Serif" font-size="10.00">main</text>
</a>
</g>
<!-- Node1&#45;&gt;Node2 -->
<g id="edge2" class="edge"><title>Node1&#45;&gt;Node2</title>
<path fill="none" stroke="midnightblue" d="M93.6944,-29C130.541,-29 178.269,-29 203.87,-29"/>
<polygon fill="midnightblue" stroke="midnightblue" points="93.6179,-25.5001 83.6179,-29 93.6178,-32.5001 93.6179,-25.5001"/>
</g>
<!-- Node3 -->
<g id="node5" class="node"><title>Node3</title>
<a xlink:href="group___a_t_commands.html#ga565736370f76ee54efe74f65acb3ccc4" target="_top" xlink:title="Commande le décollage du drone dr.">
<polygon fill="white" stroke="black" points="120.5,-0.5 120.5,-19.5 167.5,-19.5 167.5,-0.5 120.5,-0.5"/>
<text text-anchor="middle" x="144" y="-7.5" font-family="Helvetica,sans-Serif" font-size="10.00">takeoff</text>
</a>
</g>
<!-- Node1&#45;&gt;Node3 -->
<g id="edge4" class="edge"><title>Node1&#45;&gt;Node3</title>
<path fill="none" stroke="midnightblue" d="M93.7805,-19.3517C103.138,-17.5737 112.46,-15.8026 120.433,-14.2877"/>
<polygon fill="midnightblue" stroke="midnightblue" points="92.8447,-15.9668 83.6738,-21.272 94.1514,-22.8438 92.8447,-15.9668"/>
</g>
<!-- Node3&#45;&gt;Node2 -->
<g id="edge6" class="edge"><title>Node3&#45;&gt;Node2</title>
<path fill="none" stroke="midnightblue" d="M177.553,-18.0326C186.556,-20.2541 196.003,-22.5853 203.862,-24.5243"/>
<polygon fill="midnightblue" stroke="midnightblue" points="178.233,-14.5955 167.686,-15.5979 176.556,-21.3917 178.233,-14.5955"/>
</g>
</g>
</svg>
