<?xml version="1.0" encoding="UTF-8" standalone="no"?>
<!DOCTYPE svg PUBLIC "-//W3C//DTD SVG 1.1//EN"
 "http://www.w3.org/Graphics/SVG/1.1/DTD/svg11.dtd">
<!-- Generated by graphviz version 2.28.0 (20121221.0049)
 -->
<!-- Title: SPI_DOUT Pages: 1 -->
<svg width="360pt" height="28pt"
 viewBox="0.00 0.00 360.00 28.00" xmlns="http://www.w3.org/2000/svg" xmlns:xlink="http://www.w3.org/1999/xlink">
<g id="graph1" class="graph" transform="scale(1 1) rotate(0) translate(4 24)">
<title>SPI_DOUT</title>
<polygon fill="white" stroke="white" points="-4,5 -4,-24 357,-24 357,5 -4,5"/>
<!-- Node1 -->
<g id="node1" class="node"><title>Node1</title>
<polygon fill="#bfbfbf" stroke="black" points="0.5,-0.5 0.5,-19.5 67.5,-19.5 67.5,-0.5 0.5,-0.5"/>
<text text-anchor="middle" x="34" y="-7.5" font-family="Helvetica,sans-Serif" font-size="10.00">SPI_DOUT</text>
</g>
<!-- Node2 -->
<g id="node3" class="node"><title>Node2</title>
<a xlink:href="group___i_o.html#ga5232f075d5cd2577d072721a1494eb03" target="_top" xlink:title="demande au convertisseur A/N SPI de convertir le canal addr">
<polygon fill="white" stroke="black" points="104,-0.5 104,-19.5 156,-19.5 156,-0.5 104,-0.5"/>
<text text-anchor="middle" x="130" y="-7.5" font-family="Helvetica,sans-Serif" font-size="10.00">SPIread</text>
</a>
</g>
<!-- Node1&#45;&gt;Node2 -->
<g id="edge2" class="edge"><title>Node1&#45;&gt;Node2</title>
<path fill="none" stroke="midnightblue" d="M77.8798,-10C86.7688,-10 95.8558,-10 103.856,-10"/>
<polygon fill="midnightblue" stroke="midnightblue" points="77.6129,-6.5001 67.6128,-10 77.6128,-13.5001 77.6129,-6.5001"/>
</g>
<!-- Node3 -->
<g id="node5" class="node"><title>Node3</title>
<a xlink:href="group___i_o.html#ga91ea6d792c13305827a81e66a1eedf87" target="_top" xlink:title="remplie la structure de l&#39;état des commandes avec de nouvelles valeurs lues">
<polygon fill="white" stroke="black" points="192.5,-0.5 192.5,-19.5 277.5,-19.5 277.5,-0.5 192.5,-0.5"/>
<text text-anchor="middle" x="235" y="-7.5" font-family="Helvetica,sans-Serif" font-size="10.00">lireCommandes</text>
</a>
</g>
<!-- Node2&#45;&gt;Node3 -->
<g id="edge4" class="edge"><title>Node2&#45;&gt;Node3</title>
<path fill="none" stroke="midnightblue" d="M166.337,-10C174.667,-10 183.625,-10 192.209,-10"/>
<polygon fill="midnightblue" stroke="midnightblue" points="166.197,-6.5001 156.197,-10 166.197,-13.5001 166.197,-6.5001"/>
</g>
<!-- Node4 -->
<g id="node7" class="node"><title>Node4</title>
<a xlink:href="connexion_8c.html#a6288eba0f8e8ad3ab1544ad731eb7667" target="_top" xlink:title="Fonction principal : gestion du pilotage du drone en fonctions des entrées/sorties.">
<polygon fill="white" stroke="black" points="314,-0.5 314,-19.5 352,-19.5 352,-0.5 314,-0.5"/>
<text text-anchor="middle" x="333" y="-7.5" font-family="Helvetica,sans-Serif" font-size="10.00">main</text>
</a>
</g>
<!-- Node3&#45;&gt;Node4 -->
<g id="edge6" class="edge"><title>Node3&#45;&gt;Node4</title>
<path fill="none" stroke="midnightblue" d="M287.624,-10C296.905,-10 306.003,-10 313.522,-10"/>
<polygon fill="midnightblue" stroke="midnightblue" points="287.549,-6.5001 277.549,-10 287.549,-13.5001 287.549,-6.5001"/>
</g>
</g>
</svg>
