<?xml version="1.0" encoding="UTF-8" standalone="no"?>
<!DOCTYPE svg PUBLIC "-//W3C//DTD SVG 1.1//EN"
 "http://www.w3.org/Graphics/SVG/1.1/DTD/svg11.dtd">
<!-- Generated by graphviz version 2.28.0 (20121221.0049)
 -->
<!-- Title: SPI_DIN Pages: 1 -->
<svg width="348pt" height="28pt"
 viewBox="0.00 0.00 348.00 28.00" xmlns="http://www.w3.org/2000/svg" xmlns:xlink="http://www.w3.org/1999/xlink">
<g id="graph1" class="graph" transform="scale(1 1) rotate(0) translate(4 24)">
<title>SPI_DIN</title>
<polygon fill="white" stroke="white" points="-4,5 -4,-24 345,-24 345,5 -4,5"/>
<!-- Node1 -->
<g id="node1" class="node"><title>Node1</title>
<polygon fill="#bfbfbf" stroke="black" points="0,-0.5 0,-19.5 56,-19.5 56,-0.5 0,-0.5"/>
<text text-anchor="middle" x="28" y="-7.5" font-family="Helvetica,sans-Serif" font-size="10.00">SPI_DIN</text>
</g>
<!-- Node2 -->
<g id="node3" class="node"><title>Node2</title>
<a xlink:href="group___i_o.html#ga5232f075d5cd2577d072721a1494eb03" target="_top" xlink:title="demande au convertisseur A/N SPI de convertir le canal addr">
<polygon fill="white" stroke="black" points="92,-0.5 92,-19.5 144,-19.5 144,-0.5 92,-0.5"/>
<text text-anchor="middle" x="118" y="-7.5" font-family="Helvetica,sans-Serif" font-size="10.00">SPIread</text>
</a>
</g>
<!-- Node1&#45;&gt;Node2 -->
<g id="edge2" class="edge"><title>Node1&#45;&gt;Node2</title>
<path fill="none" stroke="midnightblue" d="M66.5041,-10C75.0271,-10 83.8826,-10 91.7533,-10"/>
<polygon fill="midnightblue" stroke="midnightblue" points="66.3614,-6.5001 56.3614,-10 66.3613,-13.5001 66.3614,-6.5001"/>
</g>
<!-- Node3 -->
<g id="node5" class="node"><title>Node3</title>
<a xlink:href="group___i_o.html#ga91ea6d792c13305827a81e66a1eedf87" target="_top" xlink:title="remplie la structure de l&#39;état des commandes avec de nouvelles valeurs lues">
<polygon fill="white" stroke="black" points="180.5,-0.5 180.5,-19.5 265.5,-19.5 265.5,-0.5 180.5,-0.5"/>
<text text-anchor="middle" x="223" y="-7.5" font-family="Helvetica,sans-Serif" font-size="10.00">lireCommandes</text>
</a>
</g>
<!-- Node2&#45;&gt;Node3 -->
<g id="edge4" class="edge"><title>Node2&#45;&gt;Node3</title>
<path fill="none" stroke="midnightblue" d="M154.337,-10C162.667,-10 171.625,-10 180.209,-10"/>
<polygon fill="midnightblue" stroke="midnightblue" points="154.197,-6.5001 144.197,-10 154.197,-13.5001 154.197,-6.5001"/>
</g>
<!-- Node4 -->
<g id="node7" class="node"><title>Node4</title>
<a xlink:href="connexion_8c.html#a6288eba0f8e8ad3ab1544ad731eb7667" target="_top" xlink:title="Fonction principal : gestion du pilotage du drone en fonctions des entrées/sorties.">
<polygon fill="white" stroke="black" points="302,-0.5 302,-19.5 340,-19.5 340,-0.5 302,-0.5"/>
<text text-anchor="middle" x="321" y="-7.5" font-family="Helvetica,sans-Serif" font-size="10.00">main</text>
</a>
</g>
<!-- Node3&#45;&gt;Node4 -->
<g id="edge6" class="edge"><title>Node3&#45;&gt;Node4</title>
<path fill="none" stroke="midnightblue" d="M275.624,-10C284.905,-10 294.003,-10 301.522,-10"/>
<polygon fill="midnightblue" stroke="midnightblue" points="275.549,-6.5001 265.549,-10 275.549,-13.5001 275.549,-6.5001"/>
</g>
</g>
</svg>
