<?xml version="1.0" encoding="UTF-8" standalone="no"?>
<!DOCTYPE svg PUBLIC "-//W3C//DTD SVG 1.1//EN"
 "http://www.w3.org/Graphics/SVG/1.1/DTD/svg11.dtd">
<!-- Generated by graphviz version 2.28.0 (20121221.0049)
 -->
<!-- Title: land Pages: 1 -->
<svg width="238pt" height="28pt"
 viewBox="0.00 0.00 238.00 28.00" xmlns="http://www.w3.org/2000/svg" xmlns:xlink="http://www.w3.org/1999/xlink">
<g id="graph1" class="graph" transform="scale(1 1) rotate(0) translate(4 24)">
<title>land</title>
<polygon fill="white" stroke="white" points="-4,5 -4,-24 235,-24 235,5 -4,5"/>
<!-- Node1 -->
<g id="node1" class="node"><title>Node1</title>
<polygon fill="#bfbfbf" stroke="black" points="0.5,-0.5 0.5,-19.5 35.5,-19.5 35.5,-0.5 0.5,-0.5"/>
<text text-anchor="middle" x="18" y="-7.5" font-family="Helvetica,sans-Serif" font-size="10.00">land</text>
</g>
<!-- Node2 -->
<g id="node3" class="node"><title>Node2</title>
<a xlink:href="group___a_t_commands.html#gad4a88a78f2b094bcce69b749a845e11c" target="_top" xlink:title="Envoyer la commande AT qui est dans le buffer du drone dr.">
<polygon fill="white" stroke="black" points="72,-0.5 72,-19.5 122,-19.5 122,-0.5 72,-0.5"/>
<text text-anchor="middle" x="97" y="-7.5" font-family="Helvetica,sans-Serif" font-size="10.00">sendAT</text>
</a>
</g>
<!-- Node1&#45;&gt;Node2 -->
<g id="edge2" class="edge"><title>Node1&#45;&gt;Node2</title>
<path fill="none" stroke="midnightblue" d="M35.7079,-10C43.2741,-10 52.5148,-10 61.4663,-10"/>
<polygon fill="midnightblue" stroke="midnightblue" points="61.7243,-13.5001 71.7242,-10 61.7242,-6.5001 61.7243,-13.5001"/>
</g>
<!-- Node3 -->
<g id="node5" class="node"><title>Node3</title>
<a xlink:href="group___u_d_p.html#ga303d5a717d50385e7908c735d5bddff7" target="_top" xlink:title="envoie une chaîne de caractère">
<polygon fill="white" stroke="black" points="158,-0.5 158,-19.5 230,-19.5 230,-0.5 158,-0.5"/>
<text text-anchor="middle" x="194" y="-7.5" font-family="Helvetica,sans-Serif" font-size="10.00">send_packet</text>
</a>
</g>
<!-- Node2&#45;&gt;Node3 -->
<g id="edge4" class="edge"><title>Node2&#45;&gt;Node3</title>
<path fill="none" stroke="midnightblue" d="M122.465,-10C130.21,-10 139.032,-10 147.754,-10"/>
<polygon fill="midnightblue" stroke="midnightblue" points="147.874,-13.5001 157.874,-10 147.874,-6.5001 147.874,-13.5001"/>
</g>
</g>
</svg>
