<?xml version="1.0" encoding="UTF-8" standalone="no"?>
<!DOCTYPE svg PUBLIC "-//W3C//DTD SVG 1.1//EN"
 "http://www.w3.org/Graphics/SVG/1.1/DTD/svg11.dtd">
<!-- Generated by graphviz version 2.28.0 (20121221.0049)
 -->
<!-- Title: send_packet Pages: 1 -->
<svg width="350pt" height="180pt"
 viewBox="0.00 0.00 350.00 180.00" xmlns="http://www.w3.org/2000/svg" xmlns:xlink="http://www.w3.org/1999/xlink">
<g id="graph1" class="graph" transform="scale(1 1) rotate(0) translate(4 176)">
<title>send_packet</title>
<polygon fill="white" stroke="white" points="-4,5 -4,-176 347,-176 347,5 -4,5"/>
<!-- Node1 -->
<g id="node1" class="node"><title>Node1</title>
<polygon fill="#bfbfbf" stroke="black" points="0,-76.5 0,-95.5 72,-95.5 72,-76.5 0,-76.5"/>
<text text-anchor="middle" x="36" y="-83.5" font-family="Helvetica,sans-Serif" font-size="10.00">send_packet</text>
</g>
<!-- Node2 -->
<g id="node3" class="node"><title>Node2</title>
<a xlink:href="group___a_t_commands.html#gad4a88a78f2b094bcce69b749a845e11c" target="_top" xlink:title="Envoyer la commande AT qui est dans le buffer du drone dr.">
<polygon fill="white" stroke="black" points="108,-76.5 108,-95.5 158,-95.5 158,-76.5 108,-76.5"/>
<text text-anchor="middle" x="133" y="-83.5" font-family="Helvetica,sans-Serif" font-size="10.00">sendAT</text>
</a>
</g>
<!-- Node1&#45;&gt;Node2 -->
<g id="edge2" class="edge"><title>Node1&#45;&gt;Node2</title>
<path fill="none" stroke="midnightblue" d="M82.3764,-86C91.228,-86 100.178,-86 107.994,-86"/>
<polygon fill="midnightblue" stroke="midnightblue" points="82.1046,-82.5001 72.1046,-86 82.1045,-89.5001 82.1046,-82.5001"/>
</g>
<!-- Node3 -->
<g id="node5" class="node"><title>Node3</title>
<a xlink:href="group___a_t_commands.html#ga4daa3ada04813c5a99503bd329c6be2c" target="_top" xlink:title="Initialisation du drone dr pour permettre un décollage en toute sécurité.">
<polygon fill="white" stroke="black" points="203,-152.5 203,-171.5 259,-171.5 259,-152.5 203,-152.5"/>
<text text-anchor="middle" x="231" y="-159.5" font-family="Helvetica,sans-Serif" font-size="10.00">initDrone</text>
</a>
</g>
<!-- Node2&#45;&gt;Node3 -->
<g id="edge4" class="edge"><title>Node2&#45;&gt;Node3</title>
<path fill="none" stroke="midnightblue" d="M149.791,-103.342C161.307,-115.378 177.69,-131.289 194,-143 198.822,-146.462 204.356,-149.698 209.615,-152.483"/>
<polygon fill="midnightblue" stroke="midnightblue" points="152.048,-100.632 142.657,-95.7281 146.94,-105.419 152.048,-100.632"/>
</g>
<!-- Node5 -->
<g id="node9" class="node"><title>Node5</title>
<a xlink:href="group___a_t_commands.html#ga565736370f76ee54efe74f65acb3ccc4" target="_top" xlink:title="Commande le décollage du drone dr.">
<polygon fill="white" stroke="black" points="207.5,-114.5 207.5,-133.5 254.5,-133.5 254.5,-114.5 207.5,-114.5"/>
<text text-anchor="middle" x="231" y="-121.5" font-family="Helvetica,sans-Serif" font-size="10.00">takeoff</text>
</a>
</g>
<!-- Node2&#45;&gt;Node5 -->
<g id="edge8" class="edge"><title>Node2&#45;&gt;Node5</title>
<path fill="none" stroke="midnightblue" d="M167.879,-99.4103C180.992,-104.601 195.649,-110.403 207.432,-115.067"/>
<polygon fill="midnightblue" stroke="midnightblue" points="168.811,-96.0152 158.225,-95.589 166.235,-102.524 168.811,-96.0152"/>
</g>
<!-- Node6 -->
<g id="node12" class="node"><title>Node6</title>
<a xlink:href="group___a_t_commands.html#ga89c4cd20c1bb10d5624cdcc2154efdd1" target="_top" xlink:title="Commande l&#39;atterissage du drone dr.">
<polygon fill="white" stroke="black" points="213.5,-76.5 213.5,-95.5 248.5,-95.5 248.5,-76.5 213.5,-76.5"/>
<text text-anchor="middle" x="231" y="-83.5" font-family="Helvetica,sans-Serif" font-size="10.00">land</text>
</a>
</g>
<!-- Node2&#45;&gt;Node6 -->
<g id="edge12" class="edge"><title>Node2&#45;&gt;Node6</title>
<path fill="none" stroke="midnightblue" d="M168.401,-86C183.687,-86 200.977,-86 213.34,-86"/>
<polygon fill="midnightblue" stroke="midnightblue" points="168.225,-82.5001 158.225,-86 168.225,-89.5001 168.225,-82.5001"/>
</g>
<!-- Node7 -->
<g id="node15" class="node"><title>Node7</title>
<a xlink:href="group___a_t_commands.html#gab16c7bf6e0f5d8df9f422308cb958b2d" target="_top" xlink:title="Envoi un arrêt d&#39;urgence au drone dr.">
<polygon fill="white" stroke="black" points="216,-38.5 216,-57.5 246,-57.5 246,-38.5 216,-38.5"/>
<text text-anchor="middle" x="231" y="-45.5" font-family="Helvetica,sans-Serif" font-size="10.00">aru</text>
</a>
</g>
<!-- Node2&#45;&gt;Node7 -->
<g id="edge16" class="edge"><title>Node2&#45;&gt;Node7</title>
<path fill="none" stroke="midnightblue" d="M167.618,-72.6929C184.18,-66.137 203.259,-58.5848 215.912,-53.5764"/>
<polygon fill="midnightblue" stroke="midnightblue" points="166.235,-69.4761 158.225,-76.411 168.811,-75.9848 166.235,-69.4761"/>
</g>
<!-- Node8 -->
<g id="node18" class="node"><title>Node8</title>
<a xlink:href="group___a_t_commands.html#gafba5305bd996ecb4332a17cf68e79928" target="_top" xlink:title="Envoi de la commande de vol au drone dr.">
<polygon fill="white" stroke="black" points="194,-0.5 194,-19.5 268,-19.5 268,-0.5 194,-0.5"/>
<text text-anchor="middle" x="231" y="-7.5" font-family="Helvetica,sans-Serif" font-size="10.00">volCommand</text>
</a>
</g>
<!-- Node2&#45;&gt;Node8 -->
<g id="edge20" class="edge"><title>Node2&#45;&gt;Node8</title>
<path fill="none" stroke="midnightblue" d="M149.791,-68.6578C161.307,-56.6219 177.69,-40.7106 194,-29 198.822,-25.5378 204.356,-22.302 209.615,-19.5168"/>
<polygon fill="midnightblue" stroke="midnightblue" points="146.94,-66.5814 142.657,-76.2719 152.048,-71.3676 146.94,-66.5814"/>
</g>
<!-- Node4 -->
<g id="node7" class="node"><title>Node4</title>
<a xlink:href="connexion_8c.html#a6288eba0f8e8ad3ab1544ad731eb7667" target="_top" xlink:title="Fonction principal : gestion du pilotage du drone en fonctions des entrées/sorties.">
<polygon fill="white" stroke="black" points="304,-76.5 304,-95.5 342,-95.5 342,-76.5 304,-76.5"/>
<text text-anchor="middle" x="323" y="-83.5" font-family="Helvetica,sans-Serif" font-size="10.00">main</text>
</a>
</g>
<!-- Node3&#45;&gt;Node4 -->
<g id="edge6" class="edge"><title>Node3&#45;&gt;Node4</title>
<path fill="none" stroke="midnightblue" d="M261.597,-147.414C263.819,-146.008 265.98,-144.532 268,-143 286.679,-128.829 304.635,-107.97 314.407,-95.8063"/>
<polygon fill="midnightblue" stroke="midnightblue" points="259.79,-144.416 252.887,-152.454 263.295,-150.475 259.79,-144.416"/>
</g>
<!-- Node5&#45;&gt;Node4 -->
<g id="edge10" class="edge"><title>Node5&#45;&gt;Node4</title>
<path fill="none" stroke="midnightblue" d="M264.065,-110.462C277.417,-104.824 292.431,-98.4849 303.828,-93.6727"/>
<polygon fill="midnightblue" stroke="midnightblue" points="262.562,-107.297 254.711,-114.411 265.285,-113.746 262.562,-107.297"/>
</g>
<!-- Node6&#45;&gt;Node4 -->
<g id="edge14" class="edge"><title>Node6&#45;&gt;Node4</title>
<path fill="none" stroke="midnightblue" d="M258.87,-86C273.353,-86 290.845,-86 303.74,-86"/>
<polygon fill="midnightblue" stroke="midnightblue" points="258.507,-82.5001 248.507,-86 258.507,-89.5001 258.507,-82.5001"/>
</g>
<!-- Node7&#45;&gt;Node4 -->
<g id="edge18" class="edge"><title>Node7&#45;&gt;Node4</title>
<path fill="none" stroke="midnightblue" d="M255.683,-57.9996C270.697,-64.3386 289.827,-72.4158 303.679,-78.2643"/>
<polygon fill="midnightblue" stroke="midnightblue" points="256.636,-54.6029 246.062,-53.9375 253.914,-61.0517 256.636,-54.6029"/>
</g>
<!-- Node8&#45;&gt;Node4 -->
<g id="edge22" class="edge"><title>Node8&#45;&gt;Node4</title>
<path fill="none" stroke="midnightblue" d="M261.597,-24.5863C263.819,-25.9916 265.98,-27.4676 268,-29 286.679,-43.171 304.635,-64.0305 314.407,-76.1937"/>
<polygon fill="midnightblue" stroke="midnightblue" points="263.295,-21.5253 252.887,-19.5464 259.79,-27.5841 263.295,-21.5253"/>
</g>
</g>
</svg>
