<?xml version="1.0" encoding="UTF-8" standalone="no"?>
<!DOCTYPE svg PUBLIC "-//W3C//DTD SVG 1.1//EN"
 "http://www.w3.org/Graphics/SVG/1.1/DTD/svg11.dtd">
<!-- Generated by graphviz version 2.28.0 (20121221.0049)
 -->
<!-- Title: scan_assoc_callback Pages: 1 -->
<svg width="290pt" height="28pt"
 viewBox="0.00 0.00 290.00 28.00" xmlns="http://www.w3.org/2000/svg" xmlns:xlink="http://www.w3.org/1999/xlink">
<g id="graph1" class="graph" transform="scale(1 1) rotate(0) translate(4 24)">
<title>scan_assoc_callback</title>
<polygon fill="white" stroke="white" points="-4,5 -4,-24 287,-24 287,5 -4,5"/>
<!-- Node1 -->
<g id="node1" class="node"><title>Node1</title>
<polygon fill="#bfbfbf" stroke="black" points="0,-0.5 0,-19.5 110,-19.5 110,-0.5 0,-0.5"/>
<text text-anchor="middle" x="55" y="-7.5" font-family="Helvetica,sans-Serif" font-size="10.00">scan_assoc_callback</text>
</g>
<!-- Node2 -->
<g id="node3" class="node"><title>Node2</title>
<a xlink:href="group___connexion.html#ga4316deed036a20c32186612b0e2ed7f2" target="_top" xlink:title="fonction qui se connecte au drone. Elle se quitte uniquement si la connexion est effective">
<polygon fill="white" stroke="black" points="146.5,-0.5 146.5,-19.5 207.5,-19.5 207.5,-0.5 146.5,-0.5"/>
<text text-anchor="middle" x="177" y="-7.5" font-family="Helvetica,sans-Serif" font-size="10.00">connexion</text>
</a>
</g>
<!-- Node1&#45;&gt;Node2 -->
<g id="edge2" class="edge"><title>Node1&#45;&gt;Node2</title>
<path fill="none" stroke="midnightblue" d="M120.272,-10C129.331,-10 138.26,-10 146.226,-10"/>
<polygon fill="midnightblue" stroke="midnightblue" points="120.032,-6.5001 110.032,-10 120.032,-13.5001 120.032,-6.5001"/>
</g>
<!-- Node3 -->
<g id="node5" class="node"><title>Node3</title>
<a xlink:href="connexion_8c.html#a6288eba0f8e8ad3ab1544ad731eb7667" target="_top" xlink:title="Fonction principal : gestion du pilotage du drone en fonctions des entrées/sorties.">
<polygon fill="white" stroke="black" points="244,-0.5 244,-19.5 282,-19.5 282,-0.5 244,-0.5"/>
<text text-anchor="middle" x="263" y="-7.5" font-family="Helvetica,sans-Serif" font-size="10.00">main</text>
</a>
</g>
<!-- Node2&#45;&gt;Node3 -->
<g id="edge4" class="edge"><title>Node2&#45;&gt;Node3</title>
<path fill="none" stroke="midnightblue" d="M217.992,-10C227.101,-10 236.337,-10 243.98,-10"/>
<polygon fill="midnightblue" stroke="midnightblue" points="217.852,-6.5001 207.852,-10 217.852,-13.5001 217.852,-6.5001"/>
</g>
</g>
</svg>
