<?xml version="1.0" encoding="UTF-8" standalone="no"?>
<!DOCTYPE svg PUBLIC "-//W3C//DTD SVG 1.1//EN"
 "http://www.w3.org/Graphics/SVG/1.1/DTD/svg11.dtd">
<!-- Generated by graphviz version 2.28.0 (20121221.0049)
 -->
<!-- Title: takeoff Pages: 1 -->
<svg width="290pt" height="180pt"
 viewBox="0.00 0.00 290.00 180.00" xmlns="http://www.w3.org/2000/svg" xmlns:xlink="http://www.w3.org/1999/xlink">
<g id="graph1" class="graph" transform="scale(1 1) rotate(0) translate(4 176)">
<title>takeoff</title>
<polygon fill="white" stroke="white" points="-4,5 -4,-176 287,-176 287,5 -4,5"/>
<!-- Node1 -->
<g id="node1" class="node"><title>Node1</title>
<polygon fill="#bfbfbf" stroke="black" points="0.5,-76.5 0.5,-95.5 47.5,-95.5 47.5,-76.5 0.5,-76.5"/>
<text text-anchor="middle" x="24" y="-83.5" font-family="Helvetica,sans-Serif" font-size="10.00">takeoff</text>
</g>
<!-- Node2 -->
<g id="node3" class="node"><title>Node2</title>
<a xlink:href="group___a_t_commands.html#gad4a88a78f2b094bcce69b749a845e11c" target="_top" xlink:title="Envoyer la commande AT qui est dans le buffer du drone dr.">
<polygon fill="white" stroke="black" points="104,-152.5 104,-171.5 154,-171.5 154,-152.5 104,-152.5"/>
<text text-anchor="middle" x="129" y="-159.5" font-family="Helvetica,sans-Serif" font-size="10.00">sendAT</text>
</a>
</g>
<!-- Node1&#45;&gt;Node2 -->
<g id="edge2" class="edge"><title>Node1&#45;&gt;Node2</title>
<path fill="none" stroke="midnightblue" d="M32.935,-95.5676C43.533,-107.862 63.3787,-129.256 84,-143 87.332,-145.221 90.9662,-147.278 94.6713,-149.155"/>
<polygon fill="midnightblue" stroke="midnightblue" points="93.3512,-152.401 103.895,-153.439 96.2997,-146.052 93.3512,-152.401"/>
</g>
<!-- Node4 -->
<g id="node7" class="node"><title>Node4</title>
<a xlink:href="group___a_t_commands.html#ga9d9aece95d737ed64ba8e9131ff0065c" target="_top" xlink:title="Mettre une valeur de manière sécurisée dans le buffer de la vitesse verticale du drone dr...">
<polygon fill="white" stroke="black" points="88.5,-114.5 88.5,-133.5 169.5,-133.5 169.5,-114.5 88.5,-114.5"/>
<text text-anchor="middle" x="129" y="-121.5" font-family="Helvetica,sans-Serif" font-size="10.00">setGoUpDown</text>
</a>
</g>
<!-- Node1&#45;&gt;Node4 -->
<g id="edge6" class="edge"><title>Node1&#45;&gt;Node4</title>
<path fill="none" stroke="midnightblue" d="M47.6038,-94.3393C60.8169,-99.214 77.782,-105.473 92.7196,-110.984"/>
<polygon fill="midnightblue" stroke="midnightblue" points="91.5899,-114.298 102.183,-114.475 94.0128,-107.73 91.5899,-114.298"/>
</g>
<!-- Node5 -->
<g id="node9" class="node"><title>Node5</title>
<a xlink:href="group___a_t_commands.html#ga0d757863caf7f9c4110ab6e71cac1a4c" target="_top" xlink:title="Mettre une valeur dans de manière sécurisée dans le buffer de la vitesse angulaire du drone dr...">
<polygon fill="white" stroke="black" points="84.5,-76.5 84.5,-95.5 173.5,-95.5 173.5,-76.5 84.5,-76.5"/>
<text text-anchor="middle" x="129" y="-83.5" font-family="Helvetica,sans-Serif" font-size="10.00">setTurnLeftRight</text>
</a>
</g>
<!-- Node1&#45;&gt;Node5 -->
<g id="edge8" class="edge"><title>Node1&#45;&gt;Node5</title>
<path fill="none" stroke="midnightblue" d="M47.6038,-86C55.5187,-86 64.7799,-86 74.1452,-86"/>
<polygon fill="midnightblue" stroke="midnightblue" points="74.2896,-89.5001 84.2896,-86 74.2895,-82.5001 74.2896,-89.5001"/>
</g>
<!-- Node6 -->
<g id="node11" class="node"><title>Node6</title>
<a xlink:href="group___a_t_commands.html#ga9a290eee046f983fc53d282c0bc53aff" target="_top" xlink:title="Mettre une valeur de manière sécurisé dans le buffer de l&#39;inclinaison avant/arrière du drone dr...">
<polygon fill="white" stroke="black" points="84.5,-38.5 84.5,-57.5 173.5,-57.5 173.5,-38.5 84.5,-38.5"/>
<text text-anchor="middle" x="129" y="-45.5" font-family="Helvetica,sans-Serif" font-size="10.00">setTiltFrontBack</text>
</a>
</g>
<!-- Node1&#45;&gt;Node6 -->
<g id="edge10" class="edge"><title>Node1&#45;&gt;Node6</title>
<path fill="none" stroke="midnightblue" d="M47.6038,-77.6607C60.8169,-72.786 77.782,-66.527 92.7196,-61.0161"/>
<polygon fill="midnightblue" stroke="midnightblue" points="94.0128,-64.2696 102.183,-57.5246 91.5899,-57.7023 94.0128,-64.2696"/>
</g>
<!-- Node7 -->
<g id="node13" class="node"><title>Node7</title>
<a xlink:href="group___a_t_commands.html#ga28a6f7458f7dbcdf7068b26236f10e2c" target="_top" xlink:title="Mettre une valeur de manière sécurisée dans le buffer de l&#39;inclinaison gauche/droite du drone dr...">
<polygon fill="white" stroke="black" points="87.5,-0.5 87.5,-19.5 170.5,-19.5 170.5,-0.5 87.5,-0.5"/>
<text text-anchor="middle" x="129" y="-7.5" font-family="Helvetica,sans-Serif" font-size="10.00">setTiltLeftRight</text>
</a>
</g>
<!-- Node1&#45;&gt;Node7 -->
<g id="edge12" class="edge"><title>Node1&#45;&gt;Node7</title>
<path fill="none" stroke="midnightblue" d="M32.935,-76.4324C43.533,-64.1375 63.3787,-42.7443 84,-29 86.7002,-27.2003 89.5989,-25.5079 92.5729,-23.932"/>
<polygon fill="midnightblue" stroke="midnightblue" points="94.1223,-27.0706 101.598,-19.5627 91.072,-20.7701 94.1223,-27.0706"/>
</g>
<!-- Node3 -->
<g id="node5" class="node"><title>Node3</title>
<a xlink:href="group___u_d_p.html#ga303d5a717d50385e7908c735d5bddff7" target="_top" xlink:title="envoie une chaîne de caractère">
<polygon fill="white" stroke="black" points="210,-152.5 210,-171.5 282,-171.5 282,-152.5 210,-152.5"/>
<text text-anchor="middle" x="246" y="-159.5" font-family="Helvetica,sans-Serif" font-size="10.00">send_packet</text>
</a>
</g>
<!-- Node2&#45;&gt;Node3 -->
<g id="edge4" class="edge"><title>Node2&#45;&gt;Node3</title>
<path fill="none" stroke="midnightblue" d="M154.108,-162C167.165,-162 183.738,-162 199.146,-162"/>
<polygon fill="midnightblue" stroke="midnightblue" points="199.57,-165.5 209.57,-162 199.57,-158.5 199.57,-165.5"/>
</g>
</g>
</svg>
