<?xml version="1.0" encoding="UTF-8" standalone="no"?>
<!DOCTYPE svg PUBLIC "-//W3C//DTD SVG 1.1//EN"
 "http://www.w3.org/Graphics/SVG/1.1/DTD/svg11.dtd">
<!-- Generated by graphviz version 2.28.0 (20121221.0049)
 -->
<!-- Title: setGoUpDown Pages: 1 -->
<svg width="248pt" height="47pt"
 viewBox="0.00 0.00 248.00 47.00" xmlns="http://www.w3.org/2000/svg" xmlns:xlink="http://www.w3.org/1999/xlink">
<g id="graph1" class="graph" transform="scale(1 1) rotate(0) translate(4 43)">
<title>setGoUpDown</title>
<polygon fill="white" stroke="white" points="-4,5 -4,-43 245,-43 245,5 -4,5"/>
<!-- Node1 -->
<g id="node1" class="node"><title>Node1</title>
<polygon fill="#bfbfbf" stroke="black" points="0.5,-19.5 0.5,-38.5 81.5,-38.5 81.5,-19.5 0.5,-19.5"/>
<text text-anchor="middle" x="41" y="-26.5" font-family="Helvetica,sans-Serif" font-size="10.00">setGoUpDown</text>
</g>
<!-- Node2 -->
<g id="node3" class="node"><title>Node2</title>
<a xlink:href="connexion_8c.html#a6288eba0f8e8ad3ab1544ad731eb7667" target="_top" xlink:title="Fonction principal : gestion du pilotage du drone en fonctions des entrées/sorties.">
<polygon fill="white" stroke="black" points="202,-19.5 202,-38.5 240,-38.5 240,-19.5 202,-19.5"/>
<text text-anchor="middle" x="221" y="-26.5" font-family="Helvetica,sans-Serif" font-size="10.00">main</text>
</a>
</g>
<!-- Node1&#45;&gt;Node2 -->
<g id="edge2" class="edge"><title>Node1&#45;&gt;Node2</title>
<path fill="none" stroke="midnightblue" d="M91.5213,-29C128.19,-29 176.072,-29 201.782,-29"/>
<polygon fill="midnightblue" stroke="midnightblue" points="91.504,-25.5001 81.504,-29 91.5039,-32.5001 91.504,-25.5001"/>
</g>
<!-- Node3 -->
<g id="node5" class="node"><title>Node3</title>
<a xlink:href="group___a_t_commands.html#ga565736370f76ee54efe74f65acb3ccc4" target="_top" xlink:title="Commande le décollage du drone dr.">
<polygon fill="white" stroke="black" points="118.5,-0.5 118.5,-19.5 165.5,-19.5 165.5,-0.5 118.5,-0.5"/>
<text text-anchor="middle" x="142" y="-7.5" font-family="Helvetica,sans-Serif" font-size="10.00">takeoff</text>
</a>
</g>
<!-- Node1&#45;&gt;Node3 -->
<g id="edge4" class="edge"><title>Node1&#45;&gt;Node3</title>
<path fill="none" stroke="midnightblue" d="M91.7624,-19.4496C101.092,-17.6591 110.409,-15.871 118.388,-14.3396"/>
<polygon fill="midnightblue" stroke="midnightblue" points="90.8577,-16.0593 81.6967,-21.3815 92.1771,-22.9338 90.8577,-16.0593"/>
</g>
<!-- Node3&#45;&gt;Node2 -->
<g id="edge6" class="edge"><title>Node3&#45;&gt;Node2</title>
<path fill="none" stroke="midnightblue" d="M175.553,-18.0326C184.556,-20.2541 194.003,-22.5853 201.862,-24.5243"/>
<polygon fill="midnightblue" stroke="midnightblue" points="176.233,-14.5955 165.686,-15.5979 174.556,-21.3917 176.233,-14.5955"/>
</g>
</g>
</svg>
