<?xml version="1.0" encoding="UTF-8" standalone="no"?>
<!DOCTYPE svg PUBLIC "-//W3C//DTD SVG 1.1//EN"
 "http://www.w3.org/Graphics/SVG/1.1/DTD/svg11.dtd">
<!-- Generated by graphviz version 2.28.0 (20121221.0049)
 -->
<!-- Title: rxsignal_cmp Pages: 1 -->
<svg width="400pt" height="28pt"
 viewBox="0.00 0.00 400.00 28.00" xmlns="http://www.w3.org/2000/svg" xmlns:xlink="http://www.w3.org/1999/xlink">
<g id="graph1" class="graph" transform="scale(1 1) rotate(0) translate(4 24)">
<title>rxsignal_cmp</title>
<polygon fill="white" stroke="white" points="-4,5 -4,-24 397,-24 397,5 -4,5"/>
<!-- Node1 -->
<g id="node1" class="node"><title>Node1</title>
<polygon fill="#bfbfbf" stroke="black" points="0,-0.5 0,-19.5 74,-19.5 74,-0.5 0,-0.5"/>
<text text-anchor="middle" x="37" y="-7.5" font-family="Helvetica,sans-Serif" font-size="10.00">rxsignal_cmp</text>
</g>
<!-- Node2 -->
<g id="node3" class="node"><title>Node2</title>
<a xlink:href="group___connexion.html#gad60eefc83c0bcc85273af32869e49f5d" target="_top" xlink:title="fonction de callback qui traite les points d&#39;accès donnés : recherche le point d&#39;accès du drone et se...">
<polygon fill="white" stroke="black" points="110,-0.5 110,-19.5 220,-19.5 220,-0.5 110,-0.5"/>
<text text-anchor="middle" x="165" y="-7.5" font-family="Helvetica,sans-Serif" font-size="10.00">scan_assoc_callback</text>
</a>
</g>
<!-- Node1&#45;&gt;Node2 -->
<g id="edge2" class="edge"><title>Node1&#45;&gt;Node2</title>
<path fill="none" stroke="midnightblue" d="M84.264,-10C92.4932,-10 101.133,-10 109.565,-10"/>
<polygon fill="midnightblue" stroke="midnightblue" points="84.1066,-6.5001 74.1065,-10 84.1065,-13.5001 84.1066,-6.5001"/>
</g>
<!-- Node3 -->
<g id="node5" class="node"><title>Node3</title>
<a xlink:href="group___connexion.html#ga4316deed036a20c32186612b0e2ed7f2" target="_top" xlink:title="fonction qui se connecte au drone. Elle se quitte uniquement si la connexion est effective">
<polygon fill="white" stroke="black" points="256.5,-0.5 256.5,-19.5 317.5,-19.5 317.5,-0.5 256.5,-0.5"/>
<text text-anchor="middle" x="287" y="-7.5" font-family="Helvetica,sans-Serif" font-size="10.00">connexion</text>
</a>
</g>
<!-- Node2&#45;&gt;Node3 -->
<g id="edge4" class="edge"><title>Node2&#45;&gt;Node3</title>
<path fill="none" stroke="midnightblue" d="M230.272,-10C239.331,-10 248.26,-10 256.226,-10"/>
<polygon fill="midnightblue" stroke="midnightblue" points="230.032,-6.5001 220.032,-10 230.032,-13.5001 230.032,-6.5001"/>
</g>
<!-- Node4 -->
<g id="node7" class="node"><title>Node4</title>
<a xlink:href="connexion_8c.html#a6288eba0f8e8ad3ab1544ad731eb7667" target="_top" xlink:title="Fonction principal : gestion du pilotage du drone en fonctions des entrées/sorties.">
<polygon fill="white" stroke="black" points="354,-0.5 354,-19.5 392,-19.5 392,-0.5 354,-0.5"/>
<text text-anchor="middle" x="373" y="-7.5" font-family="Helvetica,sans-Serif" font-size="10.00">main</text>
</a>
</g>
<!-- Node3&#45;&gt;Node4 -->
<g id="edge6" class="edge"><title>Node3&#45;&gt;Node4</title>
<path fill="none" stroke="midnightblue" d="M327.992,-10C337.101,-10 346.337,-10 353.98,-10"/>
<polygon fill="midnightblue" stroke="midnightblue" points="327.852,-6.5001 317.852,-10 327.852,-13.5001 327.852,-6.5001"/>
</g>
</g>
</svg>
