<?xml version="1.0" encoding="UTF-8" standalone="no"?>
<!DOCTYPE svg PUBLIC "-//W3C//DTD SVG 1.1//EN"
 "http://www.w3.org/Graphics/SVG/1.1/DTD/svg11.dtd">
<!-- Generated by graphviz version 2.28.0 (20121221.0049)
 -->
<!-- Title: volCommand Pages: 1 -->
<svg width="276pt" height="28pt"
 viewBox="0.00 0.00 276.00 28.00" xmlns="http://www.w3.org/2000/svg" xmlns:xlink="http://www.w3.org/1999/xlink">
<g id="graph1" class="graph" transform="scale(1 1) rotate(0) translate(4 24)">
<title>volCommand</title>
<polygon fill="white" stroke="white" points="-4,5 -4,-24 273,-24 273,5 -4,5"/>
<!-- Node1 -->
<g id="node1" class="node"><title>Node1</title>
<polygon fill="#bfbfbf" stroke="black" points="0,-0.5 0,-19.5 74,-19.5 74,-0.5 0,-0.5"/>
<text text-anchor="middle" x="37" y="-7.5" font-family="Helvetica,sans-Serif" font-size="10.00">volCommand</text>
</g>
<!-- Node2 -->
<g id="node3" class="node"><title>Node2</title>
<a xlink:href="group___a_t_commands.html#gad4a88a78f2b094bcce69b749a845e11c" target="_top" xlink:title="Envoyer la commande AT qui est dans le buffer du drone dr.">
<polygon fill="white" stroke="black" points="110,-0.5 110,-19.5 160,-19.5 160,-0.5 110,-0.5"/>
<text text-anchor="middle" x="135" y="-7.5" font-family="Helvetica,sans-Serif" font-size="10.00">sendAT</text>
</a>
</g>
<!-- Node1&#45;&gt;Node2 -->
<g id="edge2" class="edge"><title>Node1&#45;&gt;Node2</title>
<path fill="none" stroke="midnightblue" d="M74.02,-10C82.3996,-10 91.2996,-10 99.6069,-10"/>
<polygon fill="midnightblue" stroke="midnightblue" points="99.7287,-13.5001 109.729,-10 99.7286,-6.5001 99.7287,-13.5001"/>
</g>
<!-- Node3 -->
<g id="node5" class="node"><title>Node3</title>
<a xlink:href="group___u_d_p.html#ga303d5a717d50385e7908c735d5bddff7" target="_top" xlink:title="envoie une chaîne de caractère">
<polygon fill="white" stroke="black" points="196,-0.5 196,-19.5 268,-19.5 268,-0.5 196,-0.5"/>
<text text-anchor="middle" x="232" y="-7.5" font-family="Helvetica,sans-Serif" font-size="10.00">send_packet</text>
</a>
</g>
<!-- Node2&#45;&gt;Node3 -->
<g id="edge4" class="edge"><title>Node2&#45;&gt;Node3</title>
<path fill="none" stroke="midnightblue" d="M160.465,-10C168.21,-10 177.032,-10 185.754,-10"/>
<polygon fill="midnightblue" stroke="midnightblue" points="185.874,-13.5001 195.874,-10 185.874,-6.5001 185.874,-13.5001"/>
</g>
</g>
</svg>
