<?xml version="1.0" encoding="UTF-8" standalone="no"?>
<!DOCTYPE svg PUBLIC "-//W3C//DTD SVG 1.1//EN"
 "http://www.w3.org/Graphics/SVG/1.1/DTD/svg11.dtd">
<!-- Generated by graphviz version 2.28.0 (20121221.0049)
 -->
<!-- Title: Graphe hiérarchique des classes Pages: 1 -->
<svg width="210pt" height="66pt"
 viewBox="0.00 0.00 210.00 66.00" xmlns="http://www.w3.org/2000/svg" xmlns:xlink="http://www.w3.org/1999/xlink">
<g id="graph1" class="graph" transform="scale(1 1) rotate(0) translate(4 62)">
<title>Graphe hiérarchique des classes</title>
<polygon fill="white" stroke="white" points="-4,5 -4,-62 207,-62 207,5 -4,5"/>
<!-- Node1 -->
<g id="node1" class="node"><title>Node1</title>
<a xlink:href="class_q_main_window.html" target="_top" xlink:title="QMainWindow">
<polygon fill="white" stroke="black" points="0,-19.5 0,-38.5 80,-38.5 80,-19.5 0,-19.5"/>
<text text-anchor="middle" x="40" y="-26.5" font-family="Helvetica,sans-Serif" font-size="10.00">QMainWindow</text>
</a>
</g>
<!-- Node2 -->
<g id="node3" class="node"><title>Node2</title>
<a xlink:href="class_main_window.html" target="_top" xlink:title="MainWindow">
<polygon fill="white" stroke="black" points="122.5,-38.5 122.5,-57.5 195.5,-57.5 195.5,-38.5 122.5,-38.5"/>
<text text-anchor="middle" x="159" y="-45.5" font-family="Helvetica,sans-Serif" font-size="10.00">MainWindow</text>
</a>
</g>
<!-- Node1&#45;&gt;Node2 -->
<g id="edge2" class="edge"><title>Node1&#45;&gt;Node2</title>
<path fill="none" stroke="midnightblue" d="M90.3484,-37.0138C101.028,-38.7482 112.125,-40.5503 122.168,-42.1812"/>
<polygon fill="midnightblue" stroke="midnightblue" points="90.7165,-33.5279 80.2848,-35.3796 89.5944,-40.4373 90.7165,-33.5279"/>
</g>
<!-- Node3 -->
<g id="node5" class="node"><title>Node3</title>
<a xlink:href="classnavdata_window.html" target="_top" xlink:title="navdataWindow">
<polygon fill="white" stroke="black" points="116,-0.5 116,-19.5 202,-19.5 202,-0.5 116,-0.5"/>
<text text-anchor="middle" x="159" y="-7.5" font-family="Helvetica,sans-Serif" font-size="10.00">navdataWindow</text>
</a>
</g>
<!-- Node1&#45;&gt;Node3 -->
<g id="edge4" class="edge"><title>Node1&#45;&gt;Node3</title>
<path fill="none" stroke="midnightblue" d="M90.4132,-20.9756C98.8621,-19.6036 107.57,-18.1894 115.809,-16.8515"/>
<polygon fill="midnightblue" stroke="midnightblue" points="89.5944,-17.5627 80.2848,-22.6204 90.7165,-24.4721 89.5944,-17.5627"/>
</g>
</g>
</svg>
