<?xml version="1.0" encoding="UTF-8" standalone="no"?>
<!DOCTYPE svg PUBLIC "-//W3C//DTD SVG 1.1//EN"
 "http://www.w3.org/Graphics/SVG/1.1/DTD/svg11.dtd">
<!-- Generated by graphviz version 2.28.0 (20121221.0049)
 -->
<!-- Title: /media/DEVEL/ProjetIUT/DroneWifi/sources/keyboardCommand/mainwindow.h Pages: 1 -->
<svg width="324pt" height="218pt"
 viewBox="0.00 0.00 324.00 218.00" xmlns="http://www.w3.org/2000/svg" xmlns:xlink="http://www.w3.org/1999/xlink">
<g id="graph1" class="graph" transform="scale(1 1) rotate(0) translate(4 214)">
<title>/media/DEVEL/ProjetIUT/DroneWifi/sources/keyboardCommand/mainwindow.h</title>
<polygon fill="white" stroke="white" points="-4,5 -4,-214 321,-214 321,5 -4,5"/>
<!-- Node1 -->
<g id="node1" class="node"><title>Node1</title>
<polygon fill="#bfbfbf" stroke="black" points="21,-168.5 21,-209.5 209,-209.5 209,-168.5 21,-168.5"/>
<text text-anchor="start" x="29" y="-197.5" font-family="Helvetica,sans-Serif" font-size="10.00">/media/DEVEL/ProjetIUT</text>
<text text-anchor="start" x="29" y="-186.5" font-family="Helvetica,sans-Serif" font-size="10.00">/DroneWifi/sources/keyboardCommand</text>
<text text-anchor="middle" x="115" y="-175.5" font-family="Helvetica,sans-Serif" font-size="10.00">/mainwindow.h</text>
</g>
<!-- Node2 -->
<g id="node3" class="node"><title>Node2</title>
<polygon fill="white" stroke="#bfbfbf" points="0,-56.5 0,-75.5 80,-75.5 80,-56.5 0,-56.5"/>
<text text-anchor="middle" x="40" y="-63.5" font-family="Helvetica,sans-Serif" font-size="10.00">QMainWindow</text>
</g>
<!-- Node1&#45;&gt;Node2 -->
<g id="edge2" class="edge"><title>Node1&#45;&gt;Node2</title>
<path fill="none" stroke="midnightblue" d="M62.8993,-168.325C47.2466,-159.681 31.886,-147.812 23,-132 14.6307,-117.108 21.401,-97.9817 28.7278,-84.3398"/>
<polygon fill="midnightblue" stroke="midnightblue" points="31.8699,-85.9027 33.9527,-75.5146 25.8464,-82.3366 31.8699,-85.9027"/>
</g>
<!-- Node3 -->
<g id="node5" class="node"><title>Node3</title>
<polygon fill="white" stroke="#bfbfbf" points="32.5,-112.5 32.5,-131.5 99.5,-131.5 99.5,-112.5 32.5,-112.5"/>
<text text-anchor="middle" x="66" y="-119.5" font-family="Helvetica,sans-Serif" font-size="10.00">QKeyEvent</text>
</g>
<!-- Node1&#45;&gt;Node3 -->
<g id="edge4" class="edge"><title>Node1&#45;&gt;Node3</title>
<path fill="none" stroke="midnightblue" d="M100.298,-168.498C93.4359,-159.395 85.3454,-148.662 78.7461,-139.908"/>
<polygon fill="midnightblue" stroke="midnightblue" points="81.3372,-137.531 72.5226,-131.652 75.7475,-141.745 81.3372,-137.531"/>
</g>
<!-- Node4 -->
<g id="node7" class="node"><title>Node4</title>
<a xlink:href="ardrone_8h.html" target="_top" xlink:title="ardrone.h">
<polygon fill="white" stroke="black" points="172.5,-56.5 172.5,-75.5 229.5,-75.5 229.5,-56.5 172.5,-56.5"/>
<text text-anchor="middle" x="201" y="-63.5" font-family="Helvetica,sans-Serif" font-size="10.00">ardrone.h</text>
</a>
</g>
<!-- Node1&#45;&gt;Node4 -->
<g id="edge6" class="edge"><title>Node1&#45;&gt;Node4</title>
<path fill="none" stroke="midnightblue" d="M176.448,-168.441C193.173,-159.985 209.326,-148.197 219,-132 227.794,-117.277 220.635,-98.1268 212.898,-84.433"/>
<polygon fill="midnightblue" stroke="midnightblue" points="215.637,-82.2091 207.382,-75.5674 209.693,-85.9071 215.637,-82.2091"/>
</g>
<!-- Node7 -->
<g id="node13" class="node"><title>Node7</title>
<a xlink:href="navdatawindow_8h.html" target="_top" xlink:title="navdatawindow.h">
<polygon fill="white" stroke="black" points="118,-112.5 118,-131.5 210,-131.5 210,-112.5 118,-112.5"/>
<text text-anchor="middle" x="164" y="-119.5" font-family="Helvetica,sans-Serif" font-size="10.00">navdatawindow.h</text>
</a>
</g>
<!-- Node1&#45;&gt;Node7 -->
<g id="edge12" class="edge"><title>Node1&#45;&gt;Node7</title>
<path fill="none" stroke="midnightblue" d="M129.702,-168.498C136.564,-159.395 144.655,-148.662 151.254,-139.908"/>
<polygon fill="midnightblue" stroke="midnightblue" points="154.253,-141.745 157.477,-131.652 148.663,-137.531 154.253,-141.745"/>
</g>
<!-- Node5 -->
<g id="node9" class="node"><title>Node5</title>
<polygon fill="white" stroke="#bfbfbf" points="121,-0.5 121,-19.5 175,-19.5 175,-0.5 121,-0.5"/>
<text text-anchor="middle" x="148" y="-7.5" font-family="Helvetica,sans-Serif" font-size="10.00">QThread</text>
</g>
<!-- Node4&#45;&gt;Node5 -->
<g id="edge8" class="edge"><title>Node4&#45;&gt;Node5</title>
<path fill="none" stroke="midnightblue" d="M192.248,-56.083C184.53,-48.2195 173.095,-36.5688 163.783,-27.0813"/>
<polygon fill="midnightblue" stroke="midnightblue" points="166.092,-24.4363 156.589,-19.7511 161.096,-29.3396 166.092,-24.4363"/>
</g>
<!-- Node6 -->
<g id="node11" class="node"><title>Node6</title>
<polygon fill="white" stroke="#bfbfbf" points="193.5,-0.5 193.5,-19.5 316.5,-19.5 316.5,-0.5 193.5,-0.5"/>
<text text-anchor="middle" x="255" y="-7.5" font-family="Helvetica,sans-Serif" font-size="10.00">QtNetwork/QUdpSocket</text>
</g>
<!-- Node4&#45;&gt;Node6 -->
<g id="edge10" class="edge"><title>Node4&#45;&gt;Node6</title>
<path fill="none" stroke="midnightblue" d="M209.917,-56.083C217.78,-48.2195 229.431,-36.5688 238.919,-27.0813"/>
<polygon fill="midnightblue" stroke="midnightblue" points="241.653,-29.2971 246.249,-19.7511 236.703,-24.3473 241.653,-29.2971"/>
</g>
<!-- Node7&#45;&gt;Node2 -->
<g id="edge14" class="edge"><title>Node7&#45;&gt;Node2</title>
<path fill="none" stroke="midnightblue" d="M144.352,-112.444C124.035,-103.596 92.0972,-89.6875 68.9023,-79.5865"/>
<polygon fill="midnightblue" stroke="midnightblue" points="70.1221,-76.3002 59.5562,-75.5164 67.3271,-82.7181 70.1221,-76.3002"/>
</g>
<!-- Node7&#45;&gt;Node4 -->
<g id="edge16" class="edge"><title>Node7&#45;&gt;Node4</title>
<path fill="none" stroke="midnightblue" d="M170.11,-112.083C175.282,-104.534 182.846,-93.4948 189.194,-84.2298"/>
<polygon fill="midnightblue" stroke="midnightblue" points="192.239,-85.9787 195.004,-75.7511 186.464,-82.0221 192.239,-85.9787"/>
</g>
</g>
</svg>
