<?xml version="1.0" encoding="UTF-8" standalone="no"?>
<!DOCTYPE svg PUBLIC "-//W3C//DTD SVG 1.1//EN"
 "http://www.w3.org/Graphics/SVG/1.1/DTD/svg11.dtd">
<!-- Generated by graphviz version 2.28.0 (20121221.0049)
 -->
<!-- Title: /media/DEVEL/ProjetIUT/DroneWifi/sources/keyboardCommand/main.cpp Pages: 1 -->
<svg width="324pt" height="274pt"
 viewBox="0.00 0.00 324.00 274.00" xmlns="http://www.w3.org/2000/svg" xmlns:xlink="http://www.w3.org/1999/xlink">
<g id="graph1" class="graph" transform="scale(1 1) rotate(0) translate(4 270)">
<title>/media/DEVEL/ProjetIUT/DroneWifi/sources/keyboardCommand/main.cpp</title>
<polygon fill="white" stroke="white" points="-4,5 -4,-270 321,-270 321,5 -4,5"/>
<!-- Node1 -->
<g id="node1" class="node"><title>Node1</title>
<polygon fill="#bfbfbf" stroke="black" points="68,-224.5 68,-265.5 256,-265.5 256,-224.5 68,-224.5"/>
<text text-anchor="start" x="76" y="-253.5" font-family="Helvetica,sans-Serif" font-size="10.00">/media/DEVEL/ProjetIUT</text>
<text text-anchor="start" x="76" y="-242.5" font-family="Helvetica,sans-Serif" font-size="10.00">/DroneWifi/sources/keyboardCommand</text>
<text text-anchor="middle" x="162" y="-231.5" font-family="Helvetica,sans-Serif" font-size="10.00">/main.cpp</text>
</g>
<!-- Node2 -->
<g id="node3" class="node"><title>Node2</title>
<a xlink:href="mainwindow_8h.html" target="_top" xlink:title="mainwindow.h">
<polygon fill="white" stroke="black" points="75.5,-168.5 75.5,-187.5 154.5,-187.5 154.5,-168.5 75.5,-168.5"/>
<text text-anchor="middle" x="115" y="-175.5" font-family="Helvetica,sans-Serif" font-size="10.00">mainwindow.h</text>
</a>
</g>
<!-- Node1&#45;&gt;Node2 -->
<g id="edge2" class="edge"><title>Node1&#45;&gt;Node2</title>
<path fill="none" stroke="midnightblue" d="M147.898,-224.498C141.316,-215.395 133.556,-204.662 127.226,-195.908"/>
<polygon fill="midnightblue" stroke="midnightblue" points="129.952,-193.705 121.256,-187.652 124.28,-197.807 129.952,-193.705"/>
</g>
<!-- Node9 -->
<g id="node19" class="node"><title>Node9</title>
<polygon fill="white" stroke="#bfbfbf" points="173,-168.5 173,-187.5 245,-187.5 245,-168.5 173,-168.5"/>
<text text-anchor="middle" x="209" y="-175.5" font-family="Helvetica,sans-Serif" font-size="10.00">QApplication</text>
</g>
<!-- Node1&#45;&gt;Node9 -->
<g id="edge20" class="edge"><title>Node1&#45;&gt;Node9</title>
<path fill="none" stroke="midnightblue" d="M176.102,-224.498C182.684,-215.395 190.444,-204.662 196.774,-195.908"/>
<polygon fill="midnightblue" stroke="midnightblue" points="199.72,-197.807 202.744,-187.652 194.048,-193.705 199.72,-197.807"/>
</g>
<!-- Node3 -->
<g id="node5" class="node"><title>Node3</title>
<polygon fill="white" stroke="#bfbfbf" points="0,-56.5 0,-75.5 80,-75.5 80,-56.5 0,-56.5"/>
<text text-anchor="middle" x="40" y="-63.5" font-family="Helvetica,sans-Serif" font-size="10.00">QMainWindow</text>
</g>
<!-- Node2&#45;&gt;Node3 -->
<g id="edge4" class="edge"><title>Node2&#45;&gt;Node3</title>
<path fill="none" stroke="midnightblue" d="M76.1549,-168.364C56.6228,-161.847 34.673,-150.704 23,-132 13.9557,-117.508 20.8233,-98.3241 28.357,-84.5596"/>
<polygon fill="midnightblue" stroke="midnightblue" points="31.5703,-86.009 33.7424,-75.6392 25.5777,-82.3912 31.5703,-86.009"/>
</g>
<!-- Node4 -->
<g id="node7" class="node"><title>Node4</title>
<polygon fill="white" stroke="#bfbfbf" points="32.5,-112.5 32.5,-131.5 99.5,-131.5 99.5,-112.5 32.5,-112.5"/>
<text text-anchor="middle" x="66" y="-119.5" font-family="Helvetica,sans-Serif" font-size="10.00">QKeyEvent</text>
</g>
<!-- Node2&#45;&gt;Node4 -->
<g id="edge6" class="edge"><title>Node2&#45;&gt;Node4</title>
<path fill="none" stroke="midnightblue" d="M106.909,-168.083C99.8446,-160.298 89.4124,-148.801 80.8511,-139.367"/>
<polygon fill="midnightblue" stroke="midnightblue" points="83.2527,-136.805 73.9408,-131.751 78.0688,-141.509 83.2527,-136.805"/>
</g>
<!-- Node5 -->
<g id="node9" class="node"><title>Node5</title>
<a xlink:href="ardrone_8h.html" target="_top" xlink:title="ardrone.h">
<polygon fill="white" stroke="black" points="172.5,-56.5 172.5,-75.5 229.5,-75.5 229.5,-56.5 172.5,-56.5"/>
<text text-anchor="middle" x="201" y="-63.5" font-family="Helvetica,sans-Serif" font-size="10.00">ardrone.h</text>
</a>
</g>
<!-- Node2&#45;&gt;Node5 -->
<g id="edge8" class="edge"><title>Node2&#45;&gt;Node5</title>
<path fill="none" stroke="midnightblue" d="M143.744,-168.477C171.412,-159.623 210.305,-145.237 219,-132 228.507,-117.528 221.025,-98.0869 213.008,-84.2462"/>
<polygon fill="midnightblue" stroke="midnightblue" points="215.89,-82.2552 207.576,-75.6888 209.981,-86.0071 215.89,-82.2552"/>
</g>
<!-- Node8 -->
<g id="node15" class="node"><title>Node8</title>
<a xlink:href="navdatawindow_8h.html" target="_top" xlink:title="navdatawindow.h">
<polygon fill="white" stroke="black" points="118,-112.5 118,-131.5 210,-131.5 210,-112.5 118,-112.5"/>
<text text-anchor="middle" x="164" y="-119.5" font-family="Helvetica,sans-Serif" font-size="10.00">navdatawindow.h</text>
</a>
</g>
<!-- Node2&#45;&gt;Node8 -->
<g id="edge14" class="edge"><title>Node2&#45;&gt;Node8</title>
<path fill="none" stroke="midnightblue" d="M123.091,-168.083C130.155,-160.298 140.588,-148.801 149.149,-139.367"/>
<polygon fill="midnightblue" stroke="midnightblue" points="151.931,-141.509 156.059,-131.751 146.747,-136.805 151.931,-141.509"/>
</g>
<!-- Node6 -->
<g id="node11" class="node"><title>Node6</title>
<polygon fill="white" stroke="#bfbfbf" points="121,-0.5 121,-19.5 175,-19.5 175,-0.5 121,-0.5"/>
<text text-anchor="middle" x="148" y="-7.5" font-family="Helvetica,sans-Serif" font-size="10.00">QThread</text>
</g>
<!-- Node5&#45;&gt;Node6 -->
<g id="edge10" class="edge"><title>Node5&#45;&gt;Node6</title>
<path fill="none" stroke="midnightblue" d="M192.248,-56.083C184.53,-48.2195 173.095,-36.5688 163.783,-27.0813"/>
<polygon fill="midnightblue" stroke="midnightblue" points="166.092,-24.4363 156.589,-19.7511 161.096,-29.3396 166.092,-24.4363"/>
</g>
<!-- Node7 -->
<g id="node13" class="node"><title>Node7</title>
<polygon fill="white" stroke="#bfbfbf" points="193.5,-0.5 193.5,-19.5 316.5,-19.5 316.5,-0.5 193.5,-0.5"/>
<text text-anchor="middle" x="255" y="-7.5" font-family="Helvetica,sans-Serif" font-size="10.00">QtNetwork/QUdpSocket</text>
</g>
<!-- Node5&#45;&gt;Node7 -->
<g id="edge12" class="edge"><title>Node5&#45;&gt;Node7</title>
<path fill="none" stroke="midnightblue" d="M209.917,-56.083C217.78,-48.2195 229.431,-36.5688 238.919,-27.0813"/>
<polygon fill="midnightblue" stroke="midnightblue" points="241.653,-29.2971 246.249,-19.7511 236.703,-24.3473 241.653,-29.2971"/>
</g>
<!-- Node8&#45;&gt;Node3 -->
<g id="edge16" class="edge"><title>Node8&#45;&gt;Node3</title>
<path fill="none" stroke="midnightblue" d="M144.352,-112.444C124.035,-103.596 92.0972,-89.6875 68.9023,-79.5865"/>
<polygon fill="midnightblue" stroke="midnightblue" points="70.1221,-76.3002 59.5562,-75.5164 67.3271,-82.7181 70.1221,-76.3002"/>
</g>
<!-- Node8&#45;&gt;Node5 -->
<g id="edge18" class="edge"><title>Node8&#45;&gt;Node5</title>
<path fill="none" stroke="midnightblue" d="M170.11,-112.083C175.282,-104.534 182.846,-93.4948 189.194,-84.2298"/>
<polygon fill="midnightblue" stroke="midnightblue" points="192.239,-85.9787 195.004,-75.7511 186.464,-82.0221 192.239,-85.9787"/>
</g>
</g>
</svg>
