<?xml version="1.0" encoding="UTF-8" standalone="no"?>
<!DOCTYPE svg PUBLIC "-//W3C//DTD SVG 1.1//EN"
 "http://www.w3.org/Graphics/SVG/1.1/DTD/svg11.dtd">
<!-- Generated by graphviz version 2.28.0 (20121221.0049)
 -->
<!-- Title: /media/DEVEL/ProjetIUT/DroneWifi/sources/keyboardCommand/mainwindow.h Pages: 1 -->
<svg width="402pt" height="128pt"
 viewBox="0.00 0.00 402.00 128.00" xmlns="http://www.w3.org/2000/svg" xmlns:xlink="http://www.w3.org/1999/xlink">
<g id="graph1" class="graph" transform="scale(1 1) rotate(0) translate(4 124)">
<title>/media/DEVEL/ProjetIUT/DroneWifi/sources/keyboardCommand/mainwindow.h</title>
<polygon fill="white" stroke="white" points="-4,5 -4,-124 399,-124 399,5 -4,5"/>
<!-- Node1 -->
<g id="node1" class="node"><title>Node1</title>
<polygon fill="#bfbfbf" stroke="black" points="103,-78.5 103,-119.5 291,-119.5 291,-78.5 103,-78.5"/>
<text text-anchor="start" x="111" y="-107.5" font-family="Helvetica,sans-Serif" font-size="10.00">/media/DEVEL/ProjetIUT</text>
<text text-anchor="start" x="111" y="-96.5" font-family="Helvetica,sans-Serif" font-size="10.00">/DroneWifi/sources/keyboardCommand</text>
<text text-anchor="middle" x="197" y="-85.5" font-family="Helvetica,sans-Serif" font-size="10.00">/mainwindow.h</text>
</g>
<!-- Node2 -->
<g id="node3" class="node"><title>Node2</title>
<a xlink:href="main_8cpp.html" target="_top" xlink:title="/media/DEVEL/ProjetIUT\l/DroneWifi/sources/keyboardCommand\l/main.cpp">
<polygon fill="white" stroke="black" points="0,-0.5 0,-41.5 188,-41.5 188,-0.5 0,-0.5"/>
<text text-anchor="start" x="8" y="-29.5" font-family="Helvetica,sans-Serif" font-size="10.00">/media/DEVEL/ProjetIUT</text>
<text text-anchor="start" x="8" y="-18.5" font-family="Helvetica,sans-Serif" font-size="10.00">/DroneWifi/sources/keyboardCommand</text>
<text text-anchor="middle" x="94" y="-7.5" font-family="Helvetica,sans-Serif" font-size="10.00">/main.cpp</text>
</a>
</g>
<!-- Node1&#45;&gt;Node2 -->
<g id="edge2" class="edge"><title>Node1&#45;&gt;Node2</title>
<path fill="none" stroke="midnightblue" d="M162.238,-72.3503C148.579,-62.2719 133.158,-50.893 120.435,-41.5056"/>
<polygon fill="midnightblue" stroke="midnightblue" points="160.35,-75.3071 170.475,-78.4281 164.506,-69.6744 160.35,-75.3071"/>
</g>
<!-- Node3 -->
<g id="node5" class="node"><title>Node3</title>
<a xlink:href="mainwindow_8cpp.html" target="_top" xlink:title="/media/DEVEL/ProjetIUT\l/DroneWifi/sources/keyboardCommand\l/mainwindow.cpp">
<polygon fill="white" stroke="black" points="206,-0.5 206,-41.5 394,-41.5 394,-0.5 206,-0.5"/>
<text text-anchor="start" x="214" y="-29.5" font-family="Helvetica,sans-Serif" font-size="10.00">/media/DEVEL/ProjetIUT</text>
<text text-anchor="start" x="214" y="-18.5" font-family="Helvetica,sans-Serif" font-size="10.00">/DroneWifi/sources/keyboardCommand</text>
<text text-anchor="middle" x="300" y="-7.5" font-family="Helvetica,sans-Serif" font-size="10.00">/mainwindow.cpp</text>
</a>
</g>
<!-- Node1&#45;&gt;Node3 -->
<g id="edge4" class="edge"><title>Node1&#45;&gt;Node3</title>
<path fill="none" stroke="midnightblue" d="M231.762,-72.3503C245.421,-62.2719 260.842,-50.893 273.565,-41.5056"/>
<polygon fill="midnightblue" stroke="midnightblue" points="229.494,-69.6744 223.525,-78.4281 233.65,-75.3071 229.494,-69.6744"/>
</g>
</g>
</svg>
