<?xml version="1.0" encoding="UTF-8" standalone="no"?>
<!DOCTYPE svg PUBLIC "-//W3C//DTD SVG 1.1//EN"
 "http://www.w3.org/Graphics/SVG/1.1/DTD/svg11.dtd">
<!-- Generated by graphviz version 2.28.0 (20121221.0049)
 -->
<!-- Title: /media/DEVEL/ProjetIUT/DroneWifi/sources/keyboardCommand/navdatawindow.cpp Pages: 1 -->
<svg width="260pt" height="218pt"
 viewBox="0.00 0.00 260.00 218.00" xmlns="http://www.w3.org/2000/svg" xmlns:xlink="http://www.w3.org/1999/xlink">
<g id="graph1" class="graph" transform="scale(1 1) rotate(0) translate(4 214)">
<title>/media/DEVEL/ProjetIUT/DroneWifi/sources/keyboardCommand/navdatawindow.cpp</title>
<polygon fill="white" stroke="white" points="-4,5 -4,-214 257,-214 257,5 -4,5"/>
<!-- Node1 -->
<g id="node1" class="node"><title>Node1</title>
<polygon fill="#bfbfbf" stroke="black" points="47,-168.5 47,-209.5 235,-209.5 235,-168.5 47,-168.5"/>
<text text-anchor="start" x="55" y="-197.5" font-family="Helvetica,sans-Serif" font-size="10.00">/media/DEVEL/ProjetIUT</text>
<text text-anchor="start" x="55" y="-186.5" font-family="Helvetica,sans-Serif" font-size="10.00">/DroneWifi/sources/keyboardCommand</text>
<text text-anchor="middle" x="141" y="-175.5" font-family="Helvetica,sans-Serif" font-size="10.00">/navdatawindow.cpp</text>
</g>
<!-- Node2 -->
<g id="node3" class="node"><title>Node2</title>
<a xlink:href="navdatawindow_8h.html" target="_top" xlink:title="navdatawindow.h">
<polygon fill="white" stroke="black" points="37,-112.5 37,-131.5 129,-131.5 129,-112.5 37,-112.5"/>
<text text-anchor="middle" x="83" y="-119.5" font-family="Helvetica,sans-Serif" font-size="10.00">navdatawindow.h</text>
</a>
</g>
<!-- Node1&#45;&gt;Node2 -->
<g id="edge2" class="edge"><title>Node1&#45;&gt;Node2</title>
<path fill="none" stroke="midnightblue" d="M123.598,-168.498C115.304,-159.203 105.495,-148.21 97.5962,-139.358"/>
<polygon fill="midnightblue" stroke="midnightblue" points="99.9901,-136.784 90.7207,-131.652 94.7671,-141.444 99.9901,-136.784"/>
</g>
<!-- Node7 -->
<g id="node13" class="node"><title>Node7</title>
<polygon fill="white" stroke="#bfbfbf" points="147.5,-112.5 147.5,-131.5 252.5,-131.5 252.5,-112.5 147.5,-112.5"/>
<text text-anchor="middle" x="200" y="-119.5" font-family="Helvetica,sans-Serif" font-size="10.00">ui_navdatawindow.h</text>
</g>
<!-- Node1&#45;&gt;Node7 -->
<g id="edge12" class="edge"><title>Node1&#45;&gt;Node7</title>
<path fill="none" stroke="midnightblue" d="M158.702,-168.498C167.226,-159.107 177.323,-147.983 185.4,-139.085"/>
<polygon fill="midnightblue" stroke="midnightblue" points="188.017,-141.409 192.146,-131.652 182.834,-136.705 188.017,-141.409"/>
</g>
<!-- Node3 -->
<g id="node5" class="node"><title>Node3</title>
<polygon fill="white" stroke="#bfbfbf" points="0,-56.5 0,-75.5 80,-75.5 80,-56.5 0,-56.5"/>
<text text-anchor="middle" x="40" y="-63.5" font-family="Helvetica,sans-Serif" font-size="10.00">QMainWindow</text>
</g>
<!-- Node2&#45;&gt;Node3 -->
<g id="edge4" class="edge"><title>Node2&#45;&gt;Node3</title>
<path fill="none" stroke="midnightblue" d="M75.8994,-112.083C69.763,-104.377 60.7303,-93.0333 53.2608,-83.6531"/>
<polygon fill="midnightblue" stroke="midnightblue" points="55.9357,-81.3936 46.9685,-75.7511 50.4598,-85.7542 55.9357,-81.3936"/>
</g>
<!-- Node4 -->
<g id="node7" class="node"><title>Node4</title>
<a xlink:href="ardrone_8h.html" target="_top" xlink:title="ardrone.h">
<polygon fill="white" stroke="black" points="98.5,-56.5 98.5,-75.5 155.5,-75.5 155.5,-56.5 98.5,-56.5"/>
<text text-anchor="middle" x="127" y="-63.5" font-family="Helvetica,sans-Serif" font-size="10.00">ardrone.h</text>
</a>
</g>
<!-- Node2&#45;&gt;Node4 -->
<g id="edge6" class="edge"><title>Node2&#45;&gt;Node4</title>
<path fill="none" stroke="midnightblue" d="M90.2657,-112.083C96.5448,-104.377 105.788,-93.0333 113.431,-83.6531"/>
<polygon fill="midnightblue" stroke="midnightblue" points="116.266,-85.7143 119.869,-75.7511 110.839,-81.2926 116.266,-85.7143"/>
</g>
<!-- Node5 -->
<g id="node9" class="node"><title>Node5</title>
<polygon fill="white" stroke="#bfbfbf" points="47,-0.5 47,-19.5 101,-19.5 101,-0.5 47,-0.5"/>
<text text-anchor="middle" x="74" y="-7.5" font-family="Helvetica,sans-Serif" font-size="10.00">QThread</text>
</g>
<!-- Node4&#45;&gt;Node5 -->
<g id="edge8" class="edge"><title>Node4&#45;&gt;Node5</title>
<path fill="none" stroke="midnightblue" d="M118.248,-56.083C110.53,-48.2195 99.0953,-36.5688 89.7835,-27.0813"/>
<polygon fill="midnightblue" stroke="midnightblue" points="92.0916,-24.4363 82.589,-19.7511 87.0958,-29.3396 92.0916,-24.4363"/>
</g>
<!-- Node6 -->
<g id="node11" class="node"><title>Node6</title>
<polygon fill="white" stroke="#bfbfbf" points="119.5,-0.5 119.5,-19.5 242.5,-19.5 242.5,-0.5 119.5,-0.5"/>
<text text-anchor="middle" x="181" y="-7.5" font-family="Helvetica,sans-Serif" font-size="10.00">QtNetwork/QUdpSocket</text>
</g>
<!-- Node4&#45;&gt;Node6 -->
<g id="edge10" class="edge"><title>Node4&#45;&gt;Node6</title>
<path fill="none" stroke="midnightblue" d="M135.917,-56.083C143.78,-48.2195 155.431,-36.5688 164.919,-27.0813"/>
<polygon fill="midnightblue" stroke="midnightblue" points="167.653,-29.2971 172.249,-19.7511 162.703,-24.3473 167.653,-29.2971"/>
</g>
</g>
</svg>
