<?xml version="1.0" encoding="UTF-8" standalone="no"?>
<!DOCTYPE svg PUBLIC "-//W3C//DTD SVG 1.1//EN"
 "http://www.w3.org/Graphics/SVG/1.1/DTD/svg11.dtd">
<!-- Generated by graphviz version 2.28.0 (20121221.0049)
 -->
<!-- Title: etat_commandes Pages: 1 -->
<svg width="185pt" height="238pt"
 viewBox="0.00 0.00 185.00 238.00" xmlns="http://www.w3.org/2000/svg" xmlns:xlink="http://www.w3.org/1999/xlink">
<g id="graph1" class="graph" transform="scale(1 1) rotate(0) translate(4 234)">
<title>etat_commandes</title>
<polygon fill="white" stroke="white" points="-4,5 -4,-234 182,-234 182,5 -4,5"/>
<!-- Node1 -->
<g id="node1" class="node"><title>Node1</title>
<polygon fill="#bfbfbf" stroke="black" points="23,-0.5 23,-57.5 115,-57.5 115,-0.5 23,-0.5"/>
<text text-anchor="middle" x="69" y="-45.5" font-family="Helvetica,sans-Serif" font-size="10.00">etat_commandes</text>
<polyline fill="none" stroke="black" points="23,-38.5 115,-38.5 "/>
<text text-anchor="middle" x="69" y="-26.5" font-family="Helvetica,sans-Serif" font-size="10.00"> </text>
<polyline fill="none" stroke="black" points="23,-19.5 115,-19.5 "/>
<text text-anchor="middle" x="69" y="-7.5" font-family="Helvetica,sans-Serif" font-size="10.00"> </text>
</g>
<!-- Node2 -->
<g id="node2" class="node"><title>Node2</title>
<polygon fill="white" stroke="#bfbfbf" points="-0.5,-172.5 -0.5,-229.5 34.5,-229.5 34.5,-172.5 -0.5,-172.5"/>
<text text-anchor="middle" x="17" y="-217.5" font-family="Helvetica,sans-Serif" font-size="10.00">char</text>
<polyline fill="none" stroke="#bfbfbf" points="-0.5,-210.5 34.5,-210.5 "/>
<text text-anchor="middle" x="17" y="-198.5" font-family="Helvetica,sans-Serif" font-size="10.00"> </text>
<polyline fill="none" stroke="#bfbfbf" points="-0.5,-191.5 34.5,-191.5 "/>
<text text-anchor="middle" x="17" y="-179.5" font-family="Helvetica,sans-Serif" font-size="10.00"> </text>
</g>
<!-- Node2&#45;&gt;Node1 -->
<g id="edge2" class="edge"><title>Node2&#45;&gt;Node1</title>
<path fill="none" stroke="#404040" d="M11.0349,-172.041C6.87049,-145.977 4.22954,-106.631 18,-76 19.4209,-72.8394 21.1764,-69.8035 23.1723,-66.9048"/>
<polygon fill="none" stroke="#404040" points="23.1733,-66.9037 23.8578,-59.7251 30.7475,-57.596 30.0629,-64.7746 23.1733,-66.9037"/>
<text text-anchor="middle" x="59" y="-145.5" font-family="Helvetica,sans-Serif" font-size="10.00"> +led_connecte</text>
<text text-anchor="middle" x="59" y="-134.5" font-family="Helvetica,sans-Serif" font-size="10.00">+led_debug</text>
<text text-anchor="middle" x="59" y="-123.5" font-family="Helvetica,sans-Serif" font-size="10.00">+bp_video</text>
<text text-anchor="middle" x="59" y="-112.5" font-family="Helvetica,sans-Serif" font-size="10.00">+bp_trim</text>
<text text-anchor="middle" x="59" y="-101.5" font-family="Helvetica,sans-Serif" font-size="10.00">+bp_arret_urgence</text>
<text text-anchor="middle" x="59" y="-90.5" font-family="Helvetica,sans-Serif" font-size="10.00">+led_erreur</text>
<text text-anchor="middle" x="59" y="-79.5" font-family="Helvetica,sans-Serif" font-size="10.00">+switch_land</text>
</g>
<!-- Node3 -->
<g id="node4" class="node"><title>Node3</title>
<polygon fill="white" stroke="#bfbfbf" points="107.5,-172.5 107.5,-229.5 136.5,-229.5 136.5,-172.5 107.5,-172.5"/>
<text text-anchor="middle" x="122" y="-217.5" font-family="Helvetica,sans-Serif" font-size="10.00">int</text>
<polyline fill="none" stroke="#bfbfbf" points="107.5,-210.5 136.5,-210.5 "/>
<text text-anchor="middle" x="122" y="-198.5" font-family="Helvetica,sans-Serif" font-size="10.00"> </text>
<polyline fill="none" stroke="#bfbfbf" points="107.5,-191.5 136.5,-191.5 "/>
<text text-anchor="middle" x="122" y="-179.5" font-family="Helvetica,sans-Serif" font-size="10.00"> </text>
</g>
<!-- Node3&#45;&gt;Node1 -->
<g id="edge4" class="edge"><title>Node3&#45;&gt;Node1</title>
<path fill="none" stroke="#404040" d="M120.405,-172.494C118.159,-146.749 112.787,-107.62 100,-76 98.9338,-73.3635 97.701,-70.7231 96.3544,-68.1149"/>
<polygon fill="none" stroke="#404040" points="96.319,-68.0537 89.8526,-64.8621 90.3116,-57.6656 96.778,-60.8572 96.319,-68.0537"/>
<text text-anchor="middle" x="147.5" y="-129" font-family="Helvetica,sans-Serif" font-size="10.00"> +joystick_2x</text>
<text text-anchor="middle" x="147.5" y="-118" font-family="Helvetica,sans-Serif" font-size="10.00">+joystick_2y</text>
<text text-anchor="middle" x="147.5" y="-107" font-family="Helvetica,sans-Serif" font-size="10.00">+joystick_1x</text>
<text text-anchor="middle" x="147.5" y="-96" font-family="Helvetica,sans-Serif" font-size="10.00">+joystick_1y</text>
</g>
</g>
</svg>
