<?xml version="1.0" encoding="UTF-8" standalone="no"?>
<!DOCTYPE svg PUBLIC "-//W3C//DTD SVG 1.1//EN"
 "http://www.w3.org/Graphics/SVG/1.1/DTD/svg11.dtd">
<!-- Generated by graphviz version 2.28.0 (20121221.0049)
 -->
<!-- Title: ardrone Pages: 1 -->
<svg width="378pt" height="204pt"
 viewBox="0.00 0.00 378.00 204.00" xmlns="http://www.w3.org/2000/svg" xmlns:xlink="http://www.w3.org/1999/xlink">
<g id="graph1" class="graph" transform="scale(1 1) rotate(0) translate(4 200)">
<title>ardrone</title>
<polygon fill="white" stroke="white" points="-4,5 -4,-200 375,-200 375,5 -4,5"/>
<!-- Node1 -->
<g id="node1" class="node"><title>Node1</title>
<polygon fill="#bfbfbf" stroke="black" points="162.5,-0.5 162.5,-57.5 211.5,-57.5 211.5,-0.5 162.5,-0.5"/>
<text text-anchor="middle" x="187" y="-45.5" font-family="Helvetica,sans-Serif" font-size="10.00">ardrone</text>
<polyline fill="none" stroke="black" points="162.5,-38.5 211.5,-38.5 "/>
<text text-anchor="middle" x="187" y="-26.5" font-family="Helvetica,sans-Serif" font-size="10.00"> </text>
<polyline fill="none" stroke="black" points="162.5,-19.5 211.5,-19.5 "/>
<text text-anchor="middle" x="187" y="-7.5" font-family="Helvetica,sans-Serif" font-size="10.00"> </text>
</g>
<!-- Node2 -->
<g id="node2" class="node"><title>Node2</title>
<polygon fill="white" stroke="#bfbfbf" points="-0.5,-138.5 -0.5,-195.5 34.5,-195.5 34.5,-138.5 -0.5,-138.5"/>
<text text-anchor="middle" x="17" y="-183.5" font-family="Helvetica,sans-Serif" font-size="10.00">float</text>
<polyline fill="none" stroke="#bfbfbf" points="-0.5,-176.5 34.5,-176.5 "/>
<text text-anchor="middle" x="17" y="-164.5" font-family="Helvetica,sans-Serif" font-size="10.00"> </text>
<polyline fill="none" stroke="#bfbfbf" points="-0.5,-157.5 34.5,-157.5 "/>
<text text-anchor="middle" x="17" y="-145.5" font-family="Helvetica,sans-Serif" font-size="10.00"> </text>
</g>
<!-- Node2&#45;&gt;Node1 -->
<g id="edge2" class="edge"><title>Node2&#45;&gt;Node1</title>
<path fill="none" stroke="#404040" d="M17.2463,-138.239C18.8891,-118.491 24.2422,-92.6171 40,-76 68.7163,-45.7178 117.051,-35.2616 150.413,-31.7127"/>
<polygon fill="none" stroke="#404040" points="150.439,-31.7104 156.068,-27.2024 162.394,-30.6638 156.765,-35.1719 150.439,-31.7104"/>
<text text-anchor="middle" x="73" y="-112" font-family="Helvetica,sans-Serif" font-size="10.00"> +turnLeftRight</text>
<text text-anchor="middle" x="73" y="-101" font-family="Helvetica,sans-Serif" font-size="10.00">+goUpDown</text>
<text text-anchor="middle" x="73" y="-90" font-family="Helvetica,sans-Serif" font-size="10.00">+tiltFrontBack</text>
<text text-anchor="middle" x="73" y="-79" font-family="Helvetica,sans-Serif" font-size="10.00">+tiltLeftRight</text>
</g>
<!-- Node3 -->
<g id="node4" class="node"><title>Node3</title>
<polygon fill="white" stroke="#bfbfbf" points="88.5,-138.5 88.5,-195.5 123.5,-195.5 123.5,-138.5 88.5,-138.5"/>
<text text-anchor="middle" x="106" y="-183.5" font-family="Helvetica,sans-Serif" font-size="10.00">char</text>
<polyline fill="none" stroke="#bfbfbf" points="88.5,-176.5 123.5,-176.5 "/>
<text text-anchor="middle" x="106" y="-164.5" font-family="Helvetica,sans-Serif" font-size="10.00"> </text>
<polyline fill="none" stroke="#bfbfbf" points="88.5,-157.5 123.5,-157.5 "/>
<text text-anchor="middle" x="106" y="-145.5" font-family="Helvetica,sans-Serif" font-size="10.00"> </text>
</g>
<!-- Node3&#45;&gt;Node1 -->
<g id="edge4" class="edge"><title>Node3&#45;&gt;Node1</title>
<path fill="none" stroke="#404040" d="M106.769,-138.495C108.445,-119.612 113.017,-94.6849 125,-76 131.838,-65.3385 142.076,-56.28 152.272,-49.0938"/>
<polygon fill="none" stroke="#404040" points="152.273,-49.0932 155.116,-42.4662 162.327,-42.5417 159.483,-49.1687 152.273,-49.0932"/>
<text text-anchor="middle" x="154" y="-106.5" font-family="Helvetica,sans-Serif" font-size="10.00"> +bufferRight</text>
<text text-anchor="middle" x="154" y="-95.5" font-family="Helvetica,sans-Serif" font-size="10.00">+buff</text>
<text text-anchor="middle" x="154" y="-84.5" font-family="Helvetica,sans-Serif" font-size="10.00">+bufferLeft</text>
</g>
<!-- Node4 -->
<g id="node6" class="node"><title>Node4</title>
<polygon fill="white" stroke="#bfbfbf" points="171.5,-138.5 171.5,-195.5 200.5,-195.5 200.5,-138.5 171.5,-138.5"/>
<text text-anchor="middle" x="186" y="-183.5" font-family="Helvetica,sans-Serif" font-size="10.00">int</text>
<polyline fill="none" stroke="#bfbfbf" points="171.5,-176.5 200.5,-176.5 "/>
<text text-anchor="middle" x="186" y="-164.5" font-family="Helvetica,sans-Serif" font-size="10.00"> </text>
<polyline fill="none" stroke="#bfbfbf" points="171.5,-157.5 200.5,-157.5 "/>
<text text-anchor="middle" x="186" y="-145.5" font-family="Helvetica,sans-Serif" font-size="10.00"> </text>
</g>
<!-- Node4&#45;&gt;Node1 -->
<g id="edge6" class="edge"><title>Node4&#45;&gt;Node1</title>
<path fill="none" stroke="#404040" d="M186.202,-138.478C186.347,-118.792 186.544,-91.9899 186.706,-69.9526"/>
<polygon fill="none" stroke="#404040" points="186.706,-69.9472 182.75,-63.9179 186.795,-57.9475 190.75,-63.9768 186.706,-69.9472"/>
<text text-anchor="middle" x="207" y="-101" font-family="Helvetica,sans-Serif" font-size="10.00"> +port_at</text>
<text text-anchor="middle" x="207" y="-90" font-family="Helvetica,sans-Serif" font-size="10.00">+ident</text>
</g>
<!-- Node5 -->
<g id="node8" class="node"><title>Node5</title>
<polygon fill="white" stroke="#bfbfbf" points="219,-138.5 219,-195.5 287,-195.5 287,-138.5 219,-138.5"/>
<text text-anchor="middle" x="253" y="-183.5" font-family="Helvetica,sans-Serif" font-size="10.00">udp_Socket</text>
<polyline fill="none" stroke="#bfbfbf" points="219,-176.5 287,-176.5 "/>
<text text-anchor="middle" x="253" y="-164.5" font-family="Helvetica,sans-Serif" font-size="10.00"> </text>
<polyline fill="none" stroke="#bfbfbf" points="219,-157.5 287,-157.5 "/>
<text text-anchor="middle" x="253" y="-145.5" font-family="Helvetica,sans-Serif" font-size="10.00"> </text>
</g>
<!-- Node5&#45;&gt;Node1 -->
<g id="edge8" class="edge"><title>Node5&#45;&gt;Node1</title>
<path fill="none" stroke="#404040" d="M249.589,-138.301C246.452,-119.792 240.611,-95.3794 230,-76 227.194,-70.876 223.687,-65.8869 219.892,-61.1995"/>
<polygon fill="none" stroke="#404040" points="219.767,-61.058 212.799,-59.2016 211.833,-52.0555 218.801,-53.9119 219.767,-61.058"/>
<text text-anchor="middle" x="281" y="-95.5" font-family="Helvetica,sans-Serif" font-size="10.00"> +udpSocket_at</text>
</g>
<!-- Node6 -->
<g id="node10" class="node"><title>Node6</title>
<polygon fill="white" stroke="#bfbfbf" points="320,-138.5 320,-195.5 370,-195.5 370,-138.5 320,-138.5"/>
<text text-anchor="middle" x="345" y="-183.5" font-family="Helvetica,sans-Serif" font-size="10.00">cppbool</text>
<polyline fill="none" stroke="#bfbfbf" points="320,-176.5 370,-176.5 "/>
<text text-anchor="middle" x="345" y="-164.5" font-family="Helvetica,sans-Serif" font-size="10.00"> </text>
<polyline fill="none" stroke="#bfbfbf" points="320,-157.5 370,-157.5 "/>
<text text-anchor="middle" x="345" y="-145.5" font-family="Helvetica,sans-Serif" font-size="10.00"> </text>
</g>
<!-- Node6&#45;&gt;Node1 -->
<g id="edge10" class="edge"><title>Node6&#45;&gt;Node1</title>
<path fill="none" stroke="#404040" d="M343.924,-138.336C341.737,-118.636 335.77,-92.7801 320,-76 294.891,-49.2832 253.519,-38.0822 223.578,-33.387"/>
<polygon fill="none" stroke="#404040" points="223.417,-33.3651 216.932,-36.5194 211.526,-31.7468 218.011,-28.5925 223.417,-33.3651"/>
<text text-anchor="middle" x="351" y="-95.5" font-family="Helvetica,sans-Serif" font-size="10.00"> +fly</text>
</g>
</g>
</svg>
